<svg width="336" height="196" viewBox="0 0 336 196" fill="none" xmlns="http://www.w3.org/2000/svg">
<path fill-rule="evenodd" clip-rule="evenodd" d="M145.666 89.4245C146.102 88.7611 146.308 89.9779 146.627 89.2502C146.931 88.5603 147.621 88.7388 148.08 88.4324C148.309 88.2799 148.282 88.0993 148.08 88.0084C147.313 87.7448 146.633 88.6468 145.908 88.2157C145.757 87.9143 145.633 87.6684 145.503 87.4076C144.617 87.9733 144.658 89.1581 143.818 89.6306C142.282 89.6361 142.24 88.4426 141.939 87.4467C141.906 87.3397 141.671 87.2946 141.528 87.2206C141.073 87.7881 141.92 88.3339 141.639 88.7453C140.585 89.9366 140.567 88.1866 139.49 88.3763C139.645 88.3898 139.862 89.0066 139.377 88.7926C138.894 88.4359 139.256 87.5965 138.564 87.3546C137.126 88.21 135.804 88.1345 133.397 87.0606C133.299 87.231 133.2 87.4016 133.102 87.5716C132.534 87.4955 132.776 86.6523 132.182 86.6022C131.556 86.5271 131.517 87.1808 131.151 87.4297C128.102 86.5325 128.102 86.5325 126.464 86.8881C125.731 86.3678 124.778 85.6907 123.825 85.0136C122.824 84.8364 122.706 85.8623 122.156 86.1077C121.155 85.4873 120.078 84.9208 118.953 85.2898C118.133 85.5589 117.468 85.276 116.735 85.2148C115.009 85.0733 113.284 84.8944 111.555 84.7862C111.258 84.7669 110.775 84.8006 110.785 85.4772C111.726 85.7526 112.661 86.0242 113.728 86.0621C116.004 86.1453 118.311 86.2494 120.529 86.7078C122.768 87.1685 125.124 86.8646 127.293 87.8604C127.763 88.0766 128.548 88.0541 129.179 88.0954C132.639 88.3224 136.038 89.0224 139.442 89.72C141.292 90.0992 143.148 90.9059 145.123 90.4878C145.295 90.452 145.445 90.314 145.604 90.2217C145.632 89.8599 145.661 89.4968 145.666 89.4245ZM134.965 75.0344C134.793 75.4471 134.7 75.6711 134.581 75.9607C135.721 76.004 136.617 75.7077 137.308 74.7L137.559 75.6352C137.737 75.6965 137.968 75.8597 138.076 75.8004C138.995 75.2942 139.992 75.5041 140.849 75.739C141.853 76.0144 142.73 76.8053 143.847 76.1169C143.925 76.0689 144.077 76.0192 144.123 76.0574C145.888 77.5281 148.314 77.029 150.211 78.1056C150.834 78.4583 150.16 78.695 150.173 79.19C152.343 78.7874 154.529 77.9012 156.92 79.3585C156.931 79.3881 157.106 79.8237 157.275 80.2465C157.491 80.4843 157.584 80.4369 157.705 80.1774C158.057 79.425 158.749 79.216 159.395 79.5704C161.323 80.6265 163.497 80.6624 165.557 81.1095C169.35 81.9344 173.017 83.1758 176.751 84.1796C180.514 85.1905 184.217 86.3356 187.894 87.6089C192.743 89.2872 197.624 90.8544 202.437 92.6547C205.552 93.8178 208.702 94.9886 211.906 95.9712C214.96 96.9056 217.844 98.378 220.841 99.5152C224.359 100.848 227.716 102.562 231.317 103.72C233.114 104.299 234.693 105.51 236.516 106.204C243.284 108.776 249.388 112.651 255.637 116.233C256.766 116.881 257.941 117.482 258.376 119.168C256.662 119.038 255.156 118.884 253.762 118.062C251.721 116.857 249.659 115.687 247.606 114.501C246.58 113.909 245.614 113.113 244.51 112.78C243.404 112.447 242.529 111.731 241.444 111.384C240.373 111.041 239.408 110.417 238.325 110.01C236.451 109.31 234.698 108.242 232.886 107.351C230.569 106.212 228.066 105.651 225.76 104.511C223.404 103.347 220.876 102.532 218.441 101.518C217.657 101.192 217.039 100.56 216.009 100.887C215.608 101.014 214.947 100.515 214.476 100.197C212.794 99.0584 210.84 98.6271 208.96 97.998C207.023 97.3506 205.075 96.7342 203.139 96.0831C197.585 94.2146 191.997 92.4387 186.498 90.4196C183.006 89.1392 179.309 88.5888 175.872 87.1655C174.516 87.4748 173.791 85.9921 172.422 86.0225C171.38 86.0439 170.25 85.9441 169.178 85.3404C168.41 84.9074 167.608 84.3292 166.646 84.2012C165.651 84.0685 164.653 83.9119 163.68 83.6697C162.692 83.4248 161.685 83.1603 160.775 82.7226C159.821 82.2629 158.753 82.343 157.848 81.9569C157.333 81.737 156.569 82.2195 156.338 81.501C156.119 80.8263 155.736 80.8175 155.238 81.043C154.288 81.4754 153.406 80.9998 152.51 80.8899C152.221 80.487 152.432 79.8829 151.845 79.5248C150.44 80.8775 148.647 79.6034 147.069 80.1589C146.313 78.5167 144.732 79.7109 143.657 79.1641C142.547 78.6001 141.294 79.0763 140.133 78.6146C138.249 77.8664 136.2 77.8081 134.219 77.4535C132.329 77.1142 130.43 76.7545 128.589 76.222C127.816 75.9994 127.516 76.1799 127.148 76.9726C125.776 75.1805 123.023 77.0812 121.771 74.7226C121.538 74.974 121.296 75.4428 121.087 75.4278C119.174 75.2958 117.237 75.4752 115.354 74.9326C113.84 74.4968 112.251 74.1757 110.727 74.6167C109.967 74.835 109.287 74.5526 108.818 74.3868C105.827 73.3244 102.78 73.8777 99.7647 73.8375C97.3781 73.8054 95.0122 73.5856 92.6364 73.4427C89.7074 73.2669 86.7905 72.8966 83.8307 73.1306C82.0195 73.2729 80.174 72.9091 78.3468 72.9409C77.047 72.9641 75.6835 72.5938 74.442 73.2459C73.5141 73.733 72.6303 72.8821 71.6196 73.262C71.2506 73.4003 70.2422 72.8695 69.7773 73.3091C69.1928 73.8605 68.4585 72.3543 68.122 73.5625C66.7835 73.5084 65.3669 73.7125 64.1221 73.3407C62.0446 72.7196 60.0633 73.4485 58.0371 73.4009C54.7809 73.3263 51.582 74.5321 48.2715 74.1121C47.0567 75.0484 45.2713 73.6831 44.1242 75.1783C43.8498 75.5353 43.1651 74.9111 42.5286 74.9872C39.1328 75.3909 35.6781 75.4359 32.4124 76.5685C31.7002 76.8156 30.7456 75.9566 30.2861 77.0752C29.3208 76.3148 28.4271 77.0683 27.5201 77.2348C26.6483 77.3942 25.7169 78.0239 24.9572 77.8417C23.06 77.386 21.9454 79.12 20.2657 79.1944C18.8603 79.256 17.5659 80.3025 16.0456 79.6997C15.8243 79.6128 15.3391 79.7372 15.2178 79.9227C14.4106 81.1626 13.0278 81.1698 11.8569 81.3631C9.80714 81.702 8.27128 83.2159 6.25236 83.5735C6.01089 83.6169 5.86905 84.2252 5.56534 84.7835C7.47492 84.3202 9.37012 84.395 10.9079 83.0437C11.3084 82.6912 11.974 82.6186 12.5307 82.4672C15.8666 81.5632 19.2285 80.7434 22.5373 79.7466C24.0341 79.296 25.565 79.8835 27.0613 79.2295C28.4035 78.6427 29.9539 77.9933 31.3223 78.1508C32.838 78.3251 34.1481 77.442 35.5114 77.7482C36.9876 78.0816 38.1393 77.1194 39.4692 77.1039C42.3195 77.0702 45.0835 76.1811 47.8887 76.1381C50.2135 76.1035 52.5145 75.7535 54.8238 75.8457C55.3605 75.8672 55.3722 74.8112 56.0924 75.4923C56.5249 75.9017 57.1926 75.3583 57.7491 75.2396C58.2602 75.1319 58.5778 75.8094 59.0993 75.5055C59.6874 75.1645 60.2348 75.7299 60.7267 75.6431C62.1257 75.3942 63.5061 75.1975 64.9347 75.0802C67.719 74.8505 70.4954 74.9311 73.2719 74.8193C74.4283 75.8435 75.5852 74.1916 76.8777 74.8846C77.8338 75.3967 79.0815 74.8644 80.1838 74.8345C83.8492 74.732 87.5318 74.8071 91.1919 75.0457C93.761 75.2133 96.2861 75.6785 98.8999 75.3414C100.012 75.1986 101.283 75.5443 102.411 75.7652C105.675 76.4055 108.975 76.3076 112.25 76.5393C113.823 76.6509 115.313 77.0818 116.85 77.2876C119.382 77.6238 121.961 77.4333 124.473 78.183C126.116 78.673 128.026 78.1006 129.569 79.2564C130.994 78.1669 132.251 79.7155 133.694 79.5223C135.106 79.3341 136.515 80.1308 138.012 80.1752C139.365 80.2152 140.718 80.5907 142.052 80.9014C143.391 81.212 144.705 81.6258 146.033 81.9943L146.391 83.3303C147 82.9108 147.437 82.2256 148.177 82.3051C148.693 82.3897 148.627 82.9 148.887 83.1542C149.071 83.1714 149.268 83.2445 149.431 83.1965C151.391 82.6264 153.435 82.9515 155.158 83.5977C158.224 84.7469 161.445 85.0211 164.559 85.8345C168.212 86.7872 171.83 87.8863 175.494 88.7595C179.815 89.7885 183.928 91.4535 188.243 92.4908C191.216 93.2069 194.075 94.4128 196.972 95.4341C200.67 96.739 204.314 98.2148 208.06 99.3618C211.111 100.296 213.997 101.629 216.99 102.697C220.002 103.772 223.035 104.83 225.939 106.234C228.474 107.461 231.187 108.319 233.806 109.38C236.694 110.55 239.492 111.923 242.393 113.069C244.328 113.833 246.292 114.732 248.136 115.781C251.311 117.589 254.471 119.426 257.629 121.264C258.029 121.497 258.581 121.6 258.647 122.293C258.149 123.232 257.262 123.025 256.409 122.601C256.405 124.049 257.861 123.805 258.102 124.758C258.179 125.272 257.673 125.571 257.529 126.03C256.957 125.18 256.518 126.481 256.05 126.128C255.548 125.751 254.843 126.325 254.442 125.703C253.779 125.955 254.58 126.603 253.843 127.075C252.477 126.502 250.917 125.894 249.398 125.197C248.363 124.722 247.45 124.056 246.263 123.833C245.283 123.649 244.564 122.448 243.309 123.062C243.08 123.174 242.937 122.711 242.754 122.552C241.485 121.452 239.269 120.71 237.089 120.447C235.896 120.303 234.731 119.829 233.659 119.408C231.729 118.652 229.862 117.731 227.867 117.113C227.543 117.013 227.264 116.727 226.988 116.428C225.788 115.127 224.278 114.459 222.446 114.551C221.501 114.598 221.143 114.303 219.861 113.516C219.241 113.138 218.478 112.922 217.798 112.664C215.004 111.599 212.1 110.861 209.339 109.752C207.668 109.082 205.7 109.734 204.255 108.397C203.031 109.064 202.286 107.939 201.313 107.641C198.933 106.911 196.654 105.672 194.132 105.666C193.231 105.665 193.363 104.084 192.346 104.839C190.103 103.961 187.662 103.796 185.427 102.963C184.57 102.644 183.717 101.841 182.851 101.929C181.205 102.094 179.985 100.332 178.299 101.1C177.175 99.7026 175.568 100.105 174.095 99.8509C172.956 99.6542 172.075 98.7205 170.652 98.9028C169.455 99.0558 168.152 98.4681 166.91 98.1485C165.663 97.8289 164.522 97.0975 163.167 97.2031C162.529 95.8365 161.118 96.1975 160.059 95.9615C158.919 95.7069 157.762 95.1225 156.552 95.4299C155.61 95.669 155.348 93.9192 154.161 94.7804C153.43 95.3116 152.565 94.5658 151.75 94.4557C150.966 94.3497 149.997 94.5418 149.631 93.3836C149.527 93.0538 148.878 92.8304 148.439 92.6883C146.691 92.1229 144.599 92.6441 143.186 91.0148C142.135 91.427 141.091 90.6257 140.203 90.7872C137.318 91.3128 134.714 90.1735 132.057 89.6167C130.09 89.2044 127.909 89.7123 126.134 88.4038C124.708 89.0875 123.41 87.9223 122.036 88.1062C120.429 88.3219 119 87.3312 117.42 87.4949C115.837 87.658 114.349 87.0286 112.791 86.9713C112.53 86.9615 112.277 86.694 111.9 86.4766C109.555 87.8892 106.906 85.6956 104.024 86.9053C105.28 87.1638 106.137 87.3402 107.459 87.6116C104.85 88.4635 102.705 87.4174 100.539 87.558C98.4025 87.6951 96.1916 87.1683 94.0039 87.0053C91.8194 86.8415 89.6327 86.3881 87.46 86.4573C85.2405 86.5279 83.0668 86.1148 80.8505 86.2058C78.6576 86.2962 76.4536 86.0803 74.1394 85.9951C74.0058 85.6226 73.8479 85.1801 73.6889 84.7379C71.9559 83.9502 70.1963 85.1034 68.4486 84.6763C68.1972 84.6154 67.8142 84.9577 67.6057 84.8639C65.709 84.0066 63.7442 84.9357 61.8356 84.5923C59.8642 84.2375 57.9715 85.1709 55.9907 84.9447C53.6886 84.6819 51.3899 85.2506 49.0723 85.0684C47.8726 84.9737 46.7073 85.9057 45.4512 85.2985C43.8438 86.1004 42.0652 85.8267 40.377 85.9787C38.8594 86.1166 37.3486 86.1412 35.889 86.6256C34.4264 85.5417 32.9582 87.6269 31.4529 86.623C31.2355 86.4788 30.7035 86.7687 30.3314 86.8999C27.9618 87.7328 25.4633 87.6228 23.019 87.9043C22.3078 87.9869 21.9644 88.8337 21.1569 88.7463C17.946 88.3997 15.1202 90.0196 12.0796 90.5441C10.8001 90.7644 9.79274 91.3751 8.91968 92.2896C9.06616 92.3955 9.21312 92.499 9.38277 92.62C9.40179 94.2988 8.25063 94.9773 6.87981 94.9577C5.74119 94.9399 5.50364 93.7595 5.35537 92.7317C4.25073 92.4923 2.99793 92.3927 2.9827 90.8456C2.97508 89.9691 2.3221 89.522 1.83197 88.9481C2.03398 88.1403 2.52813 87.2767 2.37412 86.5508C2.03036 84.932 2.93967 83.8841 3.85967 83.0021C4.83211 82.0722 6.06822 81.4002 7.30106 80.7369C10.7071 78.9064 14.481 78.3608 18.1048 77.3055C21.708 76.2568 25.3573 75.3678 28.973 74.3619C30.2692 74.0022 31.5836 74.5251 32.9236 73.9973C34.1131 73.529 35.4178 72.7643 36.8228 73.4992C38.7943 72.5615 41.0071 73.2385 43.0513 72.4883C45.6446 71.537 48.4391 71.6307 51.1693 71.5223C51.7782 71.4987 52.4504 71.287 52.9284 71.3873C53.6962 71.5494 54.3338 71.3302 54.886 71.0697C56.0146 70.5379 57.1351 71.0801 58.2689 70.9372C59.4277 70.7909 60.6717 70.8997 61.6296 70.5035C62.1871 70.8671 62.0095 71.4636 62.7699 71.4803C63.5575 70.2468 64.8841 70.366 66.3562 70.4485C69.2293 70.6089 72.1118 70.4687 74.9784 70.0505C75.8705 69.9205 76.8077 70.0642 77.7214 70.1366C80.0443 70.3218 82.3651 70.52 84.8827 69.8657C85.1945 70.1139 85.6534 70.4792 85.9315 70.7027C86.5344 70.6019 86.2735 69.9891 86.935 70.0818C88.1098 70.2473 89.3139 70.5512 90.5162 70.1604C90.6913 70.1045 90.8901 70.0906 91.0742 70.102C91.6587 70.1423 92.1901 71.542 92.8274 70.1632C93.5052 71.0682 94.4481 69.9944 95.2816 70.5191C95.8354 70.869 96.784 70.6688 97.4251 70.6264C98.2023 70.5756 98.8928 70.9069 99.6415 70.7918C101.107 70.5634 102.571 71.7504 103.935 70.8089C104.518 70.9217 104.435 71.4444 104.718 71.6858C105.609 71.2277 108.405 71.3154 110.064 71.8607C110.01 72.1531 109.953 72.4506 109.898 72.7512C110.102 72.7638 110.352 72.8576 110.457 72.7734C111.167 72.1916 111.75 71.2628 112.87 72.0357C114.909 71.6256 116.964 72.0952 118.874 72.4921C120.551 72.8416 122.164 72.821 123.802 72.8691C125.369 72.915 126.783 73.9454 128.401 73.5018C130.393 74.643 132.812 73.9948 134.965 75.0344Z" fill="#F7991C"/>
<path fill-rule="evenodd" clip-rule="evenodd" d="M218.245 67.9859C217.321 68.7458 215.697 68.2059 215.144 69.6535C215.301 70.4794 216.066 70.2012 216.62 70.5307C217.993 69.4209 219.552 69.2318 221.321 69.0721C223.068 68.915 224.801 69.3259 226.577 68.8965C228.249 68.4932 230.081 68.7237 231.842 68.7244C233.618 68.7241 235.393 68.7862 237.169 68.8139C238.568 68.838 239.985 68.7159 241.364 68.8935C244.658 69.316 247.967 69.3533 251.271 69.5531C252.986 69.6567 254.671 70.0504 256.413 70.1624C259.402 70.3549 262.353 71.1425 265.344 71.3612C268.563 71.5979 271.671 72.5031 274.85 72.7819C282.015 73.4108 288.923 75.3612 295.973 76.5681C297.119 76.7633 298.255 77.0406 299.413 77.2328C301.954 77.6556 304.607 77.8859 306.744 79.5208C307.568 80.1503 308.224 79.1244 309.188 79.7024C310.027 80.2065 311.313 80.5608 312.482 80.5986C313.669 80.6376 314.764 81.1627 315.894 81.4057C317.252 81.6988 318.634 82.1861 320.091 82.5243C320.825 83.354 321.579 84.24 322.385 85.0782C322.522 85.2207 322.877 85.1515 323.098 85.1757C323.438 84.673 322.376 84.2826 323.364 83.656C324.63 83.744 326.097 83.9745 327.461 84.9655C327.531 85.2773 327 85.3576 326.876 85.6842C326.762 85.9907 326.899 86.4589 326.261 86.2938C325.565 86.1142 325.98 86.815 325.718 87.0332C324.848 86.8815 324.89 85.797 324.21 85.4537C323.045 85.207 323.657 86.5936 322.84 86.8021C322.048 86.635 321.351 86.0552 320.555 85.5799L319.645 86.1929C317.622 85.85 316.015 84.0814 313.803 84.7067C312.75 85.0031 312.147 83.636 310.92 84.077C310.063 84.3842 309.221 83.4685 308.44 83.0554C308.032 82.6768 308.465 82.2947 308.286 81.87C306.976 81.9465 307.541 83.1908 307.147 83.8333C306.477 83.7018 305.8 83.5697 305.121 83.4373C305.161 83.1617 305.2 82.8837 305.238 82.6063C304.36 82.5375 303.822 81.5715 302.919 81.7289C302.307 81.903 302.317 82.4324 302.21 82.8696C301.776 82.7848 301.388 82.7092 301.007 82.6348C301.047 82.3586 301.088 82.0808 301.129 81.7952C299.62 82.3174 299.62 82.3174 297.803 82.009C297.422 81.394 298.831 81.3189 297.885 80.2701C297.144 79.8415 295.711 81.5422 294.729 80.1203C294.597 80.4593 294.47 80.7899 294.26 81.3337C292.943 80.9054 291.528 80.875 290.325 80.4564C288.967 79.9849 287.57 80.2471 286.176 79.6721L285.169 78.178C284.321 78.7169 283.3 77.9723 282.511 78.3452C279.859 79.6 277.399 78.4454 274.956 77.8091C274.06 77.5765 273.262 77.0505 272.289 77.3243C271.978 77.4122 271.758 77.428 271.556 77.1255C270.698 75.8498 269.603 75.7239 268.288 76.4208C267.623 76.7741 266.973 76.6332 266.513 75.9917C265.77 74.9528 264.701 75.2123 263.905 75.0877C263.055 75.7209 264.063 76.1031 263.663 76.6866C263.135 76.153 261.806 77.0679 261.779 75.4847C261.777 75.3865 260.983 75.1055 260.759 75.2418C259.861 75.7852 258.974 75.8807 258.011 75.5285C256.968 76.5571 255.781 76.0116 254.712 75.706C253.288 75.2984 251.829 75.4819 250.427 75.4322C248.68 75.3694 247.083 75.1651 245.533 74.3875C245.101 74.1711 244.605 74.0875 244.255 73.9786C243.319 74.7831 242.541 74.9969 241.444 74.9198C237.815 74.6667 234.172 74.3061 230.529 74.7257C229.258 74.8716 228.348 74.2118 227.633 73.3623C227.166 72.8055 226.598 72.9116 226.205 72.7598C225.057 74.3573 222.747 73.3283 221.905 74.9394C220.963 74.5638 220.905 73.7438 220.261 73.2888C218.71 73.8049 217.055 74.3534 215.416 74.8979C215.104 75.3833 215.929 75.7564 215.358 76.3862C214.691 76.6507 213.638 76.2723 212.795 77.6234C212.92 76.6958 212.957 76.419 212.994 76.1497C212.524 75.8452 212.149 76.7248 211.66 76.22C211.092 75.594 211.677 74.9458 211.673 74.3117C210.889 73.8746 210.109 73.4392 209.374 73.0296C209.518 72.0112 210.105 72.135 210.709 72.281C210.862 71.7598 211.23 71.2515 210.756 70.6637C210.32 70.026 209.935 71.0687 209.398 70.6994C209.902 68.6834 212.419 69.2597 213.136 67.531C213.867 67.7942 214.42 67.992 214.964 68.1889C215.057 67.8127 215.103 67.6314 215.186 67.2992C216.161 67.1779 217.2 67.0431 218.239 66.9273C218.285 66.9222 218.349 67.0811 218.404 67.1631C218.647 67.4946 218.594 67.7691 218.245 67.9859Z" fill="#F7991C"/>
<path fill-rule="evenodd" clip-rule="evenodd" d="M218.245 67.9854C218.594 67.7686 218.647 67.4941 218.404 67.1626C220.071 65.8393 222.14 66.1425 224.018 65.9727C227.141 65.6888 230.304 65.8033 233.444 65.7309C235.764 65.6761 238.164 66.0197 240.527 66.1161C243.737 66.2467 246.911 66.7719 250.136 66.7825C252.041 66.7901 253.942 67.2948 255.846 67.5323C258.527 67.8682 261.265 67.8293 263.915 68.5349C265.285 68.9008 266.68 69.27 268.184 69.0296C268.836 68.9258 269.649 69.104 270.305 69.7455C270.628 70.0613 271.507 69.6183 272.198 69.7256C279.049 70.8069 285.889 71.9352 292.691 73.3036C296.899 74.1494 301.013 75.366 305.2 76.2987C308.528 77.0393 311.869 77.9681 315.095 79.0922C316.337 79.5254 317.91 79.4878 318.926 80.5323C318.739 81.3004 318.281 81.4255 317.784 81.1995C314.606 79.7467 311.244 78.9577 307.815 78.4283C306.662 78.2511 305.774 77.4477 304.586 77.3153C303.572 77.2014 302.528 77.1292 301.596 76.4041C301.039 75.9722 300.026 75.7926 299.324 75.9571C298.159 76.2309 297.228 75.6148 296.203 75.5534C295.133 75.491 294.248 75.0648 293.285 74.8214C291.889 74.4685 290.301 74.9226 289.005 73.916C287.715 74.6616 286.676 73.2231 285.606 73.4322C284.337 73.6802 283.416 72.9158 282.293 72.8009C281.235 72.6923 280.125 72.738 279.06 72.4058C277.936 72.0543 276.743 71.9241 275.582 71.6976C274.419 71.4708 273.26 71.2298 272.092 71.0216C270.972 70.8202 269.798 70.8442 268.71 70.6906C266.318 70.3523 263.891 70.4254 261.51 69.8529C258.939 69.2347 256.27 69.201 253.62 69.0379C250.978 68.8748 248.264 68.815 245.699 68.2818C243.77 67.8805 241.813 68.5657 239.986 67.7426C238.707 68.4647 237.426 67.5463 236.082 67.7045C235.083 67.8211 233.774 67.8782 232.619 67.2442C232.049 66.9311 230.745 67.8085 230.288 67.4635C229.413 66.8035 228.988 67.4221 228.319 67.5217C227.806 67.5986 227.236 67.7785 226.678 67.7088C223.98 67.3696 221.335 67.7264 218.698 68.2711C218.571 68.2973 218.396 68.0863 218.245 67.9854Z" fill="#F7991C"/>
</svg>
