<svg width="174" height="200" viewBox="0 0 174 200" fill="none" xmlns="http://www.w3.org/2000/svg">
<rect width="174" height="200" rx="20" fill="#E2E6FD"/>
<path d="M30.588 156.4C31.896 156.4 32.976 156.832 33.828 157.696C34.68 158.548 35.106 159.634 35.106 160.954C35.106 162.274 34.68 163.366 33.828 164.23C32.976 165.082 31.896 165.508 30.588 165.508H28.14V169H25.224V156.4H30.588ZM30.138 163.132C30.726 163.132 31.206 162.928 31.578 162.52C31.962 162.112 32.154 161.59 32.154 160.954C32.154 160.318 31.962 159.796 31.578 159.388C31.206 158.98 30.726 158.776 30.138 158.776H28.14V163.132H30.138ZM39.8927 169.234C38.6327 169.234 37.6367 168.808 36.9047 167.956C36.1727 167.104 35.8067 166.006 35.8067 164.662C35.8067 163.342 36.1847 162.25 36.9407 161.386C37.6967 160.522 38.6927 160.09 39.9287 160.09C40.5407 160.09 41.0867 160.222 41.5667 160.486C42.0467 160.75 42.4067 161.11 42.6467 161.566V160.324H45.3827V169H42.6467V167.776C42.4067 168.208 42.0347 168.562 41.5307 168.838C41.0387 169.102 40.4927 169.234 39.8927 169.234ZM40.6847 166.948C41.3447 166.948 41.8547 166.732 42.2147 166.3C42.5747 165.868 42.7547 165.322 42.7547 164.662C42.7547 164.014 42.5747 163.474 42.2147 163.042C41.8547 162.61 41.3447 162.394 40.6847 162.394C40.0607 162.394 39.5567 162.604 39.1727 163.024C38.8007 163.444 38.6147 163.99 38.6147 164.662C38.6147 165.334 38.8007 165.886 39.1727 166.318C39.5567 166.738 40.0607 166.948 40.6847 166.948ZM53.5372 160.324H56.2912V168.73C56.2912 170.074 55.8772 171.118 55.0492 171.862C54.2692 172.534 53.2072 172.87 51.8632 172.87C50.4592 172.87 49.3912 172.57 48.6592 171.97C47.9512 171.37 47.5912 170.608 47.5792 169.684H50.3512C50.4112 170.464 50.9152 170.854 51.8632 170.854C52.9792 170.854 53.5372 170.206 53.5372 168.91V167.56C53.0332 168.52 52.1152 169 50.7832 169C49.7152 169 48.9112 168.676 48.3712 168.028C47.8432 167.38 47.5792 166.492 47.5792 165.364V160.324H50.3332V164.95C50.3332 166.198 50.8432 166.822 51.8632 166.822C52.4032 166.822 52.8172 166.63 53.1052 166.246C53.3932 165.85 53.5372 165.31 53.5372 164.626V160.324ZM69.8565 162.556C70.6125 162.628 71.2305 162.928 71.7105 163.456C72.2025 163.972 72.4485 164.656 72.4485 165.508C72.4485 166.588 72.0885 167.44 71.3685 168.064C70.6485 168.688 69.6645 169 68.4165 169H63.0345V156.4H68.2185C69.4665 156.4 70.4505 156.694 71.1705 157.282C71.9025 157.858 72.2685 158.656 72.2685 159.676C72.2685 160.48 72.0525 161.128 71.6205 161.62C71.1885 162.1 70.6005 162.412 69.8565 162.556ZM67.5705 158.506H65.9505V161.566H67.5705C68.1225 161.566 68.5545 161.434 68.8665 161.17C69.1905 160.894 69.3525 160.516 69.3525 160.036C69.3525 159.556 69.1965 159.184 68.8845 158.92C68.5725 158.644 68.1345 158.506 67.5705 158.506ZM67.7685 166.786C68.3085 166.786 68.7345 166.642 69.0465 166.354C69.3585 166.054 69.5145 165.646 69.5145 165.13C69.5145 164.662 69.3525 164.29 69.0285 164.014C68.7165 163.726 68.2965 163.582 67.7685 163.582H65.9505V166.786H67.7685ZM76.7694 159.064C76.4454 159.388 76.0374 159.55 75.5454 159.55C75.0534 159.55 74.6454 159.388 74.3214 159.064C74.0094 158.74 73.8534 158.344 73.8534 157.876C73.8534 157.396 74.0094 156.994 74.3214 156.67C74.6454 156.346 75.0534 156.184 75.5454 156.184C76.0374 156.184 76.4454 156.352 76.7694 156.688C77.0934 157.012 77.2554 157.408 77.2554 157.876C77.2554 158.344 77.0934 158.74 76.7694 159.064ZM74.1594 169V160.324H76.9134V169H74.1594ZM79.1867 169V156.4H81.9407V169H79.1867ZM84.2141 169V156.4H86.9681V169H84.2141ZM92.7154 169.27C91.4674 169.27 90.4714 169 89.7274 168.46C88.9834 167.92 88.6114 167.23 88.6114 166.39H91.3474C91.3474 166.69 91.4794 166.936 91.7434 167.128C92.0074 167.32 92.3494 167.416 92.7694 167.416C93.0694 167.416 93.3094 167.344 93.4894 167.2C93.6814 167.056 93.7774 166.858 93.7774 166.606C93.7774 166.21 93.5674 165.964 93.1474 165.868L91.0234 165.328C90.3154 165.148 89.7754 164.842 89.4034 164.41C89.0314 163.978 88.8454 163.45 88.8454 162.826C88.8454 162.01 89.1814 161.35 89.8534 160.846C90.5254 160.33 91.4254 160.072 92.5534 160.072C93.8014 160.072 94.7554 160.312 95.4154 160.792C96.0874 161.272 96.4234 161.932 96.4234 162.772H93.7054C93.7054 162.472 93.5974 162.238 93.3814 162.07C93.1774 161.902 92.8894 161.818 92.5174 161.818C92.2174 161.818 91.9774 161.884 91.7974 162.016C91.6174 162.148 91.5274 162.322 91.5274 162.538C91.5274 162.922 91.7734 163.18 92.2654 163.312L94.3174 163.87C95.0014 164.05 95.5354 164.35 95.9194 164.77C96.3154 165.178 96.5134 165.682 96.5134 166.282C96.5134 167.182 96.1714 167.908 95.4874 168.46C94.8154 169 93.8914 169.27 92.7154 169.27Z" fill="#4F4F4F"/>
<path d="M86.3334 41V47.8567C86.3334 52.3333 83.5 55.1667 79.0234 55.1667H69.3334V35.3617C69.3334 32.2167 71.9117 29.6667 75.0567 29.6667C78.1451 29.695 80.9784 30.9417 83.0184 32.9817C85.0584 35.05 86.3334 37.8833 86.3334 41Z" fill="#8172DA"/>
<path opacity="0.4" d="M29.6666 43.8333V83.5C29.6666 85.8517 32.33 87.1833 34.2 85.7667L39.045 82.14C40.1783 81.29 41.765 81.4033 42.785 82.4233L47.4883 87.155C48.5933 88.26 50.4066 88.26 51.5116 87.155L56.2716 82.395C57.2633 81.4033 58.85 81.29 59.955 82.14L64.7999 85.7667C66.6699 87.155 69.3333 85.8233 69.3333 83.5V35.3333C69.3333 32.2167 71.8833 29.6667 75 29.6667H43.8333H41C32.5 29.6667 29.6666 34.7383 29.6666 41V43.8333Z" fill="#8172DA"/>
<path d="M58 51.625H41C39.8383 51.625 38.875 50.6617 38.875 49.5C38.875 48.3383 39.8383 47.375 41 47.375H58C59.1617 47.375 60.125 48.3383 60.125 49.5C60.125 50.6617 59.1617 51.625 58 51.625Z" fill="#8172DA"/>
<path d="M55.875 62.9583H43.125C41.9633 62.9583 41 61.995 41 60.8333C41 59.6717 41.9633 58.7083 43.125 58.7083H55.875C57.0367 58.7083 58 59.6717 58 60.8333C58 61.995 57.0367 62.9583 55.875 62.9583Z" fill="#8172DA"/>
</svg>
