<svg width="174" height="200" viewBox="0 0 174 200" fill="none" xmlns="http://www.w3.org/2000/svg">
<rect width="174" height="200" rx="20" fill="#6450EF"/>
<path d="M29.364 146.36C27.816 146.36 26.604 145.97 25.728 145.19C24.852 144.398 24.414 143.294 24.414 141.878H27.33C27.33 142.562 27.51 143.096 27.87 143.48C28.242 143.864 28.746 144.056 29.382 144.056C29.922 144.056 30.336 143.936 30.624 143.696C30.924 143.456 31.074 143.114 31.074 142.67C31.074 142.286 30.96 141.98 30.732 141.752C30.516 141.512 30.12 141.278 29.544 141.05L27.276 140.168C25.572 139.532 24.72 138.386 24.72 136.73C24.72 135.614 25.122 134.72 25.926 134.048C26.742 133.376 27.834 133.04 29.202 133.04C30.594 133.04 31.71 133.406 32.55 134.138C33.39 134.858 33.81 135.824 33.81 137.036H30.894C30.894 136.448 30.744 135.998 30.444 135.686C30.144 135.374 29.712 135.218 29.148 135.218C28.68 135.218 28.308 135.332 28.032 135.56C27.768 135.776 27.636 136.076 27.636 136.46C27.636 136.808 27.768 137.108 28.032 137.36C28.296 137.6 28.74 137.846 29.364 138.098L31.452 138.926C33.144 139.586 33.99 140.768 33.99 142.472C33.99 143.648 33.564 144.59 32.712 145.298C31.872 146.006 30.756 146.36 29.364 146.36ZM44.248 141.212C44.248 141.572 44.224 141.974 44.176 142.418H37.768C37.792 142.982 37.984 143.42 38.344 143.732C38.704 144.044 39.19 144.2 39.802 144.2C40.642 144.2 41.182 143.93 41.422 143.39H44.122C43.99 144.242 43.522 144.938 42.718 145.478C41.926 146.006 40.954 146.27 39.802 146.27C38.326 146.27 37.162 145.862 36.31 145.046C35.458 144.23 35.032 143.102 35.032 141.662C35.032 140.246 35.458 139.13 36.31 138.314C37.162 137.486 38.296 137.072 39.712 137.072C41.056 137.072 42.148 137.456 42.988 138.224C43.828 138.992 44.248 139.988 44.248 141.212ZM37.768 140.708H41.53C41.518 140.132 41.356 139.688 41.044 139.376C40.732 139.064 40.282 138.908 39.694 138.908C39.106 138.908 38.638 139.076 38.29 139.412C37.954 139.736 37.78 140.168 37.768 140.708ZM45.8235 146V133.4H48.5775V146H45.8235ZM50.8508 146V133.4H53.6048V146H50.8508ZM73.8271 139.376V141.572H72.6391C72.3151 143.096 71.6011 144.278 70.4971 145.118C69.4051 145.946 67.9951 146.36 66.2671 146.36C64.2751 146.36 62.6611 145.742 61.4251 144.506C60.2011 143.258 59.5951 141.674 59.6071 139.754C59.6071 137.846 60.2131 136.25 61.4251 134.966C62.6491 133.682 64.3171 133.04 66.4291 133.04C68.0971 133.04 69.4771 133.442 70.5691 134.246C71.6731 135.05 72.2791 136.07 72.3871 137.306H69.2011C69.0811 136.766 68.7751 136.328 68.2831 135.992C67.8031 135.656 67.1911 135.488 66.4471 135.488C65.2111 135.488 64.2631 135.878 63.6031 136.658C62.9551 137.438 62.6371 138.452 62.6491 139.7C62.6371 140.9 62.9671 141.89 63.6391 142.67C64.3231 143.438 65.2231 143.822 66.3391 143.822C68.1031 143.822 69.2011 143.072 69.6331 141.572H67.3831V139.376H73.8271ZM77.8417 136.064C77.5177 136.388 77.1097 136.55 76.6177 136.55C76.1257 136.55 75.7177 136.388 75.3937 136.064C75.0817 135.74 74.9257 135.344 74.9257 134.876C74.9257 134.396 75.0817 133.994 75.3937 133.67C75.7177 133.346 76.1257 133.184 76.6177 133.184C77.1097 133.184 77.5177 133.352 77.8417 133.688C78.1657 134.012 78.3277 134.408 78.3277 134.876C78.3277 135.344 78.1657 135.74 77.8417 136.064ZM75.2317 146V137.324H77.9857V146H75.2317ZM84.993 135.344C84.153 135.344 83.733 135.71 83.733 136.442V137.324H85.749V139.502H83.733V146H80.979V139.502H79.431V137.324H80.979V136.478C80.979 135.842 81.081 135.302 81.285 134.858C81.489 134.402 81.759 134.066 82.095 133.85C82.431 133.634 82.767 133.478 83.103 133.382C83.439 133.286 83.793 133.238 84.165 133.238C84.801 133.238 85.329 133.304 85.749 133.436V135.398C85.689 135.398 85.569 135.392 85.389 135.38C85.221 135.356 85.089 135.344 84.993 135.344ZM92.0903 143.858C92.4743 143.858 92.7923 143.84 93.0443 143.804V146C92.5163 146.096 91.9043 146.144 91.2083 146.144C90.8963 146.144 90.6203 146.126 90.3803 146.09C90.1403 146.054 89.8703 145.976 89.5703 145.856C89.2703 145.724 89.0243 145.55 88.8323 145.334C88.6403 145.118 88.4723 144.806 88.3283 144.398C88.1963 143.99 88.1303 143.51 88.1303 142.958V139.502H86.7623V137.324H88.1303V134.75H90.8843V137.324H92.8463V139.502H90.8843V142.382C90.8843 142.97 90.9863 143.366 91.1903 143.57C91.3943 143.762 91.6943 143.858 92.0903 143.858ZM31.254 167.36C29.214 167.36 27.576 166.742 26.34 165.506C25.104 164.258 24.486 162.656 24.486 160.7C24.486 158.744 25.104 157.148 26.34 155.912C27.576 154.664 29.214 154.04 31.254 154.04C33.078 154.04 34.56 154.49 35.7 155.39C36.852 156.278 37.512 157.472 37.68 158.972H34.584C34.416 158.252 34.044 157.688 33.468 157.28C32.892 156.86 32.16 156.65 31.272 156.65C30.096 156.65 29.178 157.016 28.518 157.748C27.858 158.468 27.528 159.452 27.528 160.7C27.528 161.948 27.858 162.938 28.518 163.67C29.178 164.39 30.096 164.75 31.272 164.75C32.16 164.75 32.892 164.546 33.468 164.138C34.044 163.718 34.416 163.148 34.584 162.428H37.68C37.512 163.928 36.852 165.128 35.7 166.028C34.56 166.916 33.078 167.36 31.254 167.36ZM42.7404 167.234C41.4804 167.234 40.4844 166.808 39.7524 165.956C39.0204 165.104 38.6544 164.006 38.6544 162.662C38.6544 161.342 39.0324 160.25 39.7884 159.386C40.5444 158.522 41.5404 158.09 42.7764 158.09C43.3884 158.09 43.9344 158.222 44.4144 158.486C44.8944 158.75 45.2544 159.11 45.4944 159.566V158.324H48.2304V167H45.4944V165.776C45.2544 166.208 44.8824 166.562 44.3784 166.838C43.8864 167.102 43.3404 167.234 42.7404 167.234ZM43.5324 164.948C44.1924 164.948 44.7024 164.732 45.0624 164.3C45.4224 163.868 45.6024 163.322 45.6024 162.662C45.6024 162.014 45.4224 161.474 45.0624 161.042C44.7024 160.61 44.1924 160.394 43.5324 160.394C42.9084 160.394 42.4044 160.604 42.0204 161.024C41.6484 161.444 41.4624 161.99 41.4624 162.662C41.4624 163.334 41.6484 163.886 42.0204 164.318C42.4044 164.738 42.9084 164.948 43.5324 164.948ZM50.5168 167V158.324H53.2708V160.142C53.4148 159.518 53.7088 159.038 54.1528 158.702C54.6088 158.354 55.1128 158.18 55.6648 158.18C55.9528 158.18 56.1928 158.204 56.3848 158.252V160.808C56.0608 160.772 55.7848 160.754 55.5568 160.754C54.0328 160.754 53.2708 161.72 53.2708 163.652V167H50.5168ZM63.828 154.4H66.582V167H63.846V165.776C63.606 166.208 63.234 166.562 62.73 166.838C62.238 167.102 61.692 167.234 61.092 167.234C59.832 167.234 58.836 166.808 58.104 165.956C57.372 165.104 57.006 164.006 57.006 162.662C57.006 161.342 57.384 160.25 58.14 159.386C58.896 158.522 59.892 158.09 61.128 158.09C61.74 158.09 62.286 158.222 62.766 158.486C63.246 158.75 63.606 159.11 63.846 159.566V158.828H63.828V154.4ZM61.884 164.948C62.544 164.948 63.054 164.732 63.414 164.3C63.774 163.868 63.954 163.322 63.954 162.662C63.954 162.014 63.774 161.474 63.414 161.042C63.054 160.61 62.544 160.394 61.884 160.394C61.26 160.394 60.756 160.604 60.372 161.024C60 161.444 59.814 161.99 59.814 162.662C59.814 163.334 60 163.886 60.372 164.318C60.756 164.738 61.26 164.948 61.884 164.948ZM72.3424 167.27C71.0944 167.27 70.0984 167 69.3544 166.46C68.6104 165.92 68.2384 165.23 68.2384 164.39H70.9744C70.9744 164.69 71.1064 164.936 71.3704 165.128C71.6344 165.32 71.9764 165.416 72.3964 165.416C72.6964 165.416 72.9364 165.344 73.1164 165.2C73.3084 165.056 73.4044 164.858 73.4044 164.606C73.4044 164.21 73.1944 163.964 72.7744 163.868L70.6504 163.328C69.9424 163.148 69.4024 162.842 69.0304 162.41C68.6584 161.978 68.4724 161.45 68.4724 160.826C68.4724 160.01 68.8084 159.35 69.4804 158.846C70.1524 158.33 71.0524 158.072 72.1804 158.072C73.4284 158.072 74.3824 158.312 75.0424 158.792C75.7144 159.272 76.0504 159.932 76.0504 160.772H73.3324C73.3324 160.472 73.2244 160.238 73.0084 160.07C72.8044 159.902 72.5164 159.818 72.1444 159.818C71.8444 159.818 71.6044 159.884 71.4244 160.016C71.2444 160.148 71.1544 160.322 71.1544 160.538C71.1544 160.922 71.4004 161.18 71.8924 161.312L73.9444 161.87C74.6284 162.05 75.1624 162.35 75.5464 162.77C75.9424 163.178 76.1404 163.682 76.1404 164.282C76.1404 165.182 75.7984 165.908 75.1144 166.46C74.4424 167 73.5184 167.27 72.3424 167.27Z" fill="#F4F6FF"/>
<path d="M52.3333 49.7267V41.7083C51.1716 41.7083 50.2083 40.745 50.2083 39.5833V33.2083H43.8333C31.3383 33.2083 27.5416 37.005 27.5416 49.5V50.9167C27.5416 52.0783 28.505 53.0417 29.6666 53.0417C32.3866 53.0417 34.625 55.28 34.625 58C34.625 60.72 32.3866 62.9583 29.6666 62.9583C28.505 62.9583 27.5416 63.9217 27.5416 65.0833V66.5C27.5416 78.995 31.3383 82.7917 43.8333 82.7917H50.2083V76.4167C50.2083 75.255 51.1716 74.2917 52.3333 74.2917V66.2733C51.1716 66.2733 50.2083 65.31 50.2083 64.1483V51.8517C50.2083 50.69 51.1716 49.7267 52.3333 49.7267Z" fill="#E2E6FD"/>
<path opacity="0.4" d="M81.375 59.4167C81.375 62.1367 83.6134 64.375 86.3334 64.375C87.495 64.375 88.4584 65.3383 88.4584 66.5C88.4584 78.995 84.6617 82.7917 72.1667 82.7917H54.4584V76.4167C54.4584 75.255 53.495 74.2917 52.3334 74.2917V66.2733C53.495 66.2733 54.4584 65.31 54.4584 64.1483V51.8517C54.4584 50.69 53.495 49.7267 52.3334 49.7267V41.7083C53.495 41.7083 54.4584 40.745 54.4584 39.5833V33.2083H72.1667C84.6617 33.2083 88.4584 37.005 88.4584 49.5V52.3333C88.4584 53.495 87.495 54.4583 86.3334 54.4583C83.6134 54.4583 81.375 56.6967 81.375 59.4167Z" fill="#E2E6FD"/>
</svg>
