<svg width="174" height="154" viewBox="0 0 174 154" fill="none" xmlns="http://www.w3.org/2000/svg">
<rect width="174" height="154" rx="20" fill="#F7CC5A"/>
<path d="M32.586 100L32.154 98.47H27.69L27.258 100H24.18L28.446 87.4H31.38L35.664 100H32.586ZM28.338 96.184H31.506L29.922 90.586L28.338 96.184ZM39.5917 90.064C39.2677 90.388 38.8597 90.55 38.3677 90.55C37.8757 90.55 37.4677 90.388 37.1437 90.064C36.8317 89.74 36.6757 89.344 36.6757 88.876C36.6757 88.396 36.8317 87.994 37.1437 87.67C37.4677 87.346 37.8757 87.184 38.3677 87.184C38.8597 87.184 39.2677 87.352 39.5917 87.688C39.9157 88.012 40.0777 88.408 40.0777 88.876C40.0777 89.344 39.9157 89.74 39.5917 90.064ZM36.9817 100V91.324H39.7357V100H36.9817ZM42.009 100V91.324H44.763V93.142C44.907 92.518 45.201 92.038 45.645 91.702C46.101 91.354 46.605 91.18 47.157 91.18C47.445 91.18 47.685 91.204 47.877 91.252V93.808C47.553 93.772 47.277 93.754 47.049 93.754C45.525 93.754 44.763 94.72 44.763 96.652V100H42.009ZM54.2622 97.858C54.6462 97.858 54.9642 97.84 55.2162 97.804V100C54.6882 100.096 54.0762 100.144 53.3802 100.144C53.0682 100.144 52.7922 100.126 52.5522 100.09C52.3122 100.054 52.0422 99.976 51.7422 99.856C51.4422 99.724 51.1962 99.55 51.0042 99.334C50.8122 99.118 50.6442 98.806 50.5002 98.398C50.3682 97.99 50.3022 97.51 50.3022 96.958V93.502H48.9342V91.324H50.3022V88.75H53.0562V91.324H55.0182V93.502H53.0562V96.382C53.0562 96.97 53.1582 97.366 53.3622 97.57C53.5662 97.762 53.8662 97.858 54.2622 97.858ZM59.4022 90.064C59.0782 90.388 58.6702 90.55 58.1782 90.55C57.6862 90.55 57.2782 90.388 56.9542 90.064C56.6422 89.74 56.4862 89.344 56.4862 88.876C56.4862 88.396 56.6422 87.994 56.9542 87.67C57.2782 87.346 57.6862 87.184 58.1782 87.184C58.6702 87.184 59.0782 87.352 59.4022 87.688C59.7262 88.012 59.8882 88.408 59.8882 88.876C59.8882 89.344 59.7262 89.74 59.4022 90.064ZM56.7922 100V91.324H59.5462V100H56.7922ZM61.8195 100V91.324H64.5735V92.584C64.7655 92.14 65.0775 91.78 65.5095 91.504C65.9535 91.228 66.4695 91.09 67.0575 91.09C68.4255 91.09 69.3315 91.624 69.7755 92.692C70.0155 92.212 70.3815 91.828 70.8735 91.54C71.3655 91.24 71.9235 91.09 72.5475 91.09C74.5995 91.09 75.6255 92.266 75.6255 94.618V100H72.8535V95.122C72.8535 93.982 72.4215 93.412 71.5575 93.412C70.5855 93.412 70.0995 94.12 70.0995 95.536V100H67.3275V95.104C67.3275 93.976 66.9015 93.412 66.0495 93.412C65.5695 93.412 65.2035 93.574 64.9515 93.898C64.6995 94.21 64.5735 94.756 64.5735 95.536V100H61.8195ZM86.3301 95.212C86.3301 95.572 86.3061 95.974 86.2581 96.418H79.8501C79.8741 96.982 80.0661 97.42 80.4261 97.732C80.7861 98.044 81.2721 98.2 81.8841 98.2C82.7241 98.2 83.2641 97.93 83.5041 97.39H86.2041C86.0721 98.242 85.6041 98.938 84.8001 99.478C84.0081 100.006 83.0361 100.27 81.8841 100.27C80.4081 100.27 79.2441 99.862 78.3921 99.046C77.5401 98.23 77.1141 97.102 77.1141 95.662C77.1141 94.246 77.5401 93.13 78.3921 92.314C79.2441 91.486 80.3781 91.072 81.7941 91.072C83.1381 91.072 84.2301 91.456 85.0701 92.224C85.9101 92.992 86.3301 93.988 86.3301 95.212ZM79.8501 94.708H83.6121C83.6001 94.132 83.4381 93.688 83.1261 93.376C82.8141 93.064 82.3641 92.908 81.7761 92.908C81.1881 92.908 80.7201 93.076 80.3721 93.412C80.0361 93.736 79.8621 94.168 79.8501 94.708ZM29.688 118.858C30.072 118.858 30.39 118.84 30.642 118.804V121C30.114 121.096 29.502 121.144 28.806 121.144C28.494 121.144 28.218 121.126 27.978 121.09C27.738 121.054 27.468 120.976 27.168 120.856C26.868 120.724 26.622 120.55 26.43 120.334C26.238 120.118 26.07 119.806 25.926 119.398C25.794 118.99 25.728 118.51 25.728 117.958V114.502H24.36V112.324H25.728V109.75H28.482V112.324H30.444V114.502H28.482V117.382C28.482 117.97 28.584 118.366 28.788 118.57C28.992 118.762 29.292 118.858 29.688 118.858ZM39.85 119.974C38.986 120.838 37.822 121.27 36.358 121.27C34.894 121.27 33.724 120.838 32.848 119.974C31.972 119.11 31.534 118.006 31.534 116.662C31.534 115.318 31.972 114.22 32.848 113.368C33.724 112.504 34.894 112.072 36.358 112.072C37.822 112.072 38.986 112.504 39.85 113.368C40.726 114.22 41.164 115.318 41.164 116.662C41.164 118.006 40.726 119.11 39.85 119.974ZM36.358 118.93C36.994 118.93 37.498 118.72 37.87 118.3C38.242 117.88 38.428 117.334 38.428 116.662C38.428 115.99 38.242 115.444 37.87 115.024C37.498 114.604 36.994 114.394 36.358 114.394C35.71 114.394 35.2 114.604 34.828 115.024C34.468 115.444 34.288 115.99 34.288 116.662C34.288 117.334 34.468 117.88 34.828 118.3C35.2 118.72 35.71 118.93 36.358 118.93ZM53.2442 121.36C51.2042 121.36 49.5662 120.742 48.3302 119.506C47.0942 118.258 46.4762 116.656 46.4762 114.7C46.4762 112.744 47.0942 111.148 48.3302 109.912C49.5662 108.664 51.2042 108.04 53.2442 108.04C55.0682 108.04 56.5502 108.49 57.6902 109.39C58.8422 110.278 59.5022 111.472 59.6702 112.972H56.5742C56.4062 112.252 56.0342 111.688 55.4582 111.28C54.8822 110.86 54.1502 110.65 53.2622 110.65C52.0862 110.65 51.1682 111.016 50.5082 111.748C49.8482 112.468 49.5182 113.452 49.5182 114.7C49.5182 115.948 49.8482 116.938 50.5082 117.67C51.1682 118.39 52.0862 118.75 53.2622 118.75C54.1502 118.75 54.8822 118.546 55.4582 118.138C56.0342 117.718 56.4062 117.148 56.5742 116.428H59.6702C59.5022 117.928 58.8422 119.128 57.6902 120.028C56.5502 120.916 55.0682 121.36 53.2442 121.36ZM64.7306 121.234C63.4706 121.234 62.4746 120.808 61.7426 119.956C61.0106 119.104 60.6446 118.006 60.6446 116.662C60.6446 115.342 61.0226 114.25 61.7786 113.386C62.5346 112.522 63.5306 112.09 64.7666 112.09C65.3786 112.09 65.9246 112.222 66.4046 112.486C66.8846 112.75 67.2446 113.11 67.4846 113.566V112.324H70.2206V121H67.4846V119.776C67.2446 120.208 66.8726 120.562 66.3686 120.838C65.8766 121.102 65.3306 121.234 64.7306 121.234ZM65.5226 118.948C66.1826 118.948 66.6926 118.732 67.0526 118.3C67.4126 117.868 67.5926 117.322 67.5926 116.662C67.5926 116.014 67.4126 115.474 67.0526 115.042C66.6926 114.61 66.1826 114.394 65.5226 114.394C64.8986 114.394 64.3946 114.604 64.0106 115.024C63.6386 115.444 63.4526 115.99 63.4526 116.662C63.4526 117.334 63.6386 117.886 64.0106 118.318C64.3946 118.738 64.8986 118.948 65.5226 118.948ZM75.981 121.27C74.733 121.27 73.737 121 72.993 120.46C72.249 119.92 71.877 119.23 71.877 118.39H74.613C74.613 118.69 74.745 118.936 75.009 119.128C75.273 119.32 75.615 119.416 76.035 119.416C76.335 119.416 76.575 119.344 76.755 119.2C76.947 119.056 77.043 118.858 77.043 118.606C77.043 118.21 76.833 117.964 76.413 117.868L74.289 117.328C73.581 117.148 73.041 116.842 72.669 116.41C72.297 115.978 72.111 115.45 72.111 114.826C72.111 114.01 72.447 113.35 73.119 112.846C73.791 112.33 74.691 112.072 75.819 112.072C77.067 112.072 78.021 112.312 78.681 112.792C79.353 113.272 79.689 113.932 79.689 114.772H76.971C76.971 114.472 76.863 114.238 76.647 114.07C76.443 113.902 76.155 113.818 75.783 113.818C75.483 113.818 75.243 113.884 75.063 114.016C74.883 114.148 74.793 114.322 74.793 114.538C74.793 114.922 75.039 115.18 75.531 115.312L77.583 115.87C78.267 116.05 78.801 116.35 79.185 116.77C79.581 117.178 79.779 117.682 79.779 118.282C79.779 119.182 79.437 119.908 78.753 120.46C78.081 121 77.157 121.27 75.981 121.27ZM87.0515 112.09C89.1635 112.09 90.2195 113.272 90.2195 115.636V121H87.4475V116.536C87.4475 115.792 87.3275 115.252 87.0875 114.916C86.8595 114.58 86.4695 114.412 85.9175 114.412C84.8015 114.412 84.2435 115.096 84.2435 116.464V121H81.4895V108.4H84.2435V113.584C84.7595 112.588 85.6955 112.09 87.0515 112.09Z" fill="#4F4F4F"/>
<path opacity="0.4" fill-rule="evenodd" clip-rule="evenodd" d="M68 52.5C68.8284 52.5 69.5 53.1716 69.5 54C69.5 62.5684 62.5684 69.5 54 69.5C53.4596 69.5 52.961 69.2093 52.6947 68.7391C52.4284 68.2688 52.4357 67.6917 52.7138 67.2283L54.8137 63.7283C55.24 63.0179 56.1613 62.7875 56.8717 63.2138C57.5821 63.64 57.8124 64.5614 57.3862 65.2717L56.8436 66.1761C62.3818 64.8913 66.5 59.9332 66.5 54C66.5 53.1716 67.1716 52.5 68 52.5Z" fill="#FF5F00"/>
<path opacity="0.4" fill-rule="evenodd" clip-rule="evenodd" d="M39.1564 29.8239C33.6182 31.1087 29.5 36.0668 29.5 42C29.5 42.8284 28.8284 43.5 28 43.5C27.1716 43.5 26.5 42.8284 26.5 42C26.5 33.4316 33.4316 26.5 42 26.5C42.5404 26.5 43.039 26.7907 43.3053 27.2609C43.5716 27.7312 43.5643 28.3083 43.2862 28.7717L41.1863 32.2717C40.76 32.9821 39.8387 33.2125 39.1283 32.7862C38.4179 32.36 38.1876 31.4386 38.6138 30.7283L39.1564 29.8239Z" fill="#FF5F00"/>
<path opacity="0.4" d="M48 55.4V56.62H28V55.4C28 51.88 28.88 51 32.44 51H43.56C47.12 51 48 51.88 48 55.4Z" fill="#FF5F00"/>
<path d="M28 56.62V59.62V63.6C28 67.12 28.88 68 32.44 68H43.56C47.12 68 48 67.12 48 63.6V59.62V56.62H28Z" fill="#FF5F00"/>
<path opacity="0.4" d="M68 32.4V33.62H48V32.4C48 28.88 48.88 28 52.44 28H63.56C67.12 28 68 28.88 68 32.4Z" fill="#FF5F00"/>
<path d="M48 33.62V36.62V40.6C48 44.12 48.88 45 52.44 45H63.56C67.12 45 68 44.12 68 40.6V36.62V33.62H48Z" fill="#FF5F00"/>
</svg>
