<svg width="366" height="148" viewBox="0 0 366 148" fill="none" xmlns="http://www.w3.org/2000/svg">
<g clip-path="url(#clip0_547_168)">
<rect width="366" height="148" fill="#6450EF"/>
<rect width="366" height="148" fill="url(#paint0_linear_547_168)"/>
<circle opacity="0.04" cx="320" cy="170" r="94" stroke="white" stroke-width="50"/>
<path d="M66.1667 61.0233V51.3542C64.7659 51.3542 63.6042 50.1925 63.6042 48.7917V41.1042H55.9167C40.8492 41.1042 36.2709 45.6825 36.2709 60.75V62.4583C36.2709 63.8592 37.4325 65.0208 38.8334 65.0208C42.1134 65.0208 44.8125 67.72 44.8125 71C44.8125 74.28 42.1134 76.9792 38.8334 76.9792C37.4325 76.9792 36.2709 78.1408 36.2709 79.5417V81.25C36.2709 96.3175 40.8492 100.896 55.9167 100.896H63.6042V93.2083C63.6042 91.8075 64.7659 90.6458 66.1667 90.6458V80.9767C64.7659 80.9767 63.6042 79.815 63.6042 78.4142V63.5858C63.6042 62.185 64.7659 61.0233 66.1667 61.0233Z" fill="#E2E6FD"/>
<path opacity="0.4" d="M101.187 72.7083C101.187 75.9883 103.887 78.6875 107.167 78.6875C108.567 78.6875 109.729 79.8492 109.729 81.25C109.729 96.3175 105.151 100.896 90.0833 100.896H68.7291V93.2083C68.7291 91.8075 67.5675 90.6458 66.1666 90.6458V80.9767C67.5675 80.9767 68.7291 79.815 68.7291 78.4142V63.5858C68.7291 62.185 67.5675 61.0233 66.1666 61.0233V51.3542C67.5675 51.3542 68.7291 50.1925 68.7291 48.7917V41.1042H90.0833C105.151 41.1042 109.729 45.6825 109.729 60.75V64.1667C109.729 65.5675 108.567 66.7292 107.167 66.7292C103.887 66.7292 101.187 69.4283 101.187 72.7083Z" fill="#E2E6FD"/>
<path d="M146.84 52.248C148.268 54.74 150.844 56.336 153.98 56.336C157.676 56.336 160.448 54.18 160.448 50.792C160.448 48.3 158.992 46.76 155.884 45.388L153.784 44.464C152.216 43.764 151.628 43.316 151.628 42.336C151.628 41.188 152.608 40.544 153.924 40.544C155.324 40.544 156.5 41.244 157.452 42.672L160.028 40.684C158.88 38.556 156.752 37.184 153.924 37.184C150.424 37.184 147.792 39.256 147.792 42.42C147.792 44.884 149.444 46.48 152.272 47.74L154.26 48.636C156.024 49.448 156.612 49.84 156.612 50.932C156.612 52.192 155.632 52.976 153.98 52.976C151.964 52.976 150.648 51.94 149.444 50.288L146.84 52.248ZM176.257 50.344C176.425 49.644 176.509 48.944 176.509 48.272C176.509 44.66 173.821 41.832 169.985 41.832C165.981 41.748 162.649 45.08 162.733 49.084C162.649 53.088 166.037 56.42 170.321 56.336C172.365 56.336 174.213 55.636 175.865 54.264L174.297 51.688C173.093 52.612 171.805 53.088 170.433 53.088C168.417 53.088 166.989 52.108 166.541 50.344H176.257ZM166.541 47.684C166.961 45.976 168.249 44.884 169.845 44.884C171.497 44.884 172.813 45.976 172.841 47.684H166.541ZM179.458 56H183.238V35H179.458V56ZM186.978 56H190.758V35H186.978V56ZM201.533 46.76C201.449 52.052 205.985 56.448 211.417 56.336C213.349 56.336 215.085 55.888 216.625 54.964C218.193 54.04 219.397 52.808 220.237 51.324V45.864H211.361V49.14H216.457V50.652C215.421 52.08 213.713 52.948 211.585 52.948C207.917 52.948 205.425 50.344 205.425 46.76C205.425 43.232 207.833 40.684 211.361 40.684C213.489 40.684 215.197 41.58 216.513 43.4L219.201 41.188C217.409 38.64 214.665 37.184 211.417 37.184C205.957 37.1 201.421 41.44 201.533 46.76ZM223.263 56H227.043V42.14H223.263V56ZM222.731 37.1C222.731 38.416 223.795 39.424 225.139 39.424C226.483 39.424 227.575 38.416 227.575 37.1C227.575 35.756 226.483 34.748 225.139 34.748C223.795 34.748 222.731 35.756 222.731 37.1ZM235.206 40.208C235.206 38.64 236.018 38.052 237.726 38.052C238.062 38.052 238.426 38.08 238.846 38.136V34.972C238.202 34.776 237.502 34.664 236.774 34.664C233.442 34.664 231.426 36.4 231.426 39.872V42.14H229.466V45.332H231.426V56H235.206V45.332H238.258V42.14H235.206V40.208ZM248.546 52.836C247.566 52.92 246.978 52.948 246.754 52.948C244.962 52.948 244.178 52.36 244.178 50.792V45.332H248.098V42.14H244.178V38.64H240.398V42.14H238.214V45.332H240.398V51.128C240.398 54.6 242.442 56.336 245.942 56.336C246.782 56.336 247.65 56.224 248.546 56V52.836ZM258.326 46.76C258.214 52.052 262.75 56.448 268.154 56.336C271.71 56.336 274.734 54.628 276.33 51.744L273.474 49.728C272.158 51.8 270.394 52.836 268.182 52.836C264.738 52.836 262.218 50.316 262.218 46.788C262.218 43.26 264.738 40.684 268.182 40.684C270.394 40.684 272.158 41.72 273.474 43.792L276.33 41.776C274.678 38.892 271.682 37.184 268.182 37.184C262.806 37.072 258.242 41.468 258.326 46.76ZM290.773 47.768C290.773 43.932 288.449 41.832 284.837 41.832C282.401 41.832 280.385 42.784 278.789 44.688L280.749 47.012C281.981 45.696 282.989 45.108 284.417 45.108C286.097 45.108 286.993 46.004 286.993 47.544V48.16H283.521C280.301 48.16 278.285 49.7 278.285 52.192C278.285 54.628 280.133 56.336 283.073 56.336C284.837 56.336 286.293 55.692 287.301 54.656V56H290.773V47.768ZM286.993 50.82C286.993 52.416 285.733 53.564 284.081 53.564C282.877 53.564 282.093 52.976 282.093 52.052C282.093 51.128 282.793 50.652 284.025 50.652H286.993V50.82ZM302.923 42.14C302.559 42.028 302.167 41.972 301.691 41.972C300.151 41.972 298.807 42.644 297.883 43.792V42.14H294.411V56H298.191V49.084C298.191 46.704 299.647 45.472 301.915 45.472H302.923V42.14ZM315.073 35V43.484C314.065 42.392 312.693 41.832 310.929 41.832C307.065 41.832 304.209 44.912 304.209 49.084C304.209 53.256 307.065 56.336 310.929 56.336C312.833 56.336 314.457 55.608 315.381 54.292V56H318.853V35H315.073ZM315.129 49.084C315.129 51.576 313.533 52.892 311.629 52.892C309.585 52.892 308.045 51.38 308.045 49.056C308.045 46.788 309.613 45.248 311.629 45.248C313.533 45.248 315.129 46.62 315.129 49.084Z" fill="#F4F6FF"/>
<g filter="url(#filter0_d_547_168)">
<rect x="146" y="73" width="188" height="48" rx="24" fill="#F7CC5A"/>
<rect x="146" y="73" width="188" height="48" rx="24" fill="url(#paint1_linear_547_168)"/>
<path d="M170.118 103V92.344H166.464V90.4H175.86V92.344H172.188V103H170.118ZM176.141 103V94.612H178.103V96.232C178.247 95.668 178.529 95.242 178.949 94.954C179.369 94.654 179.831 94.504 180.335 94.504C180.659 94.504 180.917 94.528 181.109 94.576V96.376C180.905 96.352 180.647 96.34 180.335 96.34C179.639 96.34 179.093 96.598 178.697 97.114C178.301 97.618 178.103 98.344 178.103 99.292V103H176.141ZM185.874 103.216C184.566 103.216 183.552 102.802 182.832 101.974C182.112 101.146 181.752 100.09 181.752 98.806C181.752 97.534 182.13 96.484 182.886 95.656C183.642 94.816 184.656 94.396 185.928 94.396C186.492 94.396 187.008 94.516 187.476 94.756C187.944 94.996 188.304 95.326 188.556 95.746V94.612H190.518V103H188.556V101.866C188.316 102.274 187.938 102.604 187.422 102.856C186.918 103.096 186.402 103.216 185.874 103.216ZM186.162 101.47C186.966 101.47 187.578 101.218 187.998 100.714C188.43 100.21 188.646 99.574 188.646 98.806C188.646 98.038 188.43 97.402 187.998 96.898C187.578 96.394 186.966 96.142 186.162 96.142C185.406 96.142 184.806 96.394 184.362 96.898C183.93 97.39 183.714 98.026 183.714 98.806C183.714 99.586 183.93 100.228 184.362 100.732C184.806 101.224 185.406 101.47 186.162 101.47ZM199.208 90.4H201.17V103H199.208V101.866C198.968 102.274 198.59 102.604 198.074 102.856C197.57 103.096 197.054 103.216 196.526 103.216C195.218 103.216 194.204 102.802 193.484 101.974C192.764 101.146 192.404 100.09 192.404 98.806C192.404 97.534 192.782 96.484 193.538 95.656C194.294 94.816 195.308 94.396 196.58 94.396C197.144 94.396 197.66 94.516 198.128 94.756C198.596 94.996 198.956 95.326 199.208 95.746V90.4ZM196.814 101.47C197.618 101.47 198.23 101.218 198.65 100.714C199.082 100.21 199.298 99.574 199.298 98.806C199.298 98.038 199.082 97.402 198.65 96.898C198.23 96.394 197.618 96.142 196.814 96.142C196.058 96.142 195.458 96.394 195.014 96.898C194.582 97.39 194.366 98.026 194.366 98.806C194.366 99.586 194.582 100.228 195.014 100.732C195.458 101.224 196.058 101.47 196.814 101.47ZM211.282 98.374C211.282 98.59 211.264 98.95 211.228 99.454H205C205.024 100.114 205.24 100.624 205.648 100.984C206.056 101.332 206.62 101.506 207.34 101.506C208.264 101.506 208.888 101.188 209.212 100.552H211.192C211.06 101.332 210.634 101.974 209.914 102.478C209.206 102.97 208.348 103.216 207.34 103.216C206.02 103.216 204.976 102.82 204.208 102.028C203.44 101.236 203.056 100.162 203.056 98.806C203.056 97.462 203.434 96.394 204.19 95.602C204.958 94.798 205.984 94.396 207.268 94.396C208.468 94.396 209.434 94.768 210.166 95.512C210.91 96.244 211.282 97.198 211.282 98.374ZM205 97.96H209.356C209.344 97.312 209.152 96.814 208.78 96.466C208.42 96.118 207.904 95.944 207.232 95.944C206.548 95.944 206.008 96.13 205.612 96.502C205.216 96.874 205.012 97.36 205 97.96ZM217.769 103V90.4H219.947L224.933 99.544V90.4H226.913V103H224.735L219.749 93.856V103H217.769ZM236.546 101.974C235.754 102.802 234.68 103.216 233.324 103.216C231.968 103.216 230.888 102.802 230.084 101.974C229.292 101.134 228.896 100.078 228.896 98.806C228.896 97.534 229.292 96.484 230.084 95.656C230.888 94.816 231.968 94.396 233.324 94.396C234.68 94.396 235.754 94.816 236.546 95.656C237.35 96.484 237.752 97.534 237.752 98.806C237.752 100.078 237.35 101.134 236.546 101.974ZM231.506 100.732C231.95 101.224 232.556 101.47 233.324 101.47C234.092 101.47 234.692 101.224 235.124 100.732C235.568 100.24 235.79 99.598 235.79 98.806C235.79 98.014 235.568 97.372 235.124 96.88C234.692 96.388 234.092 96.142 233.324 96.142C232.556 96.142 231.95 96.388 231.506 96.88C231.074 97.372 230.858 98.014 230.858 98.806C230.858 99.598 231.074 100.24 231.506 100.732ZM241.208 103L238.112 94.612H240.272L242.018 100.156L243.836 94.612H245.96L247.778 100.156L249.524 94.612H251.684L248.588 103H246.932L244.898 97.024L242.864 103H241.208Z" fill="black"/>
<path d="M310.517 98.517C310.803 98.2315 310.803 97.7685 310.517 97.483L305.864 92.8301C305.579 92.5446 305.116 92.5446 304.83 92.8301C304.545 93.1156 304.545 93.5786 304.83 93.8641L308.966 98L304.83 102.136C304.545 102.421 304.545 102.884 304.83 103.17C305.116 103.455 305.579 103.455 305.864 103.17L310.517 98.517ZM278 98.7311L310 98.7311L310 97.2689L278 97.2689L278 98.7311Z" fill="black"/>
</g>
</g>
<defs>
<filter id="filter0_d_547_168" x="136" y="73" width="208" height="68" filterUnits="userSpaceOnUse" color-interpolation-filters="sRGB">
<feFlood flood-opacity="0" result="BackgroundImageFix"/>
<feColorMatrix in="SourceAlpha" type="matrix" values="0 0 0 0 0 0 0 0 0 0 0 0 0 0 0 0 0 0 127 0" result="hardAlpha"/>
<feOffset dy="10"/>
<feGaussianBlur stdDeviation="5"/>
<feComposite in2="hardAlpha" operator="out"/>
<feColorMatrix type="matrix" values="0 0 0 0 0 0 0 0 0 0 0 0 0 0 0 0 0 0 0.25 0"/>
<feBlend mode="normal" in2="BackgroundImageFix" result="effect1_dropShadow_547_168"/>
<feBlend mode="normal" in="SourceGraphic" in2="effect1_dropShadow_547_168" result="shape"/>
</filter>
<linearGradient id="paint0_linear_547_168" x1="183" y1="0" x2="183" y2="148" gradientUnits="userSpaceOnUse">
<stop stop-color="#6450EF" stop-opacity="0"/>
<stop offset="1" stop-color="#3421B6"/>
</linearGradient>
<linearGradient id="paint1_linear_547_168" x1="240" y1="73" x2="240" y2="121" gradientUnits="userSpaceOnUse">
<stop stop-color="#F7AF02" stop-opacity="0"/>
<stop offset="1" stop-color="#BC8709"/>
</linearGradient>
<clipPath id="clip0_547_168">
<rect width="366" height="148" rx="20" fill="white"/>
</clipPath>
</defs>
</svg>
