<svg width="126" height="116" viewBox="0 0 126 116" fill="none" xmlns="http://www.w3.org/2000/svg">
<path d="M42.4535 102.435C43.2263 101.181 43.6388 100.479 44.2025 99.8286C45.4867 98.0758 46.6198 96.2707 47.9041 94.5179C48.4677 93.8678 49.1825 93.27 49.9468 92.7737C50.8127 92.228 51.9257 92.1901 52.6755 92.9561C53.4748 93.8236 53.3122 94.7812 52.7457 95.6837C50.8369 98.9949 49.0269 102.509 47.1181 105.82C46.3947 107.175 45.5202 108.478 44.5962 109.68C41.8215 113.537 38.683 113.804 35.7416 110.085C31.7044 104.888 28.0246 99.3927 24.2925 94.0482C23.5455 93.0298 23.2082 91.5615 22.9698 90.2964C22.679 89.1822 22.9433 88.1753 24.4166 87.586C26.7736 89.3296 28.9767 91.2735 30.8717 93.6178C32.6679 95.759 34.5136 98.0018 36.7166 99.9457C36.6321 98.4803 36.4982 96.9134 36.5155 95.3987C36.4654 90.9039 36.2643 86.3569 36.6182 81.9172C37.2301 72.5822 41.8584 65.8176 49.9511 61.2637C54.3272 58.8895 59.0987 57.3277 63.8673 56.0183C65.948 55.3855 68.0286 54.7526 70.1092 54.1197C75.0841 52.4592 79.0126 49.4235 82.1942 45.3693C87.3253 38.8629 90.0908 31.3702 90.3366 23.0915C90.5044 17.2358 89.9136 11.3715 88.765 5.65229C88.6225 4.84273 88.1748 4.18119 88.0323 3.37163C87.9887 2.76517 88.0001 1.75536 88.3575 1.45643C88.8166 1.10816 89.9325 0.817839 90.4847 1.17758C91.2897 1.54019 91.9873 2.45703 92.3826 3.26946C93.1239 4.79277 93.56 6.46413 93.9962 8.13547C96.2119 17.856 96.7073 27.658 93.0587 37.211C90.296 44.4512 86.1791 50.7167 80.0567 55.4444C76.2299 58.4309 71.6618 59.894 67.0443 61.2555C64.2024 62.1322 61.2616 62.8058 58.469 63.7841C56.031 64.7159 53.7412 65.9524 51.5008 67.2904C47.5286 69.7197 45.0096 73.3269 43.9466 77.8596C43.418 79.8734 43.1422 81.8902 43.0176 83.9591C42.7539 89.3593 42.6413 94.8117 42.3776 100.212C42.2701 100.766 42.4155 101.323 42.4535 102.435Z" fill="#F9A11E"/>
</svg>
