<svg width="148" height="56" viewBox="0 0 148 56" fill="none" xmlns="http://www.w3.org/2000/svg">
<g clip-path="url(#clip0_106_82)">
<path d="M24.3169 16.8757C23.7514 16.5353 23.0775 16.5049 22.4897 16.7883L32.3445 26.664L35.5667 23.4269L24.3169 16.8757ZM21.5843 17.7023C21.4599 17.9655 21.3931 18.2583 21.3931 18.5597V36.6247C21.3931 36.9274 21.4604 37.2159 21.586 37.4735L31.4369 27.5759L21.5843 17.7023ZM32.3458 28.4865L22.5069 38.3721C22.768 38.493 23.0458 38.5458 23.3232 38.5458C23.6657 38.5458 24.0074 38.4639 24.3169 38.2778L35.5688 31.7168L32.3458 28.4865ZM39.8512 25.9219C39.8474 25.9194 39.8431 25.9168 39.8392 25.9147L36.7156 24.0956L33.253 27.5746L36.7178 31.0468C36.7178 31.0468 39.8474 29.2222 39.8512 29.22C40.4321 28.8672 40.779 28.2507 40.779 27.5708C40.779 26.8908 40.4321 26.2743 39.8512 25.9219Z" fill="#333333"/>
</g>
<path d="M49.7812 23V16.7H51.7882C52.7842 16.7 53.5672 17.009 54.1372 17.627C54.7072 18.245 54.9922 18.986 54.9922 19.85C54.9922 20.714 54.7072 21.455 54.1372 22.073C53.5672 22.691 52.7842 23 51.7882 23H49.7812ZM50.6002 22.262H51.7252C52.4992 22.262 53.0962 22.025 53.5162 21.551C53.9362 21.077 54.1462 20.51 54.1462 19.85C54.1462 19.184 53.9362 18.617 53.5162 18.149C53.0962 17.675 52.4992 17.438 51.7252 17.438H50.6002V22.262ZM57.7858 23.108C57.1258 23.108 56.6008 22.901 56.2108 22.487C55.8208 22.067 55.6258 21.545 55.6258 20.921C55.6258 20.297 55.8208 19.778 56.2108 19.364C56.6008 18.95 57.1258 18.743 57.7858 18.743C58.4398 18.743 58.9618 18.953 59.3518 19.373C59.7478 19.787 59.9458 20.303 59.9458 20.921C59.9458 21.545 59.7478 22.067 59.3518 22.487C58.9618 22.901 58.4398 23.108 57.7858 23.108ZM56.7688 21.992C57.0208 22.268 57.3598 22.406 57.7858 22.406C58.2118 22.406 58.5478 22.268 58.7938 21.992C59.0398 21.71 59.1628 21.353 59.1628 20.921C59.1628 20.495 59.0398 20.144 58.7938 19.868C58.5478 19.586 58.2118 19.445 57.7858 19.445C57.3598 19.445 57.0208 19.586 56.7688 19.868C56.5228 20.144 56.3998 20.498 56.3998 20.93C56.3998 21.356 56.5228 21.71 56.7688 21.992ZM61.6934 23L60.1634 18.851H61.0184L62.0174 21.875L63.0254 18.851H63.8624L64.8704 21.875L65.8694 18.851H66.7334L65.1944 23H64.5284L63.4394 19.814L62.3594 23H61.6934ZM67.4725 23V18.851H68.2555V19.616C68.3695 19.346 68.5495 19.133 68.7955 18.977C69.0475 18.821 69.3505 18.743 69.7045 18.743C70.7365 18.743 71.2525 19.31 71.2525 20.444V23H70.4695V20.786C70.4695 20.318 70.3855 19.973 70.2175 19.751C70.0555 19.529 69.7915 19.418 69.4255 19.418C69.0475 19.418 68.7565 19.541 68.5525 19.787C68.3545 20.033 68.2555 20.372 68.2555 20.804V23H67.4725ZM72.535 23V16.7H73.318V23H72.535ZM76.4977 23.108C75.8377 23.108 75.3127 22.901 74.9227 22.487C74.5327 22.067 74.3377 21.545 74.3377 20.921C74.3377 20.297 74.5327 19.778 74.9227 19.364C75.3127 18.95 75.8377 18.743 76.4977 18.743C77.1517 18.743 77.6737 18.953 78.0637 19.373C78.4597 19.787 78.6577 20.303 78.6577 20.921C78.6577 21.545 78.4597 22.067 78.0637 22.487C77.6737 22.901 77.1517 23.108 76.4977 23.108ZM75.4807 21.992C75.7327 22.268 76.0717 22.406 76.4977 22.406C76.9237 22.406 77.2597 22.268 77.5057 21.992C77.7517 21.71 77.8747 21.353 77.8747 20.921C77.8747 20.495 77.7517 20.144 77.5057 19.868C77.2597 19.586 76.9237 19.445 76.4977 19.445C76.0717 19.445 75.7327 19.586 75.4807 19.868C75.2347 20.144 75.1117 20.498 75.1117 20.93C75.1117 21.356 75.2347 21.71 75.4807 21.992ZM81.461 23.108C80.819 23.108 80.315 22.904 79.949 22.496C79.589 22.088 79.409 21.566 79.409 20.93C79.409 20.3 79.595 19.778 79.967 19.364C80.345 18.95 80.849 18.743 81.479 18.743C81.803 18.743 82.094 18.818 82.352 18.968C82.61 19.118 82.805 19.322 82.937 19.58V18.851H83.711V23H82.937V22.271C82.805 22.523 82.604 22.727 82.334 22.883C82.064 23.033 81.773 23.108 81.461 23.108ZM81.569 22.406C82.007 22.406 82.349 22.265 82.595 21.983C82.847 21.695 82.973 21.344 82.973 20.93C82.973 20.51 82.847 20.159 82.595 19.877C82.349 19.589 82.007 19.445 81.569 19.445C81.149 19.445 80.813 19.586 80.561 19.868C80.309 20.144 80.183 20.498 80.183 20.93C80.183 21.362 80.309 21.716 80.561 21.992C80.813 22.268 81.149 22.406 81.569 22.406ZM88.2454 16.7H89.0284V23H88.2544V22.271C88.1224 22.523 87.9214 22.727 87.6514 22.883C87.3814 23.033 87.0904 23.108 86.7784 23.108C86.1364 23.108 85.6324 22.904 85.2664 22.496C84.9064 22.088 84.7264 21.566 84.7264 20.93C84.7264 20.3 84.9124 19.778 85.2844 19.364C85.6624 18.95 86.1664 18.743 86.7964 18.743C87.1204 18.743 87.4114 18.818 87.6694 18.968C87.9274 19.118 88.1224 19.322 88.2544 19.58V19.148H88.2454V16.7ZM86.8864 22.406C87.3244 22.406 87.6664 22.265 87.9124 21.983C88.1644 21.695 88.2904 21.344 88.2904 20.93C88.2904 20.51 88.1644 20.159 87.9124 19.877C87.6664 19.589 87.3244 19.445 86.8864 19.445C86.4664 19.445 86.1304 19.586 85.8784 19.868C85.6264 20.144 85.5004 20.498 85.5004 20.93C85.5004 21.362 85.6264 21.716 85.8784 21.992C86.1304 22.268 86.4664 22.406 86.8864 22.406ZM94.4802 23.108C93.8202 23.108 93.2952 22.901 92.9052 22.487C92.5152 22.067 92.3202 21.545 92.3202 20.921C92.3202 20.297 92.5152 19.778 92.9052 19.364C93.2952 18.95 93.8202 18.743 94.4802 18.743C95.1342 18.743 95.6562 18.953 96.0462 19.373C96.4422 19.787 96.6402 20.303 96.6402 20.921C96.6402 21.545 96.4422 22.067 96.0462 22.487C95.6562 22.901 95.1342 23.108 94.4802 23.108ZM93.4632 21.992C93.7152 22.268 94.0542 22.406 94.4802 22.406C94.9062 22.406 95.2422 22.268 95.4882 21.992C95.7342 21.71 95.8572 21.353 95.8572 20.921C95.8572 20.495 95.7342 20.144 95.4882 19.868C95.2422 19.586 94.9062 19.445 94.4802 19.445C94.0542 19.445 93.7152 19.586 93.4632 19.868C93.2172 20.144 93.0942 20.498 93.0942 20.93C93.0942 21.356 93.2172 21.71 93.4632 21.992ZM97.6541 23V18.851H98.4371V19.616C98.5511 19.346 98.7311 19.133 98.9771 18.977C99.2291 18.821 99.5321 18.743 99.8861 18.743C100.918 18.743 101.434 19.31 101.434 20.444V23H100.651V20.786C100.651 20.318 100.567 19.973 100.399 19.751C100.237 19.529 99.9731 19.418 99.6071 19.418C99.2291 19.418 98.9381 19.541 98.7341 19.787C98.5361 20.033 98.4371 20.372 98.4371 20.804V23H97.6541Z" fill="#333333"/>
<path d="M58.8651 31.8729V33.3369H58.0731C57.8571 34.3529 57.3811 35.1409 56.6451 35.7009C55.9171 36.2529 54.9771 36.5289 53.8251 36.5289C52.4971 36.5289 51.4211 36.1169 50.5971 35.2929C49.7811 34.4609 49.3771 33.4049 49.3851 32.1249C49.3851 30.8529 49.7891 29.7889 50.5971 28.9329C51.4131 28.0769 52.5251 27.6489 53.9331 27.6489C55.0451 27.6489 55.9651 27.9169 56.6931 28.4529C57.4291 28.9889 57.8331 29.6689 57.9051 30.4929H55.7811C55.7011 30.1329 55.4971 29.8409 55.1691 29.6169C54.8491 29.3929 54.4411 29.2809 53.9451 29.2809C53.1211 29.2809 52.4891 29.5409 52.0491 30.0609C51.6171 30.5809 51.4051 31.2569 51.4131 32.0889C51.4051 32.8889 51.6251 33.5489 52.0731 34.0689C52.5291 34.5809 53.1291 34.8369 53.8731 34.8369C55.0491 34.8369 55.7811 34.3369 56.0691 33.3369H54.5691V31.8729H58.8651ZM64.9832 35.6049C64.4072 36.1809 63.6312 36.4689 62.6552 36.4689C61.6792 36.4689 60.8992 36.1809 60.3152 35.6049C59.7312 35.0289 59.4392 34.2929 59.4392 33.3969C59.4392 32.5009 59.7312 31.7689 60.3152 31.2009C60.8992 30.6249 61.6792 30.3369 62.6552 30.3369C63.6312 30.3369 64.4072 30.6249 64.9832 31.2009C65.5672 31.7689 65.8592 32.5009 65.8592 33.3969C65.8592 34.2929 65.5672 35.0289 64.9832 35.6049ZM62.6552 34.9089C63.0792 34.9089 63.4152 34.7689 63.6632 34.4889C63.9112 34.2089 64.0352 33.8449 64.0352 33.3969C64.0352 32.9489 63.9112 32.5849 63.6632 32.3049C63.4152 32.0249 63.0792 31.8849 62.6552 31.8849C62.2232 31.8849 61.8832 32.0249 61.6352 32.3049C61.3952 32.5849 61.2752 32.9489 61.2752 33.3969C61.2752 33.8449 61.3952 34.2089 61.6352 34.4889C61.8832 34.7689 62.2232 34.9089 62.6552 34.9089ZM72.202 35.6049C71.626 36.1809 70.85 36.4689 69.874 36.4689C68.898 36.4689 68.118 36.1809 67.534 35.6049C66.95 35.0289 66.658 34.2929 66.658 33.3969C66.658 32.5009 66.95 31.7689 67.534 31.2009C68.118 30.6249 68.898 30.3369 69.874 30.3369C70.85 30.3369 71.626 30.6249 72.202 31.2009C72.786 31.7689 73.078 32.5009 73.078 33.3969C73.078 34.2929 72.786 35.0289 72.202 35.6049ZM69.874 34.9089C70.298 34.9089 70.634 34.7689 70.882 34.4889C71.13 34.2089 71.254 33.8449 71.254 33.3969C71.254 32.9489 71.13 32.5849 70.882 32.3049C70.634 32.0249 70.298 31.8849 69.874 31.8849C69.442 31.8849 69.102 32.0249 68.854 32.3049C68.614 32.5849 68.494 32.9489 68.494 33.3969C68.494 33.8449 68.614 34.2089 68.854 34.4889C69.102 34.7689 69.442 34.9089 69.874 34.9089ZM78.4141 30.5049H80.2501V35.8929C80.2501 37.0129 79.8781 37.8329 79.1341 38.3529C78.6461 38.6969 77.9581 38.8689 77.0701 38.8689C76.1981 38.8689 75.5021 38.7129 74.9821 38.4009C74.6861 38.2169 74.4421 37.9809 74.2501 37.6929C74.0581 37.4049 73.9581 37.1049 73.9501 36.7929H75.8221C75.9101 37.2809 76.3181 37.5249 77.0461 37.5249C77.9581 37.5249 78.4141 37.0569 78.4141 36.1209V35.3529C78.2701 35.6329 78.0261 35.8609 77.6821 36.0369C77.3461 36.2049 76.9861 36.2889 76.6021 36.2889C75.7621 36.2889 75.0941 36.0169 74.5981 35.4729C74.1021 34.9209 73.8541 34.2089 73.8541 33.3369C73.8541 32.4729 74.1101 31.7609 74.6221 31.2009C75.1341 30.6329 75.8021 30.3489 76.6261 30.3489C77.0261 30.3489 77.3861 30.4409 77.7061 30.6249C78.0341 30.8009 78.2701 31.0369 78.4141 31.3329V30.5049ZM77.1061 34.8729C77.5301 34.8729 77.8661 34.7289 78.1141 34.4409C78.3701 34.1529 78.4981 33.7929 78.4981 33.3609C78.4981 32.9289 78.3701 32.5689 78.1141 32.2809C77.8661 31.9929 77.5301 31.8489 77.1061 31.8489C76.6981 31.8489 76.3661 31.9929 76.1101 32.2809C75.8621 32.5609 75.7381 32.9209 75.7381 33.3609C75.7381 33.8009 75.8621 34.1649 76.1101 34.4529C76.3661 34.7329 76.6981 34.8729 77.1061 34.8729ZM81.7624 36.2889V27.8889H83.5984V36.2889H81.7624ZM90.802 33.0969C90.802 33.3369 90.786 33.6049 90.754 33.9009H86.482C86.498 34.2769 86.626 34.5689 86.866 34.7769C87.106 34.9849 87.43 35.0889 87.838 35.0889C88.398 35.0889 88.758 34.9089 88.918 34.5489H90.718C90.63 35.1169 90.318 35.5809 89.782 35.9409C89.254 36.2929 88.606 36.4689 87.838 36.4689C86.854 36.4689 86.078 36.1969 85.51 35.6529C84.942 35.1089 84.658 34.3569 84.658 33.3969C84.658 32.4529 84.942 31.7089 85.51 31.1649C86.078 30.6129 86.834 30.3369 87.778 30.3369C88.674 30.3369 89.402 30.5929 89.962 31.1049C90.522 31.6169 90.802 32.2809 90.802 33.0969ZM86.482 32.7609H88.99C88.982 32.3769 88.874 32.0809 88.666 31.8729C88.458 31.6649 88.158 31.5609 87.766 31.5609C87.374 31.5609 87.062 31.6729 86.83 31.8969C86.606 32.1129 86.49 32.4009 86.482 32.7609ZM98.4062 27.8889C99.2782 27.8889 99.9982 28.1769 100.566 28.7529C101.134 29.3209 101.418 30.0449 101.418 30.9249C101.418 31.8049 101.134 32.5329 100.566 33.1089C99.9982 33.6769 99.2782 33.9609 98.4062 33.9609H96.7742V36.2889H94.8302V27.8889H98.4062ZM98.1062 32.3769C98.4982 32.3769 98.8182 32.2409 99.0662 31.9689C99.3222 31.6969 99.4502 31.3489 99.4502 30.9249C99.4502 30.5009 99.3222 30.1529 99.0662 29.8809C98.8182 29.6089 98.4982 29.4729 98.1062 29.4729H96.7742V32.3769H98.1062ZM102.27 36.2889V27.8889H104.106V36.2889H102.27ZM107.926 36.4449C107.086 36.4449 106.422 36.1609 105.934 35.5929C105.446 35.0249 105.202 34.2929 105.202 33.3969C105.202 32.5169 105.454 31.7889 105.958 31.2129C106.462 30.6369 107.126 30.3489 107.95 30.3489C108.358 30.3489 108.722 30.4369 109.042 30.6129C109.362 30.7889 109.602 31.0289 109.762 31.3329V30.5049H111.586V36.2889H109.762V35.4729C109.602 35.7609 109.354 35.9969 109.018 36.1809C108.69 36.3569 108.326 36.4449 107.926 36.4449ZM108.454 34.9209C108.894 34.9209 109.234 34.7769 109.474 34.4889C109.714 34.2009 109.834 33.8369 109.834 33.3969C109.834 32.9649 109.714 32.6049 109.474 32.3169C109.234 32.0289 108.894 31.8849 108.454 31.8849C108.038 31.8849 107.702 32.0249 107.446 32.3049C107.198 32.5849 107.074 32.9489 107.074 33.3969C107.074 33.8449 107.198 34.2129 107.446 34.5009C107.702 34.7809 108.038 34.9209 108.454 34.9209ZM117.022 30.5049H118.858V36.1089C118.858 37.0049 118.582 37.7009 118.03 38.1969C117.51 38.6449 116.802 38.8689 115.906 38.8689C114.97 38.8689 114.258 38.6689 113.77 38.2689C113.298 37.8689 113.058 37.3609 113.05 36.7449H114.898C114.938 37.2649 115.274 37.5249 115.906 37.5249C116.65 37.5249 117.022 37.0929 117.022 36.2289V35.3289C116.686 35.9689 116.074 36.2889 115.186 36.2889C114.474 36.2889 113.938 36.0729 113.578 35.6409C113.226 35.2089 113.05 34.6169 113.05 33.8649V30.5049H114.886V33.5889C114.886 34.4209 115.226 34.8369 115.906 34.8369C116.266 34.8369 116.542 34.7089 116.734 34.4529C116.926 34.1889 117.022 33.8289 117.022 33.3729V30.5049Z" fill="#333333"/>
<rect x="0.361298" y="0.25" width="146.564" height="54.6417" rx="27.3209" stroke="#333333" stroke-opacity="0.2" stroke-width="0.5"/>
<defs>
<clipPath id="clip0_106_82">
<rect width="21.9498" height="21.9498" fill="white" transform="translate(20.1113 16.596)"/>
</clipPath>
</defs>
</svg>
