<svg width="132" height="56" viewBox="0 0 132 56" fill="none" xmlns="http://www.w3.org/2000/svg">
<g clip-path="url(#clip0_106_84)">
<path d="M27.9417 38.5448C24.6749 38.526 21.9727 31.8574 21.9727 28.4612C21.9727 22.9136 26.1344 21.6991 27.7382 21.6991C28.461 21.6991 29.2328 21.9829 29.9136 22.2341C30.3896 22.4093 30.8819 22.5902 31.1558 22.5902C31.3197 22.5902 31.7059 22.4363 32.0469 22.3013C32.7741 22.0118 33.679 21.652 34.7328 21.652C34.7346 21.652 34.7372 21.652 34.739 21.652C35.5259 21.652 37.9116 21.8247 39.3459 23.9787L39.6819 24.4836L39.1984 24.8485C38.5076 25.3697 37.2472 26.3205 37.2472 28.2038C37.2472 30.4344 38.6746 31.2922 39.3604 31.7048C39.6631 31.8869 39.9764 32.0747 39.9764 32.4854C39.9764 32.7536 37.8362 38.5116 34.7283 38.5116C33.9679 38.5116 33.4303 38.283 32.9562 38.0814C32.4764 37.8773 32.0625 37.7015 31.3786 37.7015C31.032 37.7015 30.5936 37.8654 30.1296 38.0394C29.4954 38.276 28.7776 38.5448 27.9631 38.5448H27.9417Z" fill="#333333"/>
<path d="M35.0622 16.5952C35.1431 19.5136 33.056 21.5383 30.9713 21.4113C30.6277 19.0823 33.0557 16.5952 35.0622 16.5952Z" fill="#333333"/>
</g>
<path d="M49.6704 23V16.7H51.6774C52.6734 16.7 53.4564 17.009 54.0264 17.627C54.5964 18.245 54.8814 18.986 54.8814 19.85C54.8814 20.714 54.5964 21.455 54.0264 22.073C53.4564 22.691 52.6734 23 51.6774 23H49.6704ZM50.4894 22.262H51.6144C52.3884 22.262 52.9854 22.025 53.4054 21.551C53.8254 21.077 54.0354 20.51 54.0354 19.85C54.0354 19.184 53.8254 18.617 53.4054 18.149C52.9854 17.675 52.3884 17.438 51.6144 17.438H50.4894V22.262ZM57.675 23.108C57.015 23.108 56.49 22.901 56.1 22.487C55.71 22.067 55.515 21.545 55.515 20.921C55.515 20.297 55.71 19.778 56.1 19.364C56.49 18.95 57.015 18.743 57.675 18.743C58.329 18.743 58.851 18.953 59.241 19.373C59.637 19.787 59.835 20.303 59.835 20.921C59.835 21.545 59.637 22.067 59.241 22.487C58.851 22.901 58.329 23.108 57.675 23.108ZM56.658 21.992C56.91 22.268 57.249 22.406 57.675 22.406C58.101 22.406 58.437 22.268 58.683 21.992C58.929 21.71 59.052 21.353 59.052 20.921C59.052 20.495 58.929 20.144 58.683 19.868C58.437 19.586 58.101 19.445 57.675 19.445C57.249 19.445 56.91 19.586 56.658 19.868C56.412 20.144 56.289 20.498 56.289 20.93C56.289 21.356 56.412 21.71 56.658 21.992ZM61.5826 23L60.0526 18.851H60.9076L61.9066 21.875L62.9146 18.851H63.7516L64.7596 21.875L65.7586 18.851H66.6226L65.0836 23H64.4176L63.3286 19.814L62.2486 23H61.5826ZM67.3617 23V18.851H68.1447V19.616C68.2587 19.346 68.4387 19.133 68.6847 18.977C68.9367 18.821 69.2397 18.743 69.5937 18.743C70.6257 18.743 71.1417 19.31 71.1417 20.444V23H70.3587V20.786C70.3587 20.318 70.2747 19.973 70.1067 19.751C69.9447 19.529 69.6807 19.418 69.3147 19.418C68.9367 19.418 68.6457 19.541 68.4417 19.787C68.2437 20.033 68.1447 20.372 68.1447 20.804V23H67.3617ZM72.4242 23V16.7H73.2072V23H72.4242ZM76.3869 23.108C75.7269 23.108 75.2019 22.901 74.8119 22.487C74.4219 22.067 74.2269 21.545 74.2269 20.921C74.2269 20.297 74.4219 19.778 74.8119 19.364C75.2019 18.95 75.7269 18.743 76.3869 18.743C77.0409 18.743 77.5629 18.953 77.9529 19.373C78.3489 19.787 78.5469 20.303 78.5469 20.921C78.5469 21.545 78.3489 22.067 77.9529 22.487C77.5629 22.901 77.0409 23.108 76.3869 23.108ZM75.3699 21.992C75.6219 22.268 75.9609 22.406 76.3869 22.406C76.8129 22.406 77.1489 22.268 77.3949 21.992C77.6409 21.71 77.7639 21.353 77.7639 20.921C77.7639 20.495 77.6409 20.144 77.3949 19.868C77.1489 19.586 76.8129 19.445 76.3869 19.445C75.9609 19.445 75.6219 19.586 75.3699 19.868C75.1239 20.144 75.0009 20.498 75.0009 20.93C75.0009 21.356 75.1239 21.71 75.3699 21.992ZM81.3502 23.108C80.7082 23.108 80.2042 22.904 79.8382 22.496C79.4782 22.088 79.2982 21.566 79.2982 20.93C79.2982 20.3 79.4842 19.778 79.8562 19.364C80.2342 18.95 80.7382 18.743 81.3682 18.743C81.6922 18.743 81.9832 18.818 82.2412 18.968C82.4992 19.118 82.6942 19.322 82.8262 19.58V18.851H83.6002V23H82.8262V22.271C82.6942 22.523 82.4932 22.727 82.2232 22.883C81.9532 23.033 81.6622 23.108 81.3502 23.108ZM81.4582 22.406C81.8962 22.406 82.2382 22.265 82.4842 21.983C82.7362 21.695 82.8622 21.344 82.8622 20.93C82.8622 20.51 82.7362 20.159 82.4842 19.877C82.2382 19.589 81.8962 19.445 81.4582 19.445C81.0382 19.445 80.7022 19.586 80.4502 19.868C80.1982 20.144 80.0722 20.498 80.0722 20.93C80.0722 21.362 80.1982 21.716 80.4502 21.992C80.7022 22.268 81.0382 22.406 81.4582 22.406ZM88.1346 16.7H88.9176V23H88.1436V22.271C88.0116 22.523 87.8106 22.727 87.5406 22.883C87.2706 23.033 86.9796 23.108 86.6676 23.108C86.0256 23.108 85.5216 22.904 85.1556 22.496C84.7956 22.088 84.6156 21.566 84.6156 20.93C84.6156 20.3 84.8016 19.778 85.1736 19.364C85.5516 18.95 86.0556 18.743 86.6856 18.743C87.0096 18.743 87.3006 18.818 87.5586 18.968C87.8166 19.118 88.0116 19.322 88.1436 19.58V19.148H88.1346V16.7ZM86.7756 22.406C87.2136 22.406 87.5556 22.265 87.8016 21.983C88.0536 21.695 88.1796 21.344 88.1796 20.93C88.1796 20.51 88.0536 20.159 87.8016 19.877C87.5556 19.589 87.2136 19.445 86.7756 19.445C86.3556 19.445 86.0196 19.586 85.7676 19.868C85.5156 20.144 85.3896 20.498 85.3896 20.93C85.3896 21.362 85.5156 21.716 85.7676 21.992C86.0196 22.268 86.3556 22.406 86.7756 22.406ZM94.3694 23.108C93.7094 23.108 93.1844 22.901 92.7944 22.487C92.4044 22.067 92.2094 21.545 92.2094 20.921C92.2094 20.297 92.4044 19.778 92.7944 19.364C93.1844 18.95 93.7094 18.743 94.3694 18.743C95.0234 18.743 95.5454 18.953 95.9354 19.373C96.3314 19.787 96.5294 20.303 96.5294 20.921C96.5294 21.545 96.3314 22.067 95.9354 22.487C95.5454 22.901 95.0234 23.108 94.3694 23.108ZM93.3524 21.992C93.6044 22.268 93.9434 22.406 94.3694 22.406C94.7954 22.406 95.1314 22.268 95.3774 21.992C95.6234 21.71 95.7464 21.353 95.7464 20.921C95.7464 20.495 95.6234 20.144 95.3774 19.868C95.1314 19.586 94.7954 19.445 94.3694 19.445C93.9434 19.445 93.6044 19.586 93.3524 19.868C93.1064 20.144 92.9834 20.498 92.9834 20.93C92.9834 21.356 93.1064 21.71 93.3524 21.992ZM97.5433 23V18.851H98.3263V19.616C98.4403 19.346 98.6203 19.133 98.8663 18.977C99.1183 18.821 99.4213 18.743 99.7753 18.743C100.807 18.743 101.323 19.31 101.323 20.444V23H100.54V20.786C100.54 20.318 100.456 19.973 100.288 19.751C100.126 19.529 99.8623 19.418 99.4963 19.418C99.1183 19.418 98.8273 19.541 98.6233 19.787C98.4253 20.033 98.3263 20.372 98.3263 20.804V23H97.5433Z" fill="#333333"/>
<path d="M54.6737 36.2889L54.3857 35.2689H51.4097L51.1217 36.2889H49.0697L51.9137 27.8889H53.8697L56.7257 36.2889H54.6737ZM51.8417 33.7449H53.9537L52.8977 30.0129L51.8417 33.7449ZM61.3241 30.3489C62.1161 30.3489 62.7561 30.6289 63.2441 31.1889C63.7401 31.7489 63.9881 32.4849 63.9881 33.3969C63.9881 34.3009 63.7361 35.0369 63.2321 35.6049C62.7281 36.1649 62.0761 36.4449 61.2761 36.4449C60.8601 36.4449 60.4881 36.3529 60.1601 36.1689C59.8321 35.9849 59.5921 35.7529 59.4401 35.4729V38.6889H57.6041V30.5049H59.4401V31.3329C59.5921 31.0449 59.8401 30.8089 60.1841 30.6249C60.5281 30.4409 60.9081 30.3489 61.3241 30.3489ZM60.7481 34.9209C61.1481 34.9209 61.4761 34.7809 61.7321 34.5009C61.9881 34.2129 62.1161 33.8449 62.1161 33.3969C62.1161 32.9489 61.9881 32.5849 61.7321 32.3049C61.4761 32.0249 61.1481 31.8849 60.7481 31.8849C60.3321 31.8849 59.9961 32.0249 59.7401 32.3049C59.4841 32.5849 59.3561 32.9489 59.3561 33.3969C59.3561 33.8529 59.4841 34.2209 59.7401 34.5009C60.0041 34.7809 60.3401 34.9209 60.7481 34.9209ZM68.8124 30.3489C69.6044 30.3489 70.2444 30.6289 70.7324 31.1889C71.2284 31.7489 71.4764 32.4849 71.4764 33.3969C71.4764 34.3009 71.2244 35.0369 70.7204 35.6049C70.2164 36.1649 69.5644 36.4449 68.7644 36.4449C68.3484 36.4449 67.9764 36.3529 67.6484 36.1689C67.3204 35.9849 67.0804 35.7529 66.9284 35.4729V38.6889H65.0924V30.5049H66.9284V31.3329C67.0804 31.0449 67.3284 30.8089 67.6724 30.6249C68.0164 30.4409 68.3964 30.3489 68.8124 30.3489ZM68.2364 34.9209C68.6364 34.9209 68.9644 34.7809 69.2204 34.5009C69.4764 34.2129 69.6044 33.8449 69.6044 33.3969C69.6044 32.9489 69.4764 32.5849 69.2204 32.3049C68.9644 32.0249 68.6364 31.8849 68.2364 31.8849C67.8204 31.8849 67.4844 32.0249 67.2284 32.3049C66.9724 32.5849 66.8444 32.9489 66.8444 33.3969C66.8444 33.8529 66.9724 34.2209 67.2284 34.5009C67.4924 34.7809 67.8284 34.9209 68.2364 34.9209ZM78.3187 36.5289C77.2867 36.5289 76.4787 36.2689 75.8947 35.7489C75.3107 35.2209 75.0187 34.4849 75.0187 33.5409H76.9627C76.9627 33.9969 77.0827 34.3529 77.3227 34.6089C77.5707 34.8649 77.9067 34.9929 78.3307 34.9929C78.6907 34.9929 78.9667 34.9129 79.1587 34.7529C79.3587 34.5929 79.4587 34.3649 79.4587 34.0689C79.4587 33.8129 79.3827 33.6089 79.2307 33.4569C79.0867 33.2969 78.8227 33.1409 78.4387 32.9889L76.9267 32.4009C75.7907 31.9769 75.2227 31.2129 75.2227 30.1089C75.2227 29.3649 75.4907 28.7689 76.0267 28.3209C76.5707 27.8729 77.2987 27.6489 78.2107 27.6489C79.1387 27.6489 79.8827 27.8929 80.4427 28.3809C81.0027 28.8609 81.2827 29.5049 81.2827 30.3129H79.3387C79.3387 29.9209 79.2387 29.6209 79.0387 29.4129C78.8387 29.2049 78.5507 29.1009 78.1747 29.1009C77.8627 29.1009 77.6147 29.1769 77.4307 29.3289C77.2547 29.4729 77.1667 29.6729 77.1667 29.9289C77.1667 30.1609 77.2547 30.3609 77.4307 30.5289C77.6067 30.6889 77.9027 30.8529 78.3187 31.0209L79.7107 31.5729C80.8387 32.0129 81.4027 32.8009 81.4027 33.9369C81.4027 34.7209 81.1187 35.3489 80.5507 35.8209C79.9907 36.2929 79.2467 36.5289 78.3187 36.5289ZM85.4722 34.8609C85.7282 34.8609 85.9402 34.8489 86.1082 34.8249V36.2889C85.7562 36.3529 85.3482 36.3849 84.8842 36.3849C84.6762 36.3849 84.4922 36.3729 84.3322 36.3489C84.1722 36.3249 83.9922 36.2729 83.7922 36.1929C83.5922 36.1049 83.4282 35.9889 83.3002 35.8449C83.1722 35.7009 83.0602 35.4929 82.9642 35.2209C82.8762 34.9489 82.8322 34.6289 82.8322 34.2609V31.9569H81.9202V30.5049H82.8322V28.7889H84.6682V30.5049H85.9762V31.9569H84.6682V33.8769C84.6682 34.2689 84.7362 34.5329 84.8722 34.6689C85.0082 34.7969 85.2082 34.8609 85.4722 34.8609ZM92.2468 35.6049C91.6708 36.1809 90.8948 36.4689 89.9188 36.4689C88.9428 36.4689 88.1628 36.1809 87.5788 35.6049C86.9948 35.0289 86.7028 34.2929 86.7028 33.3969C86.7028 32.5009 86.9948 31.7689 87.5788 31.2009C88.1628 30.6249 88.9428 30.3369 89.9188 30.3369C90.8948 30.3369 91.6708 30.6249 92.2468 31.2009C92.8308 31.7689 93.1228 32.5009 93.1228 33.3969C93.1228 34.2929 92.8308 35.0289 92.2468 35.6049ZM89.9188 34.9089C90.3428 34.9089 90.6788 34.7689 90.9268 34.4889C91.1748 34.2089 91.2988 33.8449 91.2988 33.3969C91.2988 32.9489 91.1748 32.5849 90.9268 32.3049C90.6788 32.0249 90.3428 31.8849 89.9188 31.8849C89.4868 31.8849 89.1468 32.0249 88.8988 32.3049C88.6588 32.5849 88.5388 32.9489 88.5388 33.3969C88.5388 33.8449 88.6588 34.2089 88.8988 34.4889C89.1468 34.7689 89.4868 34.9089 89.9188 34.9089ZM94.1784 36.2889V30.5049H96.0144V31.7169C96.1104 31.3009 96.3064 30.9809 96.6024 30.7569C96.9064 30.5249 97.2424 30.4089 97.6104 30.4089C97.8024 30.4089 97.9624 30.4249 98.0904 30.4569V32.1609C97.8744 32.1369 97.6904 32.1249 97.5384 32.1249C96.5224 32.1249 96.0144 32.7689 96.0144 34.0569V36.2889H94.1784ZM104.73 33.0969C104.73 33.3369 104.714 33.6049 104.682 33.9009H100.41C100.426 34.2769 100.554 34.5689 100.794 34.7769C101.034 34.9849 101.358 35.0889 101.766 35.0889C102.326 35.0889 102.686 34.9089 102.846 34.5489H104.646C104.558 35.1169 104.246 35.5809 103.71 35.9409C103.182 36.2929 102.534 36.4689 101.766 36.4689C100.782 36.4689 100.006 36.1969 99.4376 35.6529C98.8696 35.1089 98.5856 34.3569 98.5856 33.3969C98.5856 32.4529 98.8696 31.7089 99.4376 31.1649C100.006 30.6129 100.762 30.3369 101.706 30.3369C102.602 30.3369 103.33 30.5929 103.89 31.1049C104.45 31.6169 104.73 32.2809 104.73 33.0969ZM100.41 32.7609H102.918C102.91 32.3769 102.802 32.0809 102.594 31.8729C102.386 31.6649 102.086 31.5609 101.694 31.5609C101.302 31.5609 100.99 31.6729 100.758 31.8969C100.534 32.1129 100.418 32.4009 100.41 32.7609Z" fill="#333333"/>
<rect x="0.25" y="0.25" width="130.611" height="54.6417" rx="27.3209" stroke="#333333" stroke-opacity="0.2" stroke-width="0.5"/>
<defs>
<clipPath id="clip0_106_84">
<rect width="21.9498" height="21.9498" fill="white" transform="translate(20 16.596)"/>
</clipPath>
</defs>
</svg>
