<svg width="299" height="56" viewBox="0 0 299 56" fill="none" xmlns="http://www.w3.org/2000/svg">
<g clip-path="url(#clip0_109_15)">
<path d="M27.9417 38.5448C24.6749 38.526 21.9727 31.8574 21.9727 28.4612C21.9727 22.9136 26.1344 21.6991 27.7382 21.6991C28.461 21.6991 29.2328 21.9829 29.9136 22.2341C30.3896 22.4093 30.8819 22.5902 31.1558 22.5902C31.3197 22.5902 31.7059 22.4363 32.0469 22.3013C32.7741 22.0118 33.679 21.652 34.7328 21.652C34.7346 21.652 34.7372 21.652 34.739 21.652C35.5259 21.652 37.9116 21.8247 39.3459 23.9787L39.6819 24.4836L39.1984 24.8485C38.5076 25.3697 37.2472 26.3205 37.2472 28.2038C37.2472 30.4344 38.6746 31.2922 39.3604 31.7048C39.6631 31.8869 39.9764 32.0747 39.9764 32.4854C39.9764 32.7536 37.8362 38.5116 34.7283 38.5116C33.9679 38.5116 33.4303 38.283 32.9562 38.0814C32.4764 37.8773 32.0625 37.7015 31.3786 37.7015C31.032 37.7015 30.5936 37.8654 30.1296 38.0394C29.4954 38.276 28.7776 38.5448 27.9631 38.5448H27.9417Z" fill="#333333"/>
<path d="M35.0622 16.5952C35.1431 19.5136 33.056 21.5383 30.9713 21.4113C30.6277 19.0823 33.0557 16.5952 35.0622 16.5952Z" fill="#333333"/>
</g>
<path d="M49.6704 23V16.7H51.6774C52.6734 16.7 53.4564 17.009 54.0264 17.627C54.5964 18.245 54.8814 18.986 54.8814 19.85C54.8814 20.714 54.5964 21.455 54.0264 22.073C53.4564 22.691 52.6734 23 51.6774 23H49.6704ZM50.4894 22.262H51.6144C52.3884 22.262 52.9854 22.025 53.4054 21.551C53.8254 21.077 54.0354 20.51 54.0354 19.85C54.0354 19.184 53.8254 18.617 53.4054 18.149C52.9854 17.675 52.3884 17.438 51.6144 17.438H50.4894V22.262ZM57.675 23.108C57.015 23.108 56.49 22.901 56.1 22.487C55.71 22.067 55.515 21.545 55.515 20.921C55.515 20.297 55.71 19.778 56.1 19.364C56.49 18.95 57.015 18.743 57.675 18.743C58.329 18.743 58.851 18.953 59.241 19.373C59.637 19.787 59.835 20.303 59.835 20.921C59.835 21.545 59.637 22.067 59.241 22.487C58.851 22.901 58.329 23.108 57.675 23.108ZM56.658 21.992C56.91 22.268 57.249 22.406 57.675 22.406C58.101 22.406 58.437 22.268 58.683 21.992C58.929 21.71 59.052 21.353 59.052 20.921C59.052 20.495 58.929 20.144 58.683 19.868C58.437 19.586 58.101 19.445 57.675 19.445C57.249 19.445 56.91 19.586 56.658 19.868C56.412 20.144 56.289 20.498 56.289 20.93C56.289 21.356 56.412 21.71 56.658 21.992ZM61.5826 23L60.0526 18.851H60.9076L61.9066 21.875L62.9146 18.851H63.7516L64.7596 21.875L65.7586 18.851H66.6226L65.0836 23H64.4176L63.3286 19.814L62.2486 23H61.5826ZM67.3617 23V18.851H68.1447V19.616C68.2587 19.346 68.4387 19.133 68.6847 18.977C68.9367 18.821 69.2397 18.743 69.5937 18.743C70.6257 18.743 71.1417 19.31 71.1417 20.444V23H70.3587V20.786C70.3587 20.318 70.2747 19.973 70.1067 19.751C69.9447 19.529 69.6807 19.418 69.3147 19.418C68.9367 19.418 68.6457 19.541 68.4417 19.787C68.2437 20.033 68.1447 20.372 68.1447 20.804V23H67.3617ZM72.4242 23V16.7H73.2072V23H72.4242ZM76.3869 23.108C75.7269 23.108 75.2019 22.901 74.8119 22.487C74.4219 22.067 74.2269 21.545 74.2269 20.921C74.2269 20.297 74.4219 19.778 74.8119 19.364C75.2019 18.95 75.7269 18.743 76.3869 18.743C77.0409 18.743 77.5629 18.953 77.9529 19.373C78.3489 19.787 78.5469 20.303 78.5469 20.921C78.5469 21.545 78.3489 22.067 77.9529 22.487C77.5629 22.901 77.0409 23.108 76.3869 23.108ZM75.3699 21.992C75.6219 22.268 75.9609 22.406 76.3869 22.406C76.8129 22.406 77.1489 22.268 77.3949 21.992C77.6409 21.71 77.7639 21.353 77.7639 20.921C77.7639 20.495 77.6409 20.144 77.3949 19.868C77.1489 19.586 76.8129 19.445 76.3869 19.445C75.9609 19.445 75.6219 19.586 75.3699 19.868C75.1239 20.144 75.0009 20.498 75.0009 20.93C75.0009 21.356 75.1239 21.71 75.3699 21.992ZM81.3502 23.108C80.7082 23.108 80.2042 22.904 79.8382 22.496C79.4782 22.088 79.2982 21.566 79.2982 20.93C79.2982 20.3 79.4842 19.778 79.8562 19.364C80.2342 18.95 80.7382 18.743 81.3682 18.743C81.6922 18.743 81.9832 18.818 82.2412 18.968C82.4992 19.118 82.6942 19.322 82.8262 19.58V18.851H83.6002V23H82.8262V22.271C82.6942 22.523 82.4932 22.727 82.2232 22.883C81.9532 23.033 81.6622 23.108 81.3502 23.108ZM81.4582 22.406C81.8962 22.406 82.2382 22.265 82.4842 21.983C82.7362 21.695 82.8622 21.344 82.8622 20.93C82.8622 20.51 82.7362 20.159 82.4842 19.877C82.2382 19.589 81.8962 19.445 81.4582 19.445C81.0382 19.445 80.7022 19.586 80.4502 19.868C80.1982 20.144 80.0722 20.498 80.0722 20.93C80.0722 21.362 80.1982 21.716 80.4502 21.992C80.7022 22.268 81.0382 22.406 81.4582 22.406ZM88.1346 16.7H88.9176V23H88.1436V22.271C88.0116 22.523 87.8106 22.727 87.5406 22.883C87.2706 23.033 86.9796 23.108 86.6676 23.108C86.0256 23.108 85.5216 22.904 85.1556 22.496C84.7956 22.088 84.6156 21.566 84.6156 20.93C84.6156 20.3 84.8016 19.778 85.1736 19.364C85.5516 18.95 86.0556 18.743 86.6856 18.743C87.0096 18.743 87.3006 18.818 87.5586 18.968C87.8166 19.118 88.0116 19.322 88.1436 19.58V19.148H88.1346V16.7ZM86.7756 22.406C87.2136 22.406 87.5556 22.265 87.8016 21.983C88.0536 21.695 88.1796 21.344 88.1796 20.93C88.1796 20.51 88.0536 20.159 87.8016 19.877C87.5556 19.589 87.2136 19.445 86.7756 19.445C86.3556 19.445 86.0196 19.586 85.7676 19.868C85.5156 20.144 85.3896 20.498 85.3896 20.93C85.3896 21.362 85.5156 21.716 85.7676 21.992C86.0196 22.268 86.3556 22.406 86.7756 22.406ZM94.3694 23.108C93.7094 23.108 93.1844 22.901 92.7944 22.487C92.4044 22.067 92.2094 21.545 92.2094 20.921C92.2094 20.297 92.4044 19.778 92.7944 19.364C93.1844 18.95 93.7094 18.743 94.3694 18.743C95.0234 18.743 95.5454 18.953 95.9354 19.373C96.3314 19.787 96.5294 20.303 96.5294 20.921C96.5294 21.545 96.3314 22.067 95.9354 22.487C95.5454 22.901 95.0234 23.108 94.3694 23.108ZM93.3524 21.992C93.6044 22.268 93.9434 22.406 94.3694 22.406C94.7954 22.406 95.1314 22.268 95.3774 21.992C95.6234 21.71 95.7464 21.353 95.7464 20.921C95.7464 20.495 95.6234 20.144 95.3774 19.868C95.1314 19.586 94.7954 19.445 94.3694 19.445C93.9434 19.445 93.6044 19.586 93.3524 19.868C93.1064 20.144 92.9834 20.498 92.9834 20.93C92.9834 21.356 93.1064 21.71 93.3524 21.992ZM97.5433 23V18.851H98.3263V19.616C98.4403 19.346 98.6203 19.133 98.8663 18.977C99.1183 18.821 99.4213 18.743 99.7753 18.743C100.807 18.743 101.323 19.31 101.323 20.444V23H100.54V20.786C100.54 20.318 100.456 19.973 100.288 19.751C100.126 19.529 99.8623 19.418 99.4963 19.418C99.1183 19.418 98.8273 19.541 98.6233 19.787C98.4253 20.033 98.3263 20.372 98.3263 20.804V23H97.5433Z" fill="#333333"/>
<path d="M54.6737 36.2889L54.3857 35.2689H51.4097L51.1217 36.2889H49.0697L51.9137 27.8889H53.8697L56.7257 36.2889H54.6737ZM51.8417 33.7449H53.9537L52.8977 30.0129L51.8417 33.7449ZM61.3241 30.3489C62.1161 30.3489 62.7561 30.6289 63.2441 31.1889C63.7401 31.7489 63.9881 32.4849 63.9881 33.3969C63.9881 34.3009 63.7361 35.0369 63.2321 35.6049C62.7281 36.1649 62.0761 36.4449 61.2761 36.4449C60.8601 36.4449 60.4881 36.3529 60.1601 36.1689C59.8321 35.9849 59.5921 35.7529 59.4401 35.4729V38.6889H57.6041V30.5049H59.4401V31.3329C59.5921 31.0449 59.8401 30.8089 60.1841 30.6249C60.5281 30.4409 60.9081 30.3489 61.3241 30.3489ZM60.7481 34.9209C61.1481 34.9209 61.4761 34.7809 61.7321 34.5009C61.9881 34.2129 62.1161 33.8449 62.1161 33.3969C62.1161 32.9489 61.9881 32.5849 61.7321 32.3049C61.4761 32.0249 61.1481 31.8849 60.7481 31.8849C60.3321 31.8849 59.9961 32.0249 59.7401 32.3049C59.4841 32.5849 59.3561 32.9489 59.3561 33.3969C59.3561 33.8529 59.4841 34.2209 59.7401 34.5009C60.0041 34.7809 60.3401 34.9209 60.7481 34.9209ZM68.8124 30.3489C69.6044 30.3489 70.2444 30.6289 70.7324 31.1889C71.2284 31.7489 71.4764 32.4849 71.4764 33.3969C71.4764 34.3009 71.2244 35.0369 70.7204 35.6049C70.2164 36.1649 69.5644 36.4449 68.7644 36.4449C68.3484 36.4449 67.9764 36.3529 67.6484 36.1689C67.3204 35.9849 67.0804 35.7529 66.9284 35.4729V38.6889H65.0924V30.5049H66.9284V31.3329C67.0804 31.0449 67.3284 30.8089 67.6724 30.6249C68.0164 30.4409 68.3964 30.3489 68.8124 30.3489ZM68.2364 34.9209C68.6364 34.9209 68.9644 34.7809 69.2204 34.5009C69.4764 34.2129 69.6044 33.8449 69.6044 33.3969C69.6044 32.9489 69.4764 32.5849 69.2204 32.3049C68.9644 32.0249 68.6364 31.8849 68.2364 31.8849C67.8204 31.8849 67.4844 32.0249 67.2284 32.3049C66.9724 32.5849 66.8444 32.9489 66.8444 33.3969C66.8444 33.8529 66.9724 34.2209 67.2284 34.5009C67.4924 34.7809 67.8284 34.9209 68.2364 34.9209ZM78.3187 36.5289C77.2867 36.5289 76.4787 36.2689 75.8947 35.7489C75.3107 35.2209 75.0187 34.4849 75.0187 33.5409H76.9627C76.9627 33.9969 77.0827 34.3529 77.3227 34.6089C77.5707 34.8649 77.9067 34.9929 78.3307 34.9929C78.6907 34.9929 78.9667 34.9129 79.1587 34.7529C79.3587 34.5929 79.4587 34.3649 79.4587 34.0689C79.4587 33.8129 79.3827 33.6089 79.2307 33.4569C79.0867 33.2969 78.8227 33.1409 78.4387 32.9889L76.9267 32.4009C75.7907 31.9769 75.2227 31.2129 75.2227 30.1089C75.2227 29.3649 75.4907 28.7689 76.0267 28.3209C76.5707 27.8729 77.2987 27.6489 78.2107 27.6489C79.1387 27.6489 79.8827 27.8929 80.4427 28.3809C81.0027 28.8609 81.2827 29.5049 81.2827 30.3129H79.3387C79.3387 29.9209 79.2387 29.6209 79.0387 29.4129C78.8387 29.2049 78.5507 29.1009 78.1747 29.1009C77.8627 29.1009 77.6147 29.1769 77.4307 29.3289C77.2547 29.4729 77.1667 29.6729 77.1667 29.9289C77.1667 30.1609 77.2547 30.3609 77.4307 30.5289C77.6067 30.6889 77.9027 30.8529 78.3187 31.0209L79.7107 31.5729C80.8387 32.0129 81.4027 32.8009 81.4027 33.9369C81.4027 34.7209 81.1187 35.3489 80.5507 35.8209C79.9907 36.2929 79.2467 36.5289 78.3187 36.5289ZM85.4722 34.8609C85.7282 34.8609 85.9402 34.8489 86.1082 34.8249V36.2889C85.7562 36.3529 85.3482 36.3849 84.8842 36.3849C84.6762 36.3849 84.4922 36.3729 84.3322 36.3489C84.1722 36.3249 83.9922 36.2729 83.7922 36.1929C83.5922 36.1049 83.4282 35.9889 83.3002 35.8449C83.1722 35.7009 83.0602 35.4929 82.9642 35.2209C82.8762 34.9489 82.8322 34.6289 82.8322 34.2609V31.9569H81.9202V30.5049H82.8322V28.7889H84.6682V30.5049H85.9762V31.9569H84.6682V33.8769C84.6682 34.2689 84.7362 34.5329 84.8722 34.6689C85.0082 34.7969 85.2082 34.8609 85.4722 34.8609ZM92.2468 35.6049C91.6708 36.1809 90.8948 36.4689 89.9188 36.4689C88.9428 36.4689 88.1628 36.1809 87.5788 35.6049C86.9948 35.0289 86.7028 34.2929 86.7028 33.3969C86.7028 32.5009 86.9948 31.7689 87.5788 31.2009C88.1628 30.6249 88.9428 30.3369 89.9188 30.3369C90.8948 30.3369 91.6708 30.6249 92.2468 31.2009C92.8308 31.7689 93.1228 32.5009 93.1228 33.3969C93.1228 34.2929 92.8308 35.0289 92.2468 35.6049ZM89.9188 34.9089C90.3428 34.9089 90.6788 34.7689 90.9268 34.4889C91.1748 34.2089 91.2988 33.8449 91.2988 33.3969C91.2988 32.9489 91.1748 32.5849 90.9268 32.3049C90.6788 32.0249 90.3428 31.8849 89.9188 31.8849C89.4868 31.8849 89.1468 32.0249 88.8988 32.3049C88.6588 32.5849 88.5388 32.9489 88.5388 33.3969C88.5388 33.8449 88.6588 34.2089 88.8988 34.4889C89.1468 34.7689 89.4868 34.9089 89.9188 34.9089ZM94.1784 36.2889V30.5049H96.0144V31.7169C96.1104 31.3009 96.3064 30.9809 96.6024 30.7569C96.9064 30.5249 97.2424 30.4089 97.6104 30.4089C97.8024 30.4089 97.9624 30.4249 98.0904 30.4569V32.1609C97.8744 32.1369 97.6904 32.1249 97.5384 32.1249C96.5224 32.1249 96.0144 32.7689 96.0144 34.0569V36.2889H94.1784ZM104.73 33.0969C104.73 33.3369 104.714 33.6049 104.682 33.9009H100.41C100.426 34.2769 100.554 34.5689 100.794 34.7769C101.034 34.9849 101.358 35.0889 101.766 35.0889C102.326 35.0889 102.686 34.9089 102.846 34.5489H104.646C104.558 35.1169 104.246 35.5809 103.71 35.9409C103.182 36.2929 102.534 36.4689 101.766 36.4689C100.782 36.4689 100.006 36.1969 99.4376 35.6529C98.8696 35.1089 98.5856 34.3569 98.5856 33.3969C98.5856 32.4529 98.8696 31.7089 99.4376 31.1649C100.006 30.6129 100.762 30.3369 101.706 30.3369C102.602 30.3369 103.33 30.5929 103.89 31.1049C104.45 31.6169 104.73 32.2809 104.73 33.0969ZM100.41 32.7609H102.918C102.91 32.3769 102.802 32.0809 102.594 31.8729C102.386 31.6649 102.086 31.5609 101.694 31.5609C101.302 31.5609 100.99 31.6729 100.758 31.8969C100.534 32.1129 100.418 32.4009 100.41 32.7609Z" fill="#333333"/>
<rect x="0.25" y="0.25" width="130.611" height="54.6417" rx="27.3209" stroke="#333333" stroke-opacity="0.2" stroke-width="0.5"/>
<g clip-path="url(#clip1_109_15)">
<path d="M175.317 16.8757C174.751 16.5353 174.077 16.5049 173.49 16.7883L183.344 26.664L186.567 23.4269L175.317 16.8757ZM172.584 17.7023C172.46 17.9655 172.393 18.2583 172.393 18.5597V36.6247C172.393 36.9274 172.46 37.2159 172.586 37.4735L182.437 27.5759L172.584 17.7023ZM183.346 28.4865L173.507 38.3721C173.768 38.493 174.046 38.5458 174.323 38.5458C174.666 38.5458 175.007 38.4639 175.317 38.2778L186.569 31.7168L183.346 28.4865ZM190.851 25.9219C190.847 25.9194 190.843 25.9168 190.839 25.9147L187.716 24.0956L184.253 27.5746L187.718 31.0468C187.718 31.0468 190.847 29.2222 190.851 29.22C191.432 28.8672 191.779 28.2507 191.779 27.5708C191.779 26.8908 191.432 26.2743 190.851 25.9219Z" fill="#333333"/>
</g>
<path d="M200.781 23V16.7H202.788C203.784 16.7 204.567 17.009 205.137 17.627C205.707 18.245 205.992 18.986 205.992 19.85C205.992 20.714 205.707 21.455 205.137 22.073C204.567 22.691 203.784 23 202.788 23H200.781ZM201.6 22.262H202.725C203.499 22.262 204.096 22.025 204.516 21.551C204.936 21.077 205.146 20.51 205.146 19.85C205.146 19.184 204.936 18.617 204.516 18.149C204.096 17.675 203.499 17.438 202.725 17.438H201.6V22.262ZM208.786 23.108C208.126 23.108 207.601 22.901 207.211 22.487C206.821 22.067 206.626 21.545 206.626 20.921C206.626 20.297 206.821 19.778 207.211 19.364C207.601 18.95 208.126 18.743 208.786 18.743C209.44 18.743 209.962 18.953 210.352 19.373C210.748 19.787 210.946 20.303 210.946 20.921C210.946 21.545 210.748 22.067 210.352 22.487C209.962 22.901 209.44 23.108 208.786 23.108ZM207.769 21.992C208.021 22.268 208.36 22.406 208.786 22.406C209.212 22.406 209.548 22.268 209.794 21.992C210.04 21.71 210.163 21.353 210.163 20.921C210.163 20.495 210.04 20.144 209.794 19.868C209.548 19.586 209.212 19.445 208.786 19.445C208.36 19.445 208.021 19.586 207.769 19.868C207.523 20.144 207.4 20.498 207.4 20.93C207.4 21.356 207.523 21.71 207.769 21.992ZM212.693 23L211.163 18.851H212.018L213.017 21.875L214.025 18.851H214.862L215.87 21.875L216.869 18.851H217.733L216.194 23H215.528L214.439 19.814L213.359 23H212.693ZM218.472 23V18.851H219.255V19.616C219.369 19.346 219.549 19.133 219.795 18.977C220.047 18.821 220.35 18.743 220.704 18.743C221.736 18.743 222.252 19.31 222.252 20.444V23H221.469V20.786C221.469 20.318 221.385 19.973 221.217 19.751C221.055 19.529 220.791 19.418 220.425 19.418C220.047 19.418 219.756 19.541 219.552 19.787C219.354 20.033 219.255 20.372 219.255 20.804V23H218.472ZM223.535 23V16.7H224.318V23H223.535ZM227.498 23.108C226.838 23.108 226.313 22.901 225.923 22.487C225.533 22.067 225.338 21.545 225.338 20.921C225.338 20.297 225.533 19.778 225.923 19.364C226.313 18.95 226.838 18.743 227.498 18.743C228.152 18.743 228.674 18.953 229.064 19.373C229.46 19.787 229.658 20.303 229.658 20.921C229.658 21.545 229.46 22.067 229.064 22.487C228.674 22.901 228.152 23.108 227.498 23.108ZM226.481 21.992C226.733 22.268 227.072 22.406 227.498 22.406C227.924 22.406 228.26 22.268 228.506 21.992C228.752 21.71 228.875 21.353 228.875 20.921C228.875 20.495 228.752 20.144 228.506 19.868C228.26 19.586 227.924 19.445 227.498 19.445C227.072 19.445 226.733 19.586 226.481 19.868C226.235 20.144 226.112 20.498 226.112 20.93C226.112 21.356 226.235 21.71 226.481 21.992ZM232.461 23.108C231.819 23.108 231.315 22.904 230.949 22.496C230.589 22.088 230.409 21.566 230.409 20.93C230.409 20.3 230.595 19.778 230.967 19.364C231.345 18.95 231.849 18.743 232.479 18.743C232.803 18.743 233.094 18.818 233.352 18.968C233.61 19.118 233.805 19.322 233.937 19.58V18.851H234.711V23H233.937V22.271C233.805 22.523 233.604 22.727 233.334 22.883C233.064 23.033 232.773 23.108 232.461 23.108ZM232.569 22.406C233.007 22.406 233.349 22.265 233.595 21.983C233.847 21.695 233.973 21.344 233.973 20.93C233.973 20.51 233.847 20.159 233.595 19.877C233.349 19.589 233.007 19.445 232.569 19.445C232.149 19.445 231.813 19.586 231.561 19.868C231.309 20.144 231.183 20.498 231.183 20.93C231.183 21.362 231.309 21.716 231.561 21.992C231.813 22.268 232.149 22.406 232.569 22.406ZM239.245 16.7H240.028V23H239.254V22.271C239.122 22.523 238.921 22.727 238.651 22.883C238.381 23.033 238.09 23.108 237.778 23.108C237.136 23.108 236.632 22.904 236.266 22.496C235.906 22.088 235.726 21.566 235.726 20.93C235.726 20.3 235.912 19.778 236.284 19.364C236.662 18.95 237.166 18.743 237.796 18.743C238.12 18.743 238.411 18.818 238.669 18.968C238.927 19.118 239.122 19.322 239.254 19.58V19.148H239.245V16.7ZM237.886 22.406C238.324 22.406 238.666 22.265 238.912 21.983C239.164 21.695 239.29 21.344 239.29 20.93C239.29 20.51 239.164 20.159 238.912 19.877C238.666 19.589 238.324 19.445 237.886 19.445C237.466 19.445 237.13 19.586 236.878 19.868C236.626 20.144 236.5 20.498 236.5 20.93C236.5 21.362 236.626 21.716 236.878 21.992C237.13 22.268 237.466 22.406 237.886 22.406ZM245.48 23.108C244.82 23.108 244.295 22.901 243.905 22.487C243.515 22.067 243.32 21.545 243.32 20.921C243.32 20.297 243.515 19.778 243.905 19.364C244.295 18.95 244.82 18.743 245.48 18.743C246.134 18.743 246.656 18.953 247.046 19.373C247.442 19.787 247.64 20.303 247.64 20.921C247.64 21.545 247.442 22.067 247.046 22.487C246.656 22.901 246.134 23.108 245.48 23.108ZM244.463 21.992C244.715 22.268 245.054 22.406 245.48 22.406C245.906 22.406 246.242 22.268 246.488 21.992C246.734 21.71 246.857 21.353 246.857 20.921C246.857 20.495 246.734 20.144 246.488 19.868C246.242 19.586 245.906 19.445 245.48 19.445C245.054 19.445 244.715 19.586 244.463 19.868C244.217 20.144 244.094 20.498 244.094 20.93C244.094 21.356 244.217 21.71 244.463 21.992ZM248.654 23V18.851H249.437V19.616C249.551 19.346 249.731 19.133 249.977 18.977C250.229 18.821 250.532 18.743 250.886 18.743C251.918 18.743 252.434 19.31 252.434 20.444V23H251.651V20.786C251.651 20.318 251.567 19.973 251.399 19.751C251.237 19.529 250.973 19.418 250.607 19.418C250.229 19.418 249.938 19.541 249.734 19.787C249.536 20.033 249.437 20.372 249.437 20.804V23H248.654Z" fill="#333333"/>
<path d="M209.865 31.8729V33.3369H209.073C208.857 34.3529 208.381 35.1409 207.645 35.7009C206.917 36.2529 205.977 36.5289 204.825 36.5289C203.497 36.5289 202.421 36.1169 201.597 35.2929C200.781 34.4609 200.377 33.4049 200.385 32.1249C200.385 30.8529 200.789 29.7889 201.597 28.9329C202.413 28.0769 203.525 27.6489 204.933 27.6489C206.045 27.6489 206.965 27.9169 207.693 28.4529C208.429 28.9889 208.833 29.6689 208.905 30.4929H206.781C206.701 30.1329 206.497 29.8409 206.169 29.6169C205.849 29.3929 205.441 29.2809 204.945 29.2809C204.121 29.2809 203.489 29.5409 203.049 30.0609C202.617 30.5809 202.405 31.2569 202.413 32.0889C202.405 32.8889 202.625 33.5489 203.073 34.0689C203.529 34.5809 204.129 34.8369 204.873 34.8369C206.049 34.8369 206.781 34.3369 207.069 33.3369H205.569V31.8729H209.865ZM215.983 35.6049C215.407 36.1809 214.631 36.4689 213.655 36.4689C212.679 36.4689 211.899 36.1809 211.315 35.6049C210.731 35.0289 210.439 34.2929 210.439 33.3969C210.439 32.5009 210.731 31.7689 211.315 31.2009C211.899 30.6249 212.679 30.3369 213.655 30.3369C214.631 30.3369 215.407 30.6249 215.983 31.2009C216.567 31.7689 216.859 32.5009 216.859 33.3969C216.859 34.2929 216.567 35.0289 215.983 35.6049ZM213.655 34.9089C214.079 34.9089 214.415 34.7689 214.663 34.4889C214.911 34.2089 215.035 33.8449 215.035 33.3969C215.035 32.9489 214.911 32.5849 214.663 32.3049C214.415 32.0249 214.079 31.8849 213.655 31.8849C213.223 31.8849 212.883 32.0249 212.635 32.3049C212.395 32.5849 212.275 32.9489 212.275 33.3969C212.275 33.8449 212.395 34.2089 212.635 34.4889C212.883 34.7689 213.223 34.9089 213.655 34.9089ZM223.202 35.6049C222.626 36.1809 221.85 36.4689 220.874 36.4689C219.898 36.4689 219.118 36.1809 218.534 35.6049C217.95 35.0289 217.658 34.2929 217.658 33.3969C217.658 32.5009 217.95 31.7689 218.534 31.2009C219.118 30.6249 219.898 30.3369 220.874 30.3369C221.85 30.3369 222.626 30.6249 223.202 31.2009C223.786 31.7689 224.078 32.5009 224.078 33.3969C224.078 34.2929 223.786 35.0289 223.202 35.6049ZM220.874 34.9089C221.298 34.9089 221.634 34.7689 221.882 34.4889C222.13 34.2089 222.254 33.8449 222.254 33.3969C222.254 32.9489 222.13 32.5849 221.882 32.3049C221.634 32.0249 221.298 31.8849 220.874 31.8849C220.442 31.8849 220.102 32.0249 219.854 32.3049C219.614 32.5849 219.494 32.9489 219.494 33.3969C219.494 33.8449 219.614 34.2089 219.854 34.4889C220.102 34.7689 220.442 34.9089 220.874 34.9089ZM229.414 30.5049H231.25V35.8929C231.25 37.0129 230.878 37.8329 230.134 38.3529C229.646 38.6969 228.958 38.8689 228.07 38.8689C227.198 38.8689 226.502 38.7129 225.982 38.4009C225.686 38.2169 225.442 37.9809 225.25 37.6929C225.058 37.4049 224.958 37.1049 224.95 36.7929H226.822C226.91 37.2809 227.318 37.5249 228.046 37.5249C228.958 37.5249 229.414 37.0569 229.414 36.1209V35.3529C229.27 35.6329 229.026 35.8609 228.682 36.0369C228.346 36.2049 227.986 36.2889 227.602 36.2889C226.762 36.2889 226.094 36.0169 225.598 35.4729C225.102 34.9209 224.854 34.2089 224.854 33.3369C224.854 32.4729 225.11 31.7609 225.622 31.2009C226.134 30.6329 226.802 30.3489 227.626 30.3489C228.026 30.3489 228.386 30.4409 228.706 30.6249C229.034 30.8009 229.27 31.0369 229.414 31.3329V30.5049ZM228.106 34.8729C228.53 34.8729 228.866 34.7289 229.114 34.4409C229.37 34.1529 229.498 33.7929 229.498 33.3609C229.498 32.9289 229.37 32.5689 229.114 32.2809C228.866 31.9929 228.53 31.8489 228.106 31.8489C227.698 31.8489 227.366 31.9929 227.11 32.2809C226.862 32.5609 226.738 32.9209 226.738 33.3609C226.738 33.8009 226.862 34.1649 227.11 34.4529C227.366 34.7329 227.698 34.8729 228.106 34.8729ZM232.762 36.2889V27.8889H234.598V36.2889H232.762ZM241.802 33.0969C241.802 33.3369 241.786 33.6049 241.754 33.9009H237.482C237.498 34.2769 237.626 34.5689 237.866 34.7769C238.106 34.9849 238.43 35.0889 238.838 35.0889C239.398 35.0889 239.758 34.9089 239.918 34.5489H241.718C241.63 35.1169 241.318 35.5809 240.782 35.9409C240.254 36.2929 239.606 36.4689 238.838 36.4689C237.854 36.4689 237.078 36.1969 236.51 35.6529C235.942 35.1089 235.658 34.3569 235.658 33.3969C235.658 32.4529 235.942 31.7089 236.51 31.1649C237.078 30.6129 237.834 30.3369 238.778 30.3369C239.674 30.3369 240.402 30.5929 240.962 31.1049C241.522 31.6169 241.802 32.2809 241.802 33.0969ZM237.482 32.7609H239.99C239.982 32.3769 239.874 32.0809 239.666 31.8729C239.458 31.6649 239.158 31.5609 238.766 31.5609C238.374 31.5609 238.062 31.6729 237.83 31.8969C237.606 32.1129 237.49 32.4009 237.482 32.7609ZM249.406 27.8889C250.278 27.8889 250.998 28.1769 251.566 28.7529C252.134 29.3209 252.418 30.0449 252.418 30.9249C252.418 31.8049 252.134 32.5329 251.566 33.1089C250.998 33.6769 250.278 33.9609 249.406 33.9609H247.774V36.2889H245.83V27.8889H249.406ZM249.106 32.3769C249.498 32.3769 249.818 32.2409 250.066 31.9689C250.322 31.6969 250.45 31.3489 250.45 30.9249C250.45 30.5009 250.322 30.1529 250.066 29.8809C249.818 29.6089 249.498 29.4729 249.106 29.4729H247.774V32.3769H249.106ZM253.27 36.2889V27.8889H255.106V36.2889H253.27ZM258.926 36.4449C258.086 36.4449 257.422 36.1609 256.934 35.5929C256.446 35.0249 256.202 34.2929 256.202 33.3969C256.202 32.5169 256.454 31.7889 256.958 31.2129C257.462 30.6369 258.126 30.3489 258.95 30.3489C259.358 30.3489 259.722 30.4369 260.042 30.6129C260.362 30.7889 260.602 31.0289 260.762 31.3329V30.5049H262.586V36.2889H260.762V35.4729C260.602 35.7609 260.354 35.9969 260.018 36.1809C259.69 36.3569 259.326 36.4449 258.926 36.4449ZM259.454 34.9209C259.894 34.9209 260.234 34.7769 260.474 34.4889C260.714 34.2009 260.834 33.8369 260.834 33.3969C260.834 32.9649 260.714 32.6049 260.474 32.3169C260.234 32.0289 259.894 31.8849 259.454 31.8849C259.038 31.8849 258.702 32.0249 258.446 32.3049C258.198 32.5849 258.074 32.9489 258.074 33.3969C258.074 33.8449 258.198 34.2129 258.446 34.5009C258.702 34.7809 259.038 34.9209 259.454 34.9209ZM268.022 30.5049H269.858V36.1089C269.858 37.0049 269.582 37.7009 269.03 38.1969C268.51 38.6449 267.802 38.8689 266.906 38.8689C265.97 38.8689 265.258 38.6689 264.77 38.2689C264.298 37.8689 264.058 37.3609 264.05 36.7449H265.898C265.938 37.2649 266.274 37.5249 266.906 37.5249C267.65 37.5249 268.022 37.0929 268.022 36.2289V35.3289C267.686 35.9689 267.074 36.2889 266.186 36.2889C265.474 36.2889 264.938 36.0729 264.578 35.6409C264.226 35.2089 264.05 34.6169 264.05 33.8649V30.5049H265.886V33.5889C265.886 34.4209 266.226 34.8369 266.906 34.8369C267.266 34.8369 267.542 34.7089 267.734 34.4529C267.926 34.1889 268.022 33.8289 268.022 33.3729V30.5049Z" fill="#333333"/>
<rect x="151.361" y="0.25" width="146.564" height="54.6417" rx="27.3209" stroke="#333333" stroke-opacity="0.2" stroke-width="0.5"/>
<defs>
<clipPath id="clip0_109_15">
<rect width="21.9498" height="21.9498" fill="white" transform="translate(20 16.596)"/>
</clipPath>
<clipPath id="clip1_109_15">
<rect width="21.9498" height="21.9498" fill="white" transform="translate(171.111 16.596)"/>
</clipPath>
</defs>
</svg>
