<svg width="125" height="126" viewBox="0 0 125 126" fill="none" xmlns="http://www.w3.org/2000/svg">
<circle cx="75.6667" cy="76.6667" r="49" fill="#BCC6FF"/>
<g filter="url(#filter0_b_120_68)">
<path d="M28.3333 0H22.6667C5.66667 0 0 10.1433 0 22.6667V28.3333V107.667C0 112.37 5.32667 115.033 9.06667 112.2L18.7567 104.947C21.0233 103.247 24.1967 103.473 26.2367 105.513L35.6433 114.977C37.8533 117.187 41.48 117.187 43.69 114.977L53.21 105.457C55.1933 103.473 58.3667 103.247 60.5767 104.947L70.2667 112.2C74.0067 114.977 79.3333 112.313 79.3333 107.667V11.3333C79.3333 5.1 84.4333 0 90.6667 0H28.3333ZM52.4167 66.5833H26.9167C24.5933 66.5833 22.6667 64.6567 22.6667 62.3333C22.6667 60.01 24.5933 58.0833 26.9167 58.0833H52.4167C54.74 58.0833 56.6667 60.01 56.6667 62.3333C56.6667 64.6567 54.74 66.5833 52.4167 66.5833ZM56.6667 43.9167H22.6667C20.3433 43.9167 18.4167 41.99 18.4167 39.6667C18.4167 37.3433 20.3433 35.4167 22.6667 35.4167H56.6667C58.99 35.4167 60.9167 37.3433 60.9167 39.6667C60.9167 41.99 58.99 43.9167 56.6667 43.9167Z" fill="white" fill-opacity="0.05"/>
<path d="M8.76474 111.801L8.76704 111.8L18.4567 104.547L8.76474 111.801ZM8.76474 111.801C5.35693 114.383 0.5 111.96 0.5 107.667V28.3333V22.6667C0.5 16.4702 1.90311 10.94 5.33676 6.96388C8.75857 3.00142 14.269 0.5 22.6667 0.5H28.3333H85.9181M8.76474 111.801L85.9181 0.5M85.9181 0.5C81.756 2.33806 78.8333 6.51026 78.8333 11.3333V107.667C78.8333 111.898 73.979 114.332 70.5661 111.8C70.5657 111.799 70.5652 111.799 70.5647 111.799L60.8815 104.55C60.8805 104.55 60.8795 104.549 60.8785 104.548C58.4662 102.695 55.0134 102.946 52.8564 105.103L43.3364 114.623C41.322 116.638 38.0127 116.638 35.9979 114.624C35.9976 114.624 35.9972 114.623 35.9969 114.623L26.5913 105.161L26.5902 105.16C24.3765 102.946 20.9251 102.696 18.457 104.546L85.9181 0.5ZM26.9167 67.0833H52.4167C55.0161 67.0833 57.1667 64.9328 57.1667 62.3333C57.1667 59.7339 55.0161 57.5833 52.4167 57.5833H26.9167C24.3172 57.5833 22.1667 59.7339 22.1667 62.3333C22.1667 64.9328 24.3172 67.0833 26.9167 67.0833ZM22.6667 44.4167H56.6667C59.2661 44.4167 61.4167 42.2661 61.4167 39.6667C61.4167 37.0672 59.2661 34.9167 56.6667 34.9167H22.6667C20.0672 34.9167 17.9167 37.0672 17.9167 39.6667C17.9167 42.2661 20.0672 44.4167 22.6667 44.4167Z" stroke="url(#paint0_linear_120_68)" stroke-opacity="0.5"/>
<path d="M90.7233 0V8.5C94.4633 8.5 98.0333 10.03 100.64 12.58C103.36 15.3567 104.833 18.9267 104.833 22.6667V36.38C104.833 40.5733 102.963 42.5 98.7133 42.5H87.8333V11.39C87.8333 9.80333 89.1367 8.5 90.7233 8.5V0ZM90.7233 0C84.4333 0 79.3333 5.1 79.3333 11.39V51H98.7133C107.667 51 113.333 45.3333 113.333 36.38V22.6667C113.333 16.4333 110.783 10.7667 106.703 6.63C102.567 2.55 96.9567 0.0566667 90.7233 0C90.78 0 90.7233 0 90.7233 0Z" fill="white" fill-opacity="0.05"/>
</g>
<defs>
<filter id="filter0_b_120_68" x="-100" y="-100" width="313.333" height="316.634" filterUnits="userSpaceOnUse" color-interpolation-filters="sRGB">
<feFlood flood-opacity="0" result="BackgroundImageFix"/>
<feGaussianBlur in="BackgroundImage" stdDeviation="50"/>
<feComposite in2="SourceAlpha" operator="in" result="effect1_backgroundBlur_120_68"/>
<feBlend mode="normal" in="SourceGraphic" in2="effect1_backgroundBlur_120_68" result="shape"/>
</filter>
<linearGradient id="paint0_linear_120_68" x1="45.3333" y1="-1.65259e-06" x2="81" y2="92.5" gradientUnits="userSpaceOnUse">
<stop stop-color="#BCC6FF"/>
<stop offset="1" stop-color="#FFE9CC" stop-opacity="0"/>
</linearGradient>
</defs>
</svg>
