<svg width="115" height="109" viewBox="0 0 115 109" fill="none" xmlns="http://www.w3.org/2000/svg">
<circle cx="67.5" cy="61.5" r="47.5" fill="#F7991C"/>
<g filter="url(#filter0_b_120_58)">
<path d="M100.663 20.9913C100.663 24.0535 98.1553 26.561 95.093 26.561H6.06977C3.00754 26.561 0.5 24.0535 0.5 20.9913V20.9407C0.5 9.6337 9.6337 0.5 20.9407 0.5H80.1715C91.4785 0.5 100.663 9.68428 100.663 20.9913Z" fill="white" fill-opacity="0.5" stroke="url(#paint0_linear_120_58)"/>
<path d="M0.5 66.0593V40.718C0.5 37.6558 3.00754 35.1483 6.06977 35.1483H95.093C98.1553 35.1483 100.663 37.6558 100.663 40.718V66.0087C100.663 77.3157 91.4785 86.5 80.1715 86.5H20.9407C9.6337 86.5 0.5 77.3663 0.5 66.0593ZM20.2326 70.5552H30.3488C32.6988 70.5552 34.6424 68.6116 34.6424 66.2616C34.6424 63.9116 32.6988 61.968 30.3488 61.968H20.2326C17.8826 61.968 15.939 63.9116 15.939 66.2616C15.939 68.6116 17.8826 70.5552 20.2326 70.5552ZM42.9942 70.5552H63.2267C65.5767 70.5552 67.5204 68.6116 67.5204 66.2616C67.5204 63.9116 65.5767 61.968 63.2267 61.968H42.9942C40.6442 61.968 38.7006 63.9116 38.7006 66.2616C38.7006 68.6116 40.6442 70.5552 42.9942 70.5552Z" fill="white" fill-opacity="0.5" stroke="url(#paint1_linear_120_58)"/>
</g>
<defs>
<filter id="filter0_b_120_58" x="-100" y="-100" width="301.163" height="287" filterUnits="userSpaceOnUse" color-interpolation-filters="sRGB">
<feFlood flood-opacity="0" result="BackgroundImageFix"/>
<feGaussianBlur in="BackgroundImage" stdDeviation="50"/>
<feComposite in2="SourceAlpha" operator="in" result="effect1_backgroundBlur_120_58"/>
<feBlend mode="normal" in="SourceGraphic" in2="effect1_backgroundBlur_120_58" result="shape"/>
</filter>
<linearGradient id="paint0_linear_120_58" x1="50.5814" y1="0" x2="65.5" y2="27" gradientUnits="userSpaceOnUse">
<stop stop-color="#FFDCAE"/>
<stop offset="0.967298" stop-color="#FFE9CC" stop-opacity="0.37"/>
</linearGradient>
<linearGradient id="paint1_linear_120_58" x1="16" y1="35" x2="93.5" y2="87" gradientUnits="userSpaceOnUse">
<stop stop-color="#FFD398"/>
<stop offset="1" stop-color="#FFE9CC" stop-opacity="0.08"/>
</linearGradient>
</defs>
</svg>
