<svg width="130" height="127" viewBox="0 0 130 127" fill="none" xmlns="http://www.w3.org/2000/svg">
<path fill-rule="evenodd" clip-rule="evenodd" d="M120.278 68.5477C120.036 68.352 119.861 68.1211 119.771 68.1503C118.217 68.6523 116.683 69.2121 115.127 69.7064C113.758 70.1421 112.455 70.7462 111.104 71.2253C110.376 71.484 109.621 71.6657 108.886 71.9075C108.343 72.087 107.804 72.4913 107.278 72.4659C106.534 72.4304 106.187 73.0626 105.523 73.1822C104.454 73.3736 103.446 73.8929 102.405 74.2515C100.724 74.8307 99.0343 75.382 97.3553 75.9647C96.381 76.3023 95.3514 76.5224 94.5279 77.2568C94.9446 77.2732 95.3544 77.2309 95.7336 77.1008C96.8652 76.7125 97.9811 76.279 99.1104 75.8837C99.6577 75.6922 100.225 75.5599 100.777 75.3791C101.369 75.1848 101.953 74.9669 102.54 74.7591C103.128 74.5513 103.709 74.3224 104.304 74.1403C105.541 73.761 106.781 73.3922 107.942 72.8042C108.112 72.7182 108.299 72.6684 108.479 72.6025C109.422 72.2565 110.478 72.2194 111.315 71.5755C111.426 71.4909 111.575 71.3882 111.697 71.3978C112.784 71.4867 113.742 70.9721 114.661 70.5838C115.612 70.1812 116.769 70.1687 117.512 69.2992C118.061 69.51 118.448 68.9167 118.861 68.9551C119.401 69.0047 119.726 68.7579 120.278 68.5477M105.221 68.5456C104.216 68.7311 103.218 68.9922 102.204 69.0887C98.4024 69.4493 94.5961 69.7715 90.7891 70.0757C89.028 70.2171 87.2868 70.6244 85.4964 70.4385C84.9466 70.3811 84.3725 70.5169 83.8152 70.6032C83.264 70.6892 82.7383 70.3006 82.1233 70.7236C81.7652 70.9704 81.0772 70.714 80.5393 70.7288C79.6432 70.7527 78.7297 70.7713 77.8547 70.8435C75.6491 71.0252 73.4117 70.7249 71.2328 71.261C71.1343 71.2858 71.0044 71.3287 70.9306 71.2879C70.2862 70.9266 69.6446 71.2983 69.0034 71.281C68.363 71.2636 67.7203 71.2429 67.0802 71.2664C65.7756 71.314 64.4659 71.489 63.1681 71.4187C62.3084 71.3726 61.473 71.5081 60.631 71.4859C58.6046 71.4327 56.5831 71.3763 54.5531 71.446C53.7637 71.4727 52.9365 71.607 52.1782 71.4788C50.7582 71.2384 49.3449 71.4166 47.931 71.33C45.9642 71.2096 43.9807 71.3583 42.0147 71.2314C40.1628 71.1118 38.3104 71.0689 36.4594 70.974C34.8068 70.8881 33.1565 70.7733 31.5046 70.6712C30.0971 70.584 28.6891 70.4919 27.281 70.4144C27.0606 70.4022 26.8375 70.4562 26.5985 70.4813C26.6449 70.6285 26.6545 70.7126 26.6745 70.7157C27.4381 70.8125 28.2058 70.9955 28.9653 70.9662C29.7025 70.9385 30.3866 71.5934 31.1349 71.099C32.6898 71.1908 34.2446 71.2899 35.7999 71.3741C37.4568 71.4628 39.1132 71.5621 40.7714 71.6105C42.1532 71.6515 43.5496 71.5148 44.9183 71.6571C46.873 71.8606 48.8276 71.8069 50.7811 71.8649C52.4181 71.9136 54.0622 71.758 55.6981 71.8189C57.6748 71.8921 59.6466 71.9417 61.6226 71.8392C62.5682 71.79 63.5281 71.6782 64.4616 71.7804C65.7524 71.9221 67.0277 71.725 68.3116 71.7747C69.3074 71.8133 70.3086 71.6973 71.3055 71.7193C71.4792 71.7227 71.6466 72.0704 71.8939 72.3454C72.0357 71.8697 72.5228 71.5669 72.9055 71.7743C73.6873 72.1982 74.4518 71.8229 75.2157 71.9156C75.5177 71.9525 75.8615 71.6141 76.1703 71.6391C77.5069 71.7466 78.8401 71.8028 80.1706 71.6272C80.6005 71.5708 81.0145 71.3089 81.4376 71.3058C82.1574 71.3004 82.9668 71.6616 83.5771 71.4345C84.3128 71.1601 85.0791 71.4356 85.7683 71.0698C85.9302 70.9837 86.225 71.1875 86.4567 71.1812C86.714 71.1739 87.0915 70.9435 87.2025 71.0451C87.6289 71.4361 88.1315 71.3303 88.4912 71.1661C88.966 70.9492 89.513 70.7079 89.9073 70.8732C90.5253 71.1325 90.8856 70.5359 91.4339 70.6545C92.1005 70.7992 92.7985 70.6548 93.4794 70.6446C94.2091 70.6341 94.9302 70.3268 95.6649 70.2375C97.4989 70.0143 99.3386 69.8414 101.176 69.6483C101.941 69.5678 102.709 69.504 103.471 69.4014C104.125 69.3139 104.744 69.1164 105.221 68.5456M97.0797 77.6496C97.5821 78.4167 98.1987 78.4752 98.7545 78.4131C99.2563 78.3568 99.7165 77.9159 100.262 78.282C100.665 77.7086 101.275 78.2791 101.714 78.0291C102.256 77.7196 102.673 78.2999 103.174 78.1686C103.27 77.7394 103.27 77.7394 104.561 77.6118C105.399 77.5281 105.399 77.5281 106.118 77.8901C106.332 77.705 106.549 77.5181 106.793 77.3074C106.827 77.5189 106.851 77.6629 106.915 78.0576C107.099 77.6276 107.198 77.3953 107.327 77.0939C107.676 77.3583 108.296 77.2907 108.528 77.929C108.55 77.9893 109.079 77.865 109.459 77.8159C109.337 78.4556 109.226 79.0396 109.103 79.6919C108.162 80.0934 107.151 80.4104 106.064 80.5326C104.972 80.6558 103.898 80.9461 102.806 81.0633C101.816 81.1705 100.812 81.1589 99.8133 81.1707C98.8622 81.1828 97.927 81.595 96.9638 81.2856C95.3505 82.0363 93.6635 81.1183 92.0062 81.5181C91.1415 81.7266 90.179 81.4898 89.3131 81.1706C88.9524 81.0383 88.6478 80.7525 88.3176 80.5359L87.6787 78.7408C87.6562 78.6493 87.6313 78.5579 87.6104 78.4654C87.3031 77.1074 87.2836 77.075 88.3899 76.4157C89.0803 76.0044 89.8396 75.709 90.5826 75.3548C90.8546 75.5526 91.1337 75.756 91.5078 76.0278C91.5121 75.809 91.4749 75.6692 91.5239 75.5737C91.8557 74.9272 92.2456 74.3444 93.1109 74.4365C93.5838 73.6812 94.5217 73.8908 95.1641 73.4457C95.7821 73.0171 96.5022 72.7359 97.179 72.3934C97.3498 72.3073 97.5276 72.2348 97.7177 72.1498C97.6044 71.591 97.1746 71.5952 96.6898 71.6486C94.9056 71.8453 93.1186 72.0239 91.3336 72.2163C89.8509 72.3762 88.3678 72.4253 86.877 72.3396C86.5714 72.3223 86.2578 72.5347 85.9427 72.5534C84.8443 72.6198 83.7437 72.6605 82.6435 72.687C81.5938 72.7122 80.5706 73.0923 79.49 72.8274C79.0681 72.724 78.5684 72.9788 78.1218 72.923C77.7379 72.8751 77.4236 72.9699 77.0683 73.0193C76.246 73.1342 75.3803 73.1421 74.5625 73.0065C74.1492 72.9384 73.6218 73.5036 73.3114 72.8294C72.8422 72.9405 72.378 73.0949 71.9026 73.1545C70.3701 73.3472 68.8333 73.3093 67.2924 73.2244C66.3493 73.1718 65.3992 73.2624 64.452 73.2893C62.5584 73.3423 60.6642 73.4326 58.7697 73.4391C56.2575 73.4486 53.7444 73.4089 51.2325 73.3607C49.0768 73.3184 46.9146 73.318 44.7673 73.1496C41.6099 72.9011 38.4424 72.9627 35.2819 72.6812C32.821 72.4622 30.3438 72.2626 27.8797 72.1616C25.2987 72.056 22.7466 71.7058 20.174 71.5692C18.503 71.4799 16.849 71.1051 15.18 70.9361C13.7447 70.79 12.3301 70.5016 10.8937 70.3764C10.7164 70.3614 10.543 70.2965 10.361 70.253C10.5018 69.4002 11.1247 69.4615 11.6548 69.4339C12.1502 69.4087 12.6492 69.4635 13.5056 69.4967C12.4044 68.8446 11.5172 68.9615 10.6888 68.8965C10.2299 68.8604 9.91571 68.8 9.7181 68.2717C9.92947 68.1748 10.1381 68.0786 10.3678 67.9726C10.0856 67.6025 9.77519 67.1957 9.42737 66.7389C9.75909 66.5652 10.0604 66.5026 10.1125 66.3539C10.171 66.1848 10.0062 65.938 9.93258 65.7069C10.2847 65.525 10.8334 65.758 11.0759 65.2324C11.1112 65.1556 11.4213 65.1118 11.4297 65.131C11.7495 65.8447 12.2689 65.0777 12.7126 65.2931C12.9765 65.4211 13.4953 65.7519 13.9055 65.2749C13.9585 65.214 14.4366 65.6273 14.6523 65.5709C14.9197 65.4999 15.1164 65.195 15.3978 65.5463C15.4575 65.6215 15.6129 65.7292 15.6316 65.7124C16.4717 64.9988 17.1637 65.8781 17.928 65.9101C18.326 65.9273 18.7646 66.2091 19.1254 65.7967C19.6139 66.3013 20.1469 65.2206 20.5699 65.8006C20.9774 66.3594 21.6288 65.3434 21.9872 66.0847C22.0118 66.1351 22.5745 65.9094 22.8934 65.8394C23.2755 65.7559 23.5857 66.5918 24.0237 65.9353C24.4245 66.0834 24.8756 66.1596 25.2156 66.3964C25.7396 66.7612 26.1178 66.7166 26.5052 66.2328C26.5826 66.1363 26.7801 66.0566 26.8949 66.0835C27.2165 66.1608 27.5219 66.3828 27.8358 66.3863C28.1541 66.3906 28.6877 66.0339 28.7586 66.124C29.3059 66.8214 29.857 65.9471 30.4298 66.2148C30.5268 66.4278 30.6442 66.6856 30.8121 67.0532C31.9067 66.3401 33.1881 66.897 34.3218 66.3994C34.6379 66.2602 34.9929 66.2847 35.2967 66.5975C35.9166 67.2339 36.5771 67.3467 37.264 66.65C37.3844 66.5274 37.7039 66.4091 37.7898 66.4744C38.637 67.119 39.5251 66.1828 40.413 66.5888C40.8553 66.7907 41.5065 66.2888 41.9723 66.8447C42.003 66.8812 42.2097 66.7587 42.3391 66.7263C42.5772 66.6655 42.8658 66.6814 43.0498 66.5492C43.5709 66.1766 43.7497 67.1022 44.2723 66.8129C44.603 66.6296 45.0273 66.5722 45.4151 66.5463C45.8483 66.5172 46.2943 66.6445 46.723 66.5986C47.1997 66.5481 47.5622 66.732 47.9845 66.8742C48.3277 66.9895 48.9608 66.4562 49.2049 66.6139C49.8591 67.0376 50.3955 66.604 50.9769 66.6063C51.6177 66.608 52.2587 66.6245 52.9 66.6193C53.3383 66.6162 53.7975 66.4062 54.1857 66.8237C54.2346 66.8764 54.4932 66.6906 54.6555 66.6884C55.2831 66.6795 55.9257 66.2286 56.5482 66.7596C56.6284 66.8282 56.8638 66.7 57.0295 66.6882C58.4764 66.5851 59.9231 66.4876 61.3696 66.3885C61.8802 67.0192 62.4316 66.435 62.9598 66.4313C64.0095 66.4249 65.0582 66.3633 66.1074 66.3333C66.1962 66.3304 66.2911 66.3818 66.3757 66.4227C67.6518 67.0399 67.6515 67.0403 68.9611 66.9183C69.2975 67.312 69.5716 67.8624 70.0048 68.0584C70.3028 68.1937 70.8224 67.8373 71.2044 67.4812C70.7476 67.4265 70.2895 67.3715 69.4533 67.2712C70.0659 66.9515 70.5311 67.0973 70.6684 66.9135C70.9628 66.5185 71.186 66.8663 71.4374 66.8527C73.2532 66.7542 75.0658 66.6058 76.8814 66.5246C77.3536 66.5038 77.8699 65.9057 78.3182 66.5774C79.0654 66.3508 79.9816 66.763 80.5823 65.9791C80.6106 65.9424 80.6569 65.8942 80.695 65.8938C81.7341 65.8861 82.7725 65.8837 83.8117 65.8805C84.1721 66.3495 84.6525 66.1248 85.0852 66.0793C86.8938 65.8892 88.7071 65.7436 90.4885 65.3216C91.0339 65.1916 91.6888 64.9229 92.2044 65.5249C92.2647 65.5949 92.5131 65.5599 92.6415 65.5019C92.9849 65.3442 93.2992 65.035 93.6477 64.9984C93.9963 64.9618 94.4017 65.3293 94.7293 65.2612C95.5762 65.0863 96.414 64.8204 97.2165 64.4941C97.9648 64.1898 99.1315 64.1439 99.9292 64.5429L100.523 63.8094C101.607 63.657 102.726 63.6878 103.826 63.4795C104.931 63.2703 106.068 63.1194 107.188 63.1394C108.03 63.1549 108.812 63.2392 109.507 62.6533C109.604 62.5708 109.806 62.6162 109.958 62.595C112.012 62.3069 114.068 62.0297 116.12 61.7246C117.454 61.5263 118.762 61.1749 120.113 61.0781C120.28 61.0658 120.435 60.8902 120.586 60.7952L121.338 61.4038C121.551 61.3079 121.803 61.2517 121.977 61.1046C122.488 60.676 122.977 60.5143 123.69 60.6821C124.566 60.8883 124.589 60.7827 124.861 61.6218C124.905 61.7569 124.972 61.8847 125.03 62.0155C125.227 62.466 125.984 61.9698 126.067 62.6426C126.13 63.1529 126.495 63.1884 126.945 63.2467C127.393 63.3048 127.441 63.5421 127.569 64.5171C127.341 64.7362 127.158 64.9112 126.975 65.0861C127.128 65.1764 127.272 65.3158 127.435 65.3432C127.63 65.3761 127.841 65.3133 128.052 65.2912C128.063 65.3731 128.112 65.4748 128.08 65.5351C127.809 66.05 127.627 66.6764 127.212 67.0318C126.845 67.3478 126.193 67.3072 125.707 67.5183C123.999 68.2606 122.296 69.0114 120.522 69.5881C119.561 69.9006 118.677 70.4265 117.647 70.5653C117.347 70.6061 117.094 71.0014 116.794 71.0411C116.498 71.081 116.163 70.7694 115.933 71.2295C115.882 71.3303 115.694 71.3779 115.558 71.4173C114.359 71.7686 113.208 72.2769 112.018 72.6267C111.087 72.9004 110.193 73.2499 109.293 73.5878C108.125 74.0256 106.864 74.2047 105.773 74.8548C105.733 74.8786 105.672 74.8734 105.622 74.8719C105.199 74.8589 104.778 74.843 104.355 74.8279C104.274 75.4056 103.814 75.4423 103.374 75.5576C102.961 75.6656 102.582 75.927 102.167 76.0019C100.917 76.2273 99.7806 76.789 98.5779 77.1486C98.1213 77.2844 97.6744 77.4498 97.0797 77.6496" fill="#F7991C"/>
<path fill-rule="evenodd" clip-rule="evenodd" d="M44.7139 52.0486C43.377 52.1522 42.0229 52.435 40.7113 52.2983C39.8259 52.206 38.9554 52.3131 38.0803 52.2546C35.8324 52.1027 33.5651 52.095 31.312 52.0878C29.388 52.0813 27.4678 51.9544 25.5441 51.9619C23.644 51.969 21.7302 51.8988 19.8502 51.6541C19.1764 51.5668 18.4955 51.5986 17.8296 51.5337C16.3787 51.3924 14.9111 51.2906 13.4444 51.2782C12.4683 51.27 11.5059 50.9803 10.5155 51.1422C10.2961 51.1781 10.0059 51.1239 9.8266 50.999C8.55602 50.1103 7.08394 50.5504 5.71299 50.3678C4.64973 50.2259 3.5555 50.3277 2.48432 50.2287C1.92904 50.1771 1.35239 49.9985 0.861927 49.735C0.573155 49.5803 0.433616 49.1463 0.201784 48.8002C0.567231 48.7068 0.878885 48.6171 1.19534 48.5501C1.3567 48.5159 1.52628 48.5217 1.69245 48.5103L3.19871 48.5177C3.5843 48.2837 3.96261 48.2516 4.27363 48.6255C4.61589 49.037 4.90298 48.095 5.30314 48.6297C5.58154 49.0026 5.96565 48.7202 6.35311 48.5879C6.78288 48.442 7.32218 48.5134 7.79045 48.6078C9.14562 48.8808 10.5187 48.7433 11.8782 48.775C12.3649 48.7857 12.801 49.5855 13.3143 48.8906C13.7888 49.2124 14.4665 48.7522 14.7429 48.9949C15.4345 49.6029 16.071 48.8393 16.7857 49.1201C17.4058 49.3644 18.2312 49.0501 18.9918 49.1459C20.0562 49.2793 21.1439 49.2071 22.2164 49.2919C23.7317 49.412 25.241 49.5475 26.7654 49.4563C27.6018 49.4066 28.4435 49.4453 29.2823 49.4607C29.7746 49.47 30.2653 49.5107 30.7073 49.5345C30.7925 49.6391 30.9191 49.8775 30.9836 49.8614C33.3058 49.2991 35.6376 49.5698 37.9674 49.7568C38.86 49.8287 39.7256 49.5643 40.6475 49.6978C41.67 49.8452 42.7399 49.6758 43.788 49.6238C44.4308 49.5924 45.0696 49.3535 45.6292 49.9773C45.8406 50.2132 46.2262 50.0511 46.5601 49.8145C46.9713 49.522 47.5158 49.4299 48.0392 49.6205C48.7245 49.8704 49.3783 49.8209 50.0964 49.6535C50.9609 49.4515 51.8636 49.398 52.7804 49.5368C53.61 49.6623 54.4563 49.1572 55.3158 49.5023C55.4419 49.5529 55.6178 49.4738 55.7709 49.4641C57.4829 49.3556 59.1944 49.1886 60.9075 49.1558C63.8808 49.099 66.8407 48.873 69.806 48.6978C71.2615 48.6118 72.7178 48.4953 74.1744 48.4124C74.6597 48.3855 75.2173 48.6046 75.6203 48.4298C76.1086 48.218 76.5005 48.2506 76.9913 48.2914C77.4892 48.3321 77.9675 48.2923 78.4042 48.8813C78.3787 48.52 78.3719 48.4208 78.3592 48.2427C79.0877 48.2777 79.8085 48.3115 80.5395 48.3471C80.5353 48.25 80.5283 48.107 80.5228 47.99C80.8976 48.0116 81.3004 47.9681 81.6602 48.0736C82.0222 48.18 82.3411 48.4339 82.9002 48.7472C82.7315 48.3186 82.6244 48.0481 82.4869 47.6985C83.1882 47.8451 83.6893 47.9494 84.233 48.0628C84.264 48.2928 84.3026 48.5805 84.3425 48.8685C84.5466 48.847 84.7506 48.8256 84.9848 48.801C84.8818 48.5882 84.7838 48.3854 84.669 48.1486C84.7991 48.0687 84.9127 47.9697 85.0444 47.9246C85.3198 47.8294 85.6273 47.8067 85.8817 47.6764C86.4159 47.4015 86.4033 47.3884 87.3403 47.67C87.4758 47.7108 87.6552 47.6759 87.7951 47.6242C88.3027 47.4368 88.9179 47.3633 89.1739 47.4849C89.2187 47.3345 89.2344 47.0756 89.3133 47.0545C89.5098 47.0029 89.7633 47.1312 89.9432 47.0597C90.7053 46.7581 91.4381 46.2067 92.2487 46.943C92.7723 46.8149 93.3057 46.5554 93.8171 46.594C94.3972 46.6373 94.6683 45.8567 94.9439 46.0421C95.5689 46.4632 95.5783 45.743 95.9043 45.6831C96.6813 45.5954 96.329 46.9741 97.2845 46.7441C96.3641 47.5452 95.3065 48.0914 94.1332 48.254C92.5519 48.472 91.0146 48.8644 89.4579 49.1749C87.9051 49.4842 86.3 49.5297 84.7203 49.7097C84.225 49.7662 83.7361 49.881 83.2441 49.9692C82.6274 49.7603 82.0007 49.7323 81.3585 49.8347C80.9555 49.8991 80.5359 49.9974 80.141 49.9478C79.7118 49.893 79.4737 50.449 78.9167 50.1411C78.5494 49.9381 77.9261 50.228 77.4166 50.2454C76.931 50.2611 76.4345 50.1423 75.9595 50.2059C75.4585 50.273 74.9966 50.4532 74.4527 50.3723C73.9625 50.2986 73.4016 50.3543 72.9383 50.5282C72.183 50.8115 71.4006 50.73 70.6692 50.6905C70.0722 50.6581 69.4902 50.688 68.9013 50.7101C68.3976 50.7293 67.9036 50.8748 67.4089 50.934C66.8785 50.997 66.4536 50.9028 65.9623 50.8448C65.3488 50.7737 64.6991 51.0531 64.0598 51.1455C63.6395 51.2062 63.1094 51.371 62.8098 51.1902C62.3972 50.941 62.0386 51.0806 61.6634 51.0165C61.1724 50.9313 60.8034 51.5251 60.3043 51.2031C59.7515 51.7127 59.2687 51.0145 58.7253 51.1142C57.9436 51.257 57.1511 51.3387 56.3511 51.4484C56.347 51.3557 56.3425 51.2555 56.336 51.0948C55.6309 51.2371 54.9461 51.377 54.2597 51.5105C54.1335 51.5354 53.9346 51.59 53.8822 51.5309C53.502 51.1025 53.0397 51.3201 52.603 51.3274C52.0644 51.3359 51.5485 51.4106 50.9828 51.3243C50.0637 51.1837 49.0861 51.2411 48.1607 51.3881C47.4552 51.4996 46.8132 51.5426 46.1054 51.3842C45.5748 51.2654 44.978 51.4112 44.7139 52.0486Z" fill="#F7991C"/>
<path fill-rule="evenodd" clip-rule="evenodd" d="M44.7138 52.0487C44.978 51.4113 45.5747 51.2655 46.1053 51.3843C46.8131 51.5427 47.4552 51.4997 48.1607 51.3882C49.086 51.2412 50.0637 51.1838 50.9827 51.3244C51.5485 51.4107 52.0644 51.336 52.6029 51.3275C53.0396 51.3202 53.502 51.1026 53.8822 51.531C53.9345 51.5901 54.1335 51.5355 54.2597 51.5106C54.946 51.3771 55.6309 51.2372 56.336 51.0949C56.3424 51.2556 56.3469 51.3558 56.3511 51.4485C57.1511 51.3388 57.9436 51.2571 58.7253 51.1143C59.2687 51.0146 59.7514 51.7128 60.3043 51.2032C60.8033 51.5252 61.1724 50.9314 61.6633 51.0166C62.0385 51.0807 62.3971 50.9411 62.8098 51.1903C63.1094 51.3711 63.6395 51.2063 64.0597 51.1456C64.699 51.0532 65.3487 50.7738 65.9623 50.8449C66.4536 50.9029 66.8785 50.9971 67.4089 50.9341C67.9036 50.8749 68.3976 50.7294 68.9013 50.7102C69.4901 50.6881 70.0722 50.6582 70.6692 50.6906C71.4006 50.7301 72.183 50.8116 72.9383 50.5283C73.4016 50.3544 73.9625 50.2987 74.4526 50.3724C74.9965 50.4533 75.4584 50.2731 75.9595 50.206C76.4344 50.1424 76.931 50.2612 77.4165 50.2455C77.926 50.2281 78.5494 49.9382 78.9167 50.1412C79.4736 50.4491 79.7118 49.8931 80.141 49.9479C80.5359 49.9975 80.9554 49.8992 81.3584 49.8348C82.0007 49.7324 82.6273 49.7604 83.2441 49.9693C83.032 50.1739 82.8437 50.5095 82.6016 50.5546C82.1843 50.6322 81.7277 50.4731 81.2982 50.5182C80.869 50.5629 80.4598 50.793 80.0302 50.8381C79.6007 50.8833 79.1361 50.7009 78.7263 50.7926C77.72 51.0171 76.6977 50.9745 75.6871 51.0895C74.6171 51.2116 73.5471 51.3417 72.4737 51.424C70.6099 51.5665 68.7416 51.7918 66.8794 51.7575C65.6604 51.7344 64.4696 51.9859 63.2743 51.9362C61.041 51.8434 58.8214 52.159 56.5862 52.0282C55.3407 51.9553 54.0818 52.1285 52.8285 52.1792C50.9566 52.2555 49.0865 52.2767 47.213 52.1316C46.6096 52.0847 45.9918 52.2708 45.378 52.2924C45.1597 52.3001 44.9348 52.1347 44.7138 52.0487Z" fill="#F7991C"/>
</svg>
