<svg width="265" height="70" viewBox="0 0 265 70" fill="none" xmlns="http://www.w3.org/2000/svg">
<path fill-rule="evenodd" clip-rule="evenodd" d="M110.114 0.612112C109.736 0.965322 109.429 1.00297 109.066 0.739769C108.356 0.225552 105.211 1.5803 104.708 2.61662C104.421 3.20722 104.388 3.05733 104.577 2.02244L104.83 0.638289L103.03 0.913685C100.398 1.31674 99.635 1.36013 99.1824 1.13242C98.5983 0.83874 95.9741 1.08294 95.4171 1.48277C95.1066 1.70581 94.8815 1.66385 94.7628 1.35977C94.6174 0.987913 94.3147 0.982534 93.2303 1.3318C92.309 1.62835 91.6379 1.65417 91.1216 1.4132C90.5441 1.14318 90.1666 1.23211 89.5296 1.78828C88.835 2.39466 88.4009 2.47391 86.953 2.26019C85.9951 2.11854 85.0266 2.05651 84.8007 2.12213C84.5748 2.18739 83.3734 2.29067 82.1309 2.35127C78.5402 2.52662 78.4342 2.54024 78.4342 2.82891C78.4342 2.97987 77.8518 3.02828 77.1396 2.9372C75.9821 2.78875 75.8692 2.85257 76.0741 3.53712C76.2282 4.05134 76.1136 4.30307 75.7258 4.30307C75.4083 4.30307 75.1483 4.06102 75.1483 3.76518C75.1483 3.4066 74.7376 3.2273 73.9161 3.2273C73.2043 3.2273 72.6839 3.41664 72.6839 3.67554C72.6835 3.95237 72.0477 4.14206 71.02 4.17182C69.1269 4.22633 68.5276 4.54727 69.4099 5.03423C69.819 5.26014 69.8486 5.36951 69.5007 5.37346C69.2185 5.37633 68.9872 5.62088 68.9872 5.91672C68.9872 6.21255 68.71 6.4546 68.3711 6.4546C68.0323 6.4546 67.755 6.21255 67.755 5.91672C67.755 5.62088 67.9398 5.37883 68.1658 5.37883C68.3917 5.37883 68.5765 5.21747 68.5765 5.02025C68.5765 4.47949 67.4638 4.58994 67.2153 5.15508C67.0831 5.45557 66.6144 5.58467 66.0176 5.48498C65.1115 5.33401 65.0499 5.4172 65.2056 6.58083C65.3657 7.77815 66.3823 8.61654 66.9007 7.97861C67.0317 7.8176 67.6474 7.65731 68.2684 7.62288C68.8895 7.58846 69.6292 7.54184 69.9114 7.51925C70.194 7.49666 70.8405 7.58954 71.349 7.72544C72.039 7.91011 72.2732 7.828 72.2732 7.40164C72.2732 6.93726 72.4691 6.89603 73.3267 7.18075C74.9122 7.7068 76.3806 7.61643 76.3806 6.99249C76.3806 6.65792 76.7683 6.4546 77.4074 6.4546C78.0075 6.4546 78.4342 6.66079 78.4342 6.95017C78.4342 7.62934 81.6836 7.67237 81.9802 6.99715C82.0985 6.72821 82.6891 6.51664 83.2925 6.52668C85.3827 6.56182 85.8276 6.45209 85.8276 5.90094C85.8276 5.5965 86.0588 5.37346 86.341 5.40573C86.6236 5.43764 87.2767 5.44482 87.793 5.42115C88.5968 5.38493 88.6691 5.277 88.2969 4.6699C87.9425 4.09114 87.9774 3.99934 88.4879 4.17003C88.8321 4.2855 89.1135 4.60464 89.1135 4.87932C89.1135 5.154 89.371 5.37883 89.6856 5.37883C90.0003 5.37883 90.363 5.61837 90.4919 5.91098C90.8353 6.69271 95.7888 6.48508 96.9171 5.64168C97.785 4.99299 98.7733 4.78824 98.3843 5.33796C98.2607 5.51259 98.6237 5.73276 99.1914 5.82779C99.7586 5.92246 100.324 5.85755 100.447 5.68364C100.57 5.50936 100.843 5.45988 101.053 5.57355C101.264 5.68686 101.436 5.60869 101.436 5.39999C101.436 5.19129 101.816 5.02025 102.281 5.02025C102.746 5.02025 103.013 5.18161 102.873 5.37883C102.717 5.59937 103.3 5.71663 104.389 5.68364C105.57 5.64778 105.791 5.58072 105.052 5.48247C104.263 5.3774 104.014 5.17802 104.185 4.78896C104.317 4.48882 104.538 4.37765 104.676 4.54189C105.065 5.00483 106.698 5.73742 107.343 5.73742C107.661 5.73742 108.772 5.03567 109.813 4.17756C111.108 3.10968 111.704 2.80273 111.704 3.20399C111.704 3.52601 111.146 4.07752 110.465 4.42893C109.069 5.14862 109.187 5.73742 110.726 5.73742C111.383 5.73742 111.65 5.59184 111.467 5.33365C111.262 5.04427 111.388 5.031 111.912 5.28668C112.836 5.7385 114.169 5.45055 114.169 4.799C114.169 4.52647 114.353 4.30307 114.579 4.30307C114.805 4.30307 114.99 4.51822 114.99 4.78107C114.99 5.53124 119.828 5.44553 120.06 4.69142C120.204 4.22346 120.243 4.23386 120.282 4.7513C120.337 5.47422 121.171 5.57678 121.891 4.94853C122.264 4.62221 122.383 4.62042 122.383 4.941C122.383 5.41003 129.597 5.38959 130.461 4.91841C130.723 4.77461 131.033 4.85996 131.148 5.10774C131.308 5.45163 131.455 5.43513 131.772 5.03746C132 4.75095 132.097 4.38985 131.987 4.23458C131.878 4.07967 132.074 4.04883 132.425 4.16609C132.776 4.2837 133.063 4.56986 133.063 4.80258C133.063 5.2648 133.847 5.37023 136.965 5.3272C138.094 5.31142 140.497 5.33545 142.304 5.38027C148.061 5.52335 148.416 5.50649 148.578 5.08336C148.688 4.79541 148.925 4.83199 149.349 5.20277C150.122 5.87763 152.666 5.89162 154.477 5.23074C155.674 4.79434 155.976 4.79434 156.66 5.23074C157.63 5.85038 158.477 5.90739 157.789 5.30712C157.118 4.72154 157.17 4.30307 157.912 4.30307C158.251 4.30307 158.529 4.54512 158.529 4.84095C158.529 5.13679 158.852 5.3921 159.247 5.40788C159.642 5.42402 160.521 5.47529 161.198 5.52191C161.876 5.56853 162.566 5.43442 162.732 5.22392C162.934 4.96789 163.036 4.98941 163.04 5.28919C163.044 5.5359 163.462 5.73491 163.971 5.73205C164.614 5.7281 164.733 5.63666 164.362 5.43119C163.934 5.19416 163.948 5.05001 164.436 4.69644C164.931 4.33821 165.125 4.39128 165.489 4.98367C165.755 5.41864 166.181 5.62806 166.549 5.5047C166.888 5.39139 167.393 5.46239 167.673 5.66248C168.5 6.25451 169.854 6.31045 170.582 5.78296C171.024 5.46346 171.261 5.43191 171.261 5.69368C171.261 6.12075 172.589 6.252 173.028 5.86831C173.619 5.3523 176.565 5.38601 176.903 5.91277C177.26 6.47038 179.019 6.62457 181.647 6.32874C182.503 6.23228 183.75 6.29073 184.42 6.45819C185.089 6.62601 185.637 6.63318 185.637 6.47432C185.637 6.31547 186.099 6.18566 186.664 6.18566C187.229 6.18566 187.691 6.38862 187.691 6.63677C187.691 7.17572 189.238 7.60245 189.424 7.11476C189.495 6.92794 190.244 6.63927 191.087 6.47325C192.463 6.20251 192.62 6.24554 192.62 6.891C192.62 7.5275 192.797 7.58129 194.16 7.35896C195.008 7.22091 195.557 7.23382 195.382 7.38765C194.922 7.79286 197.655 8.53729 198.231 8.16364C198.51 7.98255 198.818 8.01016 198.974 8.22998C199.12 8.43688 199.938 8.60614 200.79 8.60614C201.643 8.60614 202.474 8.72232 202.637 8.86432C203.097 9.26594 207.14 9.27419 207.715 8.87508C208.083 8.61869 208.228 8.68718 208.228 9.11784C208.228 9.59727 208.619 9.71274 210.179 9.69374C211.252 9.68047 212.751 9.77406 213.511 9.90172C214.403 10.0516 214.999 9.98097 215.196 9.70198C215.431 9.37101 215.636 9.38212 216.075 9.74932C216.908 10.4453 218.779 11.1084 219.106 10.8233C219.616 10.3772 221.344 10.5364 221.57 11.0506C221.745 11.4483 221.918 11.4644 222.385 11.1259C222.978 10.6967 224.012 10.9362 223.668 11.4225C223.508 11.648 224.667 11.6979 226.198 11.5308C226.48 11.4999 226.726 11.1923 226.744 10.8473C226.77 10.3457 226.824 10.3277 227.016 10.7577C227.148 11.0535 227.531 11.4727 227.868 11.6893C228.204 11.9059 228.359 12.2541 228.211 12.4628C228.045 12.6976 228.24 12.7744 228.726 12.6636C229.156 12.5653 230.181 12.7633 231.002 13.1032C231.823 13.4435 233.412 13.7221 234.532 13.7221C235.652 13.7221 236.569 13.862 236.569 14.0327C236.569 14.2037 236.846 14.3436 237.185 14.3436C237.524 14.3436 237.801 14.165 237.801 13.9466C237.801 13.7282 238.079 13.6425 238.417 13.7562C238.756 13.8695 239.033 13.806 239.033 13.6153C239.033 13.0448 240.158 13.2223 240.427 13.8351C240.796 14.6735 240.769 14.7021 239.62 14.7021C238.617 14.7021 238.599 14.733 239.279 15.3265C239.789 15.7711 240.043 15.8238 240.163 15.5093C240.278 15.2092 240.764 15.3559 241.682 15.9676C242.537 16.5367 243.295 16.7795 243.745 16.6288C244.166 16.4879 244.601 16.5948 244.812 16.891C245.007 17.1664 245.497 17.3919 245.9 17.3919C246.303 17.3923 246.655 17.5942 246.684 17.8402C246.712 18.0865 246.758 18.4236 246.786 18.5889C246.93 19.4298 250.534 20.0982 250.534 19.2838C250.534 19.0429 250.822 19.2046 251.174 19.6431C251.526 20.0821 251.713 20.5837 251.589 20.758C251.29 21.1811 252.121 21.7205 253.524 22.0131C254.203 22.1551 255.117 22.822 255.783 23.6626C256.398 24.4389 257.128 25.0801 257.406 25.0876C257.684 25.0951 258.038 25.5394 258.192 26.0755C258.346 26.6112 258.813 27.3686 259.229 27.7587C259.743 28.2403 259.889 28.7047 259.685 29.2053C259.519 29.6105 259.424 30.578 259.473 31.3547C259.523 32.1317 259.288 33.1343 258.951 33.5833C258.614 34.0322 258.338 34.6469 258.338 34.9499C258.338 35.2525 258.153 35.4598 257.927 35.4107C257.7 35.3612 257.281 35.7244 256.996 36.2175C256.709 36.7105 256.063 37.2732 255.558 37.4679C255.054 37.6626 254.642 38.0983 254.642 38.4361C254.642 38.7742 254.38 39.1794 254.061 39.3372C253.742 39.495 253.418 40.1082 253.342 40.6999C253.242 41.4834 252.979 41.7857 252.377 41.8122C251.291 41.8602 249.35 42.7614 248.079 43.807C247.52 44.2674 247.014 44.6085 246.954 44.5644C246.65 44.3399 242.834 45.837 242.018 46.5015C241.732 46.7338 241.498 47.1157 241.498 47.3499C241.498 47.5937 241.16 47.6988 240.708 47.5955C240.274 47.4965 239.345 47.7196 238.645 48.0918C237.944 48.4637 237.104 48.7681 236.779 48.7681C236.453 48.7681 235.503 49.2924 234.667 49.9328C233.832 50.5736 232.809 51.0473 232.394 50.986C231.863 50.9074 231.64 51.0953 231.64 51.621C231.64 52.2507 231.468 52.33 230.546 52.1277C229.64 51.9294 229.496 51.99 229.711 52.4795C229.885 52.875 229.757 53.0712 229.324 53.0712C228.918 53.0712 228.765 52.8711 228.914 52.5333C229.074 52.1675 228.892 51.9954 228.342 51.9954C227.897 51.9954 227.533 52.1299 227.533 52.2941C227.533 52.4587 227.302 52.6204 227.019 52.6541C222.505 53.1917 220.23 53.9504 220.061 54.9753C219.947 55.6713 219.875 55.6925 219.336 55.1861C218.725 54.6127 218.704 54.6145 215.141 55.5637C214.312 55.7846 212.942 56.0428 212.095 56.1371C211.249 56.2318 210.344 56.4634 210.084 56.6517C209.824 56.8399 208.515 57.0999 207.174 57.2294C205.822 57.3599 203.873 57.8666 202.797 58.3679C201.238 59.093 200.738 59.1851 200.256 58.8355C199.816 58.5174 199.434 58.5034 198.834 58.7839C198.383 58.9947 197.383 59.1672 196.612 59.1672C195.841 59.1672 194.637 59.4168 193.937 59.7219C193.153 60.0637 191.055 60.3444 188.478 60.4527C186.176 60.5495 183.973 60.778 183.583 60.9605C183.193 61.1427 181.601 61.318 180.046 61.3503C178.49 61.3825 176.473 61.6246 175.564 61.8885C174.655 62.1521 172.715 62.397 171.252 62.4329C169.389 62.4788 168.302 62.6946 167.627 63.1536C166.788 63.7227 166.584 63.7413 166.073 63.2945C165.644 62.9202 165.211 62.8703 164.484 63.1117C163.934 63.2942 162.785 63.4308 161.931 63.4154C161.076 63.4 160.192 63.4222 159.966 63.4649C159.74 63.5079 158.973 63.5154 158.262 63.4821C157.551 63.4487 156.847 63.594 156.697 63.8045C156.548 64.015 155.998 64.1874 155.474 64.1874C154.95 64.1874 154.296 64.4248 154.02 64.7153C153.606 65.1506 153.424 65.1606 152.98 64.7734C152.313 64.1907 147.607 64.3359 146.738 64.9659C146.272 65.3034 146.071 65.2937 145.807 64.92C145.554 64.5639 144.317 64.4592 140.905 64.5051C135.916 64.5722 134.301 64.9078 134.283 65.8818C134.271 66.4713 134.237 66.4688 133.824 65.8477C133.463 65.3052 133.308 65.2711 133.015 65.6684C132.73 66.0539 132.602 66.0022 132.421 65.4274C132.264 64.9304 131.802 64.6694 130.983 64.6149C130.32 64.5708 129.777 64.6773 129.777 64.8519C129.777 65.0265 129.222 65.1126 128.544 65.0437C127.867 64.9749 127.312 65.0649 127.312 65.2438C127.312 65.7089 126.054 65.8861 124.814 65.596C124.016 65.4091 123.633 65.5149 123.27 66.0227C123.004 66.3938 122.475 66.6976 122.093 66.6976C121.552 66.6976 121.507 66.6018 121.891 66.2673C122.935 65.355 122.367 65.0843 119.501 65.1294C117.916 65.1542 116.523 65.0394 116.406 64.8738C116.094 64.4327 114.236 65.2664 114.03 65.9406C113.888 66.406 113.844 66.3902 113.806 65.8592C113.763 65.2707 113.417 65.2101 110.575 65.2965C108.824 65.3496 106.982 65.5192 106.482 65.6731C105.946 65.838 105.465 65.8011 105.311 65.5838C105.167 65.3805 104.767 65.3087 104.423 65.4242C104.078 65.5397 103.588 65.4934 103.335 65.3213C102.002 64.4176 100.241 64.7361 99.6863 65.9804C99.4962 66.4078 99.4403 66.3881 99.4144 65.885C99.3914 65.4364 99.053 65.256 98.2524 65.2668C97.6314 65.2747 96.6666 65.237 96.1088 65.1825C94.9912 65.0739 94.3759 66.2127 95.2869 66.704C95.5637 66.8535 95.6636 67.1555 95.5083 67.3746C95.1008 67.9501 94.4531 67.8648 94.4531 67.2354C94.4531 66.9396 94.2617 66.6976 94.028 66.6976C93.7466 66.6976 93.7589 66.4426 94.0649 65.9434C94.5102 65.2169 94.451 65.1944 92.436 65.3159C90.8673 65.4109 90.3453 65.3195 90.3453 64.9505C90.3457 64.5536 90.2262 64.5446 89.7296 64.9046C89.3558 65.1753 89.1135 65.204 89.1135 64.9774C89.1135 64.7587 88.0493 64.602 86.5464 64.5994C85.1347 64.5969 81.9157 64.541 79.3941 64.4754C76.8722 64.4101 74.8945 64.4779 74.9996 64.6263C75.2543 64.9856 73.9506 64.5546 72.7463 63.8808C72.0468 63.49 71.5954 63.4434 71.1034 63.7112C70.7251 63.9174 70.0613 63.9569 69.6033 63.8009C68.3933 63.3881 65.3144 63.4186 63.4883 63.8615C62.2848 64.153 61.8161 64.1426 61.5869 63.8192C61.414 63.5746 60.2434 63.3681 58.8711 63.3401C56.8729 63.2996 56.3015 63.429 55.5355 64.0978C54.3859 65.1015 53.5944 65.1685 54.2844 64.2036C54.866 63.3906 54.4187 62.7778 53.7007 63.4046C52.993 64.0225 52.3658 63.9249 52.9684 63.291C53.2497 62.9951 53.4108 62.7448 53.3266 62.7348C53.2428 62.7251 52.0052 62.6272 50.5771 62.5175C48.2486 62.3385 47.8715 62.4049 46.9252 63.1629L45.87 64.0081L46.1411 63.022C46.4364 61.9477 46.4635 61.9602 43.6241 61.8552C42.6638 61.8193 41.8784 61.9376 41.8784 62.118C41.8784 62.2984 41.588 62.1922 41.2331 61.8821C40.8779 61.5722 40.2617 61.3187 39.8637 61.3187C39.4657 61.3187 39.0221 61.2154 38.8776 61.0896C38.7334 60.9634 37.9168 60.8192 37.0637 60.7694C33.1235 60.5377 30.6085 60.2003 30.105 59.8356C29.6983 59.5408 29.3849 59.562 28.8958 59.9166C28.3363 60.3218 28.154 60.2982 27.705 59.7621C27.3066 59.2866 27.121 59.2454 26.9591 59.5964C26.7899 59.9629 26.6663 59.9683 26.3849 59.6219C26.1873 59.3791 25.5963 59.2525 25.0714 59.3407C24.546 59.4293 23.083 59.1844 21.8195 58.7968C20.5565 58.4088 19.1924 58.1832 18.7891 58.2951C18.3393 58.4195 18.0531 58.3155 18.0494 58.0258C18.0444 57.678 17.9356 57.6952 17.6353 58.0914C17.2866 58.5518 17.1248 58.5153 16.5124 57.8386C16.1185 57.404 14.7339 56.6958 13.4347 56.2648C12.1355 55.8341 11.0729 55.3751 11.0729 55.2449C11.0729 55.1148 10.426 55.0739 9.63535 55.1546C8.31359 55.2894 8.19776 55.2249 8.19776 54.3564C8.19776 53.5886 7.96159 53.3706 6.93433 53.1913C6.04261 53.0357 5.3575 52.5372 4.60543 51.497C4.01931 50.6862 3.58351 49.9683 3.63691 49.9009C3.69071 49.8335 3.46686 49.5914 3.1395 49.363C2.81255 49.1346 2.42933 48.0215 2.28763 46.8902C2.06172 45.0807 2.1299 44.7788 2.85527 44.3833C3.30873 44.1362 3.67962 43.5693 3.67962 43.1236C3.67962 42.6782 3.85583 42.3135 4.07106 42.3135C4.28629 42.3135 4.76973 41.7487 5.14473 41.0584C5.51974 40.3682 6.08327 39.8034 6.39626 39.8034C6.70924 39.8034 6.96554 39.6001 6.96554 39.3519C6.96554 39.1034 7.33521 38.6986 7.78702 38.4522C8.23884 38.2059 8.6085 37.7017 8.6085 37.332C8.6085 36.9483 8.98269 36.5743 9.48091 36.4606C10.1825 36.3003 10.3016 36.0819 10.0892 35.3429C9.83127 34.4464 10.3599 34.0663 10.8676 34.7831C11.0072 34.9804 11.2754 35.1417 11.464 35.1417C11.9745 35.1417 12.352 34.0627 12.0086 33.5854C11.8443 33.3567 11.7626 32.8873 11.8279 32.542C11.8928 32.197 11.7387 31.9144 11.4853 31.9144C11.2319 31.9144 11.1354 32.0711 11.2709 32.2626C11.4065 32.4541 11.0545 32.7119 10.4885 32.836C9.92246 32.9601 9.34783 33.3681 9.21147 33.7429C9.07551 34.118 8.79169 34.4245 8.58098 34.4245C8.37027 34.4245 8.19776 34.6211 8.19776 34.8613C8.19776 35.1016 7.70611 35.6671 7.1056 36.1178C6.50469 36.5682 5.81054 37.2997 5.56328 37.7426C5.31601 38.1858 4.51753 38.7904 3.78929 39.0862C3.05982 39.3824 2.46137 39.9009 2.45644 40.2405C2.45069 40.6396 2.23012 40.7838 1.8313 40.6504C1.11661 40.4108 1.055 40.8228 1.61278 42.1044C1.9422 42.86 1.86908 43.0837 1.19054 43.4007C0.739549 43.6116 0.484069 43.944 0.622899 44.1402C0.761729 44.3359 0.639329 44.7444 0.35099 45.0477C-0.0388023 45.458 -0.0576961 45.7603 0.277878 46.2297C0.554306 46.6155 0.586754 47.0562 0.36249 47.3657C-0.136969 48.0545 -0.114378 49.8439 0.393707 49.8439C0.619613 49.8439 0.819233 50.2878 0.836895 50.83C0.854557 51.3722 0.962581 51.6146 1.07636 51.3679C1.34539 50.7866 1.95863 50.7866 1.9003 51.3679C1.82431 52.1245 3.388 54.5055 3.96098 54.5055C4.25795 54.5055 4.5011 54.7325 4.5011 55.0097C4.5011 55.3263 4.7878 55.4486 5.27042 55.3385C5.79699 55.2184 6.32356 55.5114 6.94131 56.2687C7.43707 56.8769 8.20023 57.3742 8.63643 57.3742C9.07305 57.3742 9.42998 57.6163 9.42998 57.9121C9.42998 58.208 9.70723 58.45 10.0461 58.45C10.385 58.45 10.6622 58.625 10.6622 58.8384C10.6622 59.0521 10.8934 59.1528 11.1756 59.0625C11.4582 58.9721 11.6451 58.7225 11.5913 58.5077C11.5375 58.2929 11.7687 58.2094 12.1047 58.322C12.4407 58.4346 12.7159 58.7333 12.7159 58.9854C12.7159 59.4329 15.0625 60.6015 15.9612 60.6015C16.2097 60.6015 16.4126 60.7385 16.4126 60.9056C16.4126 61.0727 16.9855 61.2237 17.6863 61.2413C18.3866 61.2585 19.289 61.5332 19.6915 61.8512C20.1827 62.2392 20.7767 62.3518 21.4983 62.1937C22.1292 62.0556 22.5737 62.1087 22.5737 62.3221C22.5737 62.5221 22.9433 62.6014 23.3951 62.4985C24.3222 62.2865 24.4725 61.8272 23.7032 61.5561C23.421 61.4568 23.6058 61.3625 24.1139 61.347C24.6483 61.3306 25.0381 61.5306 25.0381 61.8215C25.0381 62.4203 27.3255 63.2741 28.6321 63.1629C29.1401 63.1199 29.5562 63.2347 29.5562 63.4183C29.5562 63.973 30.8542 64.2276 31.4567 63.7912C31.8933 63.4746 32.0207 63.5072 32.0207 63.9357C32.0207 64.3538 32.6479 64.5381 34.5878 64.6902C35.9999 64.801 37.6815 64.8741 38.3255 64.8533C39.3803 64.8189 39.4735 64.716 39.2673 63.8163C39.1063 63.1138 39.2259 62.7552 39.6707 62.6061C40.6302 62.2848 40.7567 62.3428 40.4786 62.9758C40.2823 63.4226 40.4145 63.5129 41.0508 63.3677C42.1056 63.1271 42.1138 63.5222 41.068 64.1803C40.3217 64.65 40.3098 64.7404 40.9144 65.3238C41.3777 65.7706 41.7741 65.8624 42.2604 65.6354C42.651 65.4525 43.1981 65.4475 43.5238 65.6232C43.8397 65.7935 44.2303 65.862 44.3913 65.7749C44.5527 65.6878 45.2083 65.7921 45.8486 66.0069C46.489 66.2217 47.9368 66.4695 49.0664 66.5581C50.1959 66.6463 51.4667 66.8119 51.8902 66.926C52.3917 67.0608 52.5626 66.9945 52.3794 66.7359C51.958 66.1407 52.7905 66.2579 53.3791 66.8768C54.1012 67.6367 54.6113 67.5442 54.6113 66.6538C54.6113 66.0969 54.7494 65.9868 55.1248 66.2429C55.4074 66.4358 56.2391 66.77 56.9731 66.9855C58.2259 67.3534 58.308 67.3258 58.308 66.5416C58.308 66.0073 58.6041 65.6379 59.1283 65.5182C59.7735 65.3708 59.8729 65.4486 59.5944 65.8832C58.9742 66.8503 60.464 67.7335 62.7 67.7249C63.786 67.7206 65.461 67.8744 66.4226 68.0663C67.4433 68.27 68.2652 68.2818 68.3978 68.0943C68.5227 67.9178 68.429 67.7733 68.19 67.7733C67.9509 67.7733 67.755 67.6475 67.755 67.4933C67.755 67.0504 70.081 66.4014 70.622 66.6933C70.9424 66.8661 70.7805 67.0375 70.1517 67.192L69.1926 67.4273L70.1274 68.1136C71.3145 68.985 77.1117 69.113 77.4797 68.2761C77.7734 67.608 78.4342 67.6324 78.4342 68.3112C78.4342 68.6418 78.8191 68.8491 79.4336 68.8491C80.2744 68.8491 80.4276 68.6809 80.3984 67.7913C80.3734 67.0181 80.1413 66.7044 79.5367 66.6258C78.8154 66.5319 78.7887 66.4612 79.3301 66.0722C79.855 65.6946 80.1023 65.8836 80.9381 67.3028L81.9255 68.9796L82.1584 67.9282C82.2866 67.3498 82.248 66.5215 82.0734 66.0872C81.827 65.4755 81.8902 65.3428 82.3539 65.4981C82.6829 65.6082 82.9553 65.8828 82.9585 66.1084C82.9622 66.3537 83.1089 66.3196 83.3237 66.0241C83.8281 65.3288 84.6808 65.8972 84.3789 66.7277C84.2417 67.1056 84.314 67.4147 84.5399 67.4147C84.7658 67.4147 85.0681 67.7375 85.2115 68.1319C85.3548 68.5264 85.7368 68.8491 86.0605 68.8491C86.3841 68.8491 86.649 69.0105 86.649 69.2077C86.649 69.6857 88.1367 69.6642 89.1928 69.1707C89.843 68.867 90.121 68.8878 90.3917 69.2604C90.6653 69.6373 90.7454 69.6057 90.7503 69.118C90.7577 68.37 91.8696 68.2943 92.7777 68.98C93.1346 69.2489 94.1196 69.5616 94.9665 69.6746C96.1679 69.8345 96.5068 69.761 96.5068 69.3404C96.5068 68.7992 97.5049 68.895 98.9495 69.5738C99.2764 69.7276 99.9632 69.7144 100.475 69.544C101.034 69.3586 101.504 69.373 101.651 69.5799C102.009 70.0859 104.624 70.0009 104.826 69.4766C104.951 69.1532 105.16 69.1338 105.579 69.4071C105.898 69.6158 107.221 69.8266 108.519 69.8761C110.606 69.9553 110.994 69.8574 111.875 69.0266L112.873 68.0874L113.007 68.9165C113.134 69.6954 113.304 69.7409 115.812 69.6677C117.28 69.6251 118.666 69.5734 118.892 69.5526C119.118 69.5322 121.826 69.6269 124.911 69.7624C130.173 69.9941 130.532 69.9682 130.716 69.3396C130.891 68.7483 130.919 68.7433 130.961 69.2973C131.004 69.8571 131.462 70.0837 132.326 69.9725C132.951 69.8919 144.834 69.4895 145.898 69.5128C146.519 69.5265 147.028 69.3866 147.028 69.2019C147.028 68.999 147.406 68.9922 147.986 69.1851C148.513 69.3601 149.19 69.3708 149.49 69.2091C149.792 69.046 150.342 69.0825 150.725 69.2912C151.154 69.525 152.022 69.5577 153.021 69.3773C153.904 69.2177 154.794 69.1227 154.999 69.1661C155.205 69.2098 155.505 69.0589 155.666 68.8312C155.887 68.5181 156.176 68.5177 156.842 68.8286C157.327 69.0553 157.892 69.1499 158.098 69.0391C158.303 68.9283 159.629 68.7587 161.044 68.663C162.458 68.5669 163.735 68.3195 163.882 68.1129C164.028 67.9064 164.5 67.7432 164.932 67.7507C166.013 67.769 167.223 67.7672 168.078 67.7464C168.473 67.7367 168.797 67.4968 168.797 67.2132C168.797 66.9296 169.074 66.6976 169.413 66.6976C169.752 66.6976 170.029 66.8589 170.029 67.0561C170.029 67.2534 170.295 67.4147 170.619 67.4147C171.04 67.4147 171.204 66.9955 171.187 65.9632C171.174 65.1646 171.278 64.4116 171.418 64.2896C171.558 64.1677 171.672 64.4904 171.672 65.0072C171.672 66.0564 172.457 67.7733 172.937 67.7733C173.706 67.7733 174.547 67.296 174.547 66.8596C174.547 66.0521 175.463 65.8348 176.028 66.5086C176.661 67.2641 178.041 66.9708 177.683 66.1568C177.546 65.8441 177.68 65.6218 178.007 65.6218C178.315 65.6218 178.673 65.8638 178.803 66.1597C178.933 66.4555 179.461 66.6789 179.977 66.656C180.672 66.6251 180.729 66.5721 180.195 66.4505C179.36 66.2601 179.221 65.6218 180.014 65.6218C180.31 65.6218 180.91 65.8506 181.348 66.1299C181.909 66.4889 182.295 66.5287 182.658 66.2654C183.02 66.003 183.173 66.0166 183.173 66.3114C183.173 66.5893 183.621 66.6567 184.508 66.5122C185.933 66.2794 186.417 66.2077 190.566 65.6139C192.035 65.4034 193.606 65.0832 194.057 64.9014C194.509 64.7199 195.341 64.5883 195.906 64.6091C197.374 64.6636 200.15 64.1853 200.609 63.7987C200.823 63.618 201.349 63.4703 201.778 63.4703C202.206 63.4703 203.047 63.169 203.647 62.8004C204.389 62.3443 204.999 62.222 205.558 62.4167C206.857 62.8689 207.401 62.7997 207.144 62.2152C206.995 61.8745 207.15 61.6773 207.568 61.6773C207.931 61.6773 208.228 61.8387 208.228 62.0359C208.228 62.2331 208.505 62.3945 208.844 62.3945C209.572 62.3945 209.579 62.355 209.06 61.1627C208.799 60.565 208.799 60.243 209.06 60.243C209.28 60.243 209.46 60.485 209.46 60.7808C209.46 61.0767 209.814 61.3187 210.248 61.3187C210.681 61.3187 211.096 61.4751 211.172 61.6662C211.252 61.8699 212.092 61.7677 213.199 61.4195C214.629 60.9695 215.204 60.5596 215.56 59.7359L216.03 58.6472L216.656 59.4264C217.251 60.1684 217.362 60.1809 218.959 59.6889C219.882 59.4046 220.776 59.2468 220.945 59.3382C221.115 59.4293 221.17 59.1245 221.068 58.6605C220.887 57.8318 221.803 56.8894 222.081 57.6184C222.159 57.8228 222.463 58.2761 222.756 58.6261C223.226 59.1876 223.478 59.2109 224.897 58.8247C225.782 58.5841 227.29 58.0789 228.247 57.7016C229.205 57.3244 230.271 57.0157 230.617 57.0157C230.963 57.0157 231.978 56.6122 232.872 56.1192C233.767 55.6261 234.767 55.2227 235.094 55.2227C235.421 55.2227 235.933 55.0208 236.232 54.7745C236.53 54.5281 237.395 54.2828 238.153 54.2301C238.912 54.1771 239.923 53.8948 240.401 53.6026C240.879 53.3103 241.599 53.0712 242 53.0712C242.402 53.0712 242.73 52.8291 242.73 52.5333C242.73 52.2317 243.097 51.9954 243.564 51.9954C244.024 51.9954 244.505 51.7534 244.635 51.4575C244.765 51.1617 245.319 50.9196 245.865 50.9196C246.546 50.9196 246.98 50.6381 247.248 50.0232C247.63 49.1461 248.481 48.7749 248.481 49.4853C248.481 50.0156 249.273 49.9206 249.977 49.306C250.316 49.0102 250.906 48.7681 251.287 48.7681C251.67 48.7681 252.165 48.4181 252.388 47.9907C252.611 47.5629 253.162 47.0386 253.612 46.8253C254.062 46.6119 254.839 46.0744 255.338 45.6305C255.837 45.1869 256.393 44.8168 256.573 44.8086C256.753 44.8 257.363 44.2865 257.928 43.6668C258.492 43.0472 259.464 42.1174 260.087 41.601C261.598 40.3477 263.999 36.1386 262.849 36.7593C262.018 37.2079 262.31 35.5129 263.369 33.7364C264.007 32.6675 264.384 31.6993 264.206 31.5849C264.028 31.4701 263.883 30.2603 263.882 28.8962C263.882 27.2334 263.712 26.3663 263.369 26.2663C263.087 26.1842 262.856 25.9059 262.856 25.6477C262.856 25.3892 262.596 25.0908 262.279 24.9847C261.961 24.8782 261.578 24.298 261.426 23.6952C261.274 23.0924 260.98 22.5072 260.771 22.3946C260.562 22.2824 260.385 21.8366 260.377 21.4045C260.369 20.9724 259.953 20.209 259.453 19.7081C258.208 18.4605 255.463 16.7314 255.463 17.194C255.463 17.4012 255.186 17.5709 254.847 17.5709C254.508 17.5709 254.231 17.4353 254.231 17.27C254.231 17.1043 253.769 16.7848 253.204 16.5604C252.639 16.3355 252.173 15.8661 252.167 15.5165C252.157 14.8675 249.822 13.6264 248.612 13.6264C248.25 13.6264 247.692 13.3438 247.37 12.9989C246.969 12.5675 246.722 12.5044 246.581 12.7973C246.442 13.0856 246.107 12.9888 245.544 12.4972C244.967 11.993 244.41 11.8377 243.721 11.9883C243.166 12.1103 242.73 12.0472 242.73 11.8449C242.73 11.2597 239.784 9.81315 238.007 9.5252C237.103 9.37889 236.174 9.1225 235.943 8.95576C235.092 8.34257 230.801 7.28545 227.803 6.95053C226.864 6.84582 225.495 6.6235 224.76 6.45675C223.856 6.25164 223.425 6.28033 223.425 6.54604C223.425 6.76155 223.009 6.6027 222.501 6.19247C221.921 5.72451 220.812 5.38099 219.523 5.26946C218.394 5.17157 216.546 4.91088 215.416 4.68963C214.286 4.46874 212.292 4.2249 210.983 4.14744C209.675 4.07034 208.381 3.85196 208.108 3.66227C207.835 3.47258 206.318 3.3026 204.737 3.28432C201.903 3.25169 201.23 3.17817 200.013 2.77046C198.908 2.40004 195.084 2.24871 195.084 2.57539C195.084 2.75074 194.743 2.7346 194.326 2.53953C193.804 2.29569 193.42 2.31398 193.093 2.5987C192.736 2.91103 192.62 2.88987 192.62 2.51335C192.62 2.1501 192.479 2.18237 192.103 2.63168C191.52 3.32806 189.866 3.26172 189.342 2.52124C189.117 2.20389 188.579 2.12213 187.712 2.27345C186.832 2.42693 186.506 2.37493 186.693 2.1103C186.866 1.86646 186.617 1.88546 186.028 2.16122C185.248 2.52518 185.006 2.5051 184.621 2.04539C184.203 1.54695 184.107 1.55161 183.688 2.0895C183.255 2.64567 183.219 2.64352 183.197 2.06189C183.184 1.71692 183.126 1.41965 183.07 1.40172C183.014 1.38415 181.131 1.29809 178.886 1.21096C176.641 1.12346 174.578 0.888225 174.302 0.688133C173.958 0.438555 173.708 0.452539 173.51 0.73188C173.322 0.997953 172.701 1.04959 171.728 0.879978C169.184 0.436762 167.565 0.472979 167.565 0.973211C167.565 1.22673 167.38 1.43436 167.154 1.43436C166.928 1.43436 166.79 1.25291 166.846 1.03094C166.903 0.808977 166.487 0.583783 165.922 0.530353C165.357 0.476923 164.479 0.316992 163.971 0.174633C163.271 -0.0207983 163.047 0.057374 163.047 0.495928C163.047 0.815073 163.262 1.07577 163.526 1.07577C163.789 1.07577 163.867 1.19661 163.698 1.34399C163.528 1.49173 163.158 1.33503 162.874 0.995802C162.172 0.157421 160.258 0.0986121 158.584 0.863841C157.495 1.3612 157.103 1.40172 156.736 1.05353C156.384 0.720405 156.395 0.674148 156.783 0.864917C157.098 1.02019 157.296 0.90221 157.296 0.55904C157.296 0.251729 157.06 0 156.772 0C156.133 0 154.405 0.976796 153.702 1.73449C153.256 2.21644 153.189 2.18309 153.189 1.47882C153.189 0.831927 153.023 0.714668 152.367 0.896472C151.782 1.05855 151.546 0.961019 151.546 0.55653C151.546 0.140925 151.188 0.00681304 150.211 0.0562983C149.477 0.0939502 148.577 0.252088 148.211 0.408074C147.846 0.564061 147.434 0.594182 147.298 0.474772C147.161 0.355003 145.353 0.211209 143.281 0.15491C140.432 0.0778135 139.279 0.186825 138.551 0.603146C137.744 1.06501 137.554 1.07326 137.37 0.654784C137.14 0.130885 135.63 0.0390859 134.781 0.497363C134.506 0.64546 134.369 0.890735 134.476 1.04206C134.584 1.19338 134.419 1.6323 134.11 2.0167C133.632 2.6134 132.265 2.83357 131.009 2.51658C130.662 2.42908 132.833 1.67605 133.216 1.75171C133.413 1.79043 133.459 1.56058 133.319 1.24036C133.178 0.920498 133.063 0.509197 133.063 0.327033C133.063 0.134471 131.727 0.0835512 129.879 0.205471C126.125 0.452898 126.192 0.453615 124.745 0.152042C123.881 -0.0283286 123.616 0.0476921 123.616 0.474772C123.616 0.969624 123.487 0.974645 122.486 0.518878C120.94 -0.18539 117.866 -0.13985 116.647 0.605298C115.945 1.03453 115.61 1.08652 115.495 0.784593C115.256 0.159572 113.126 0.265356 112.491 0.933407C111.994 1.45623 111.886 1.44511 111.297 0.810053C110.746 0.216588 110.569 0.186825 110.114 0.612112ZM115.401 1.61365C115.401 1.90949 115.216 2.17161 114.99 2.19636C114.764 2.2211 114.388 2.26126 114.154 2.286C113.919 2.31075 113.552 2.57288 113.339 2.86871C112.786 3.63143 112.806 2.67507 113.362 1.76928C113.862 0.952412 115.401 0.835154 115.401 1.61365ZM93.6316 2.30967C93.6316 2.39681 93.4468 2.5675 93.2209 2.68942C92.995 2.81134 92.8101 2.73998 92.8101 2.53128C92.8101 2.32258 92.995 2.15153 93.2209 2.15153C93.4468 2.15153 93.6316 2.22253 93.6316 2.30967ZM81.5329 4.27761C81.1291 4.84812 80.4785 4.38339 80.7656 3.72968C80.9237 3.37002 81.1476 3.30117 81.4105 3.53067C81.6319 3.72395 81.6869 4.05995 81.5329 4.27761ZM181.941 3.76518C181.941 4.06102 181.669 4.30307 181.337 4.30307C180.97 4.30307 180.827 4.09293 180.97 3.76518C181.101 3.46935 181.372 3.2273 181.574 3.2273C181.776 3.2273 181.941 3.46935 181.941 3.76518ZM186.224 3.49624C186.02 3.64434 185.714 3.92655 185.546 4.12377C185.371 4.32853 185.236 4.21306 185.233 3.85483C185.229 3.50592 185.531 3.2273 185.911 3.2273C186.288 3.2273 186.428 3.34815 186.224 3.49624ZM79.6665 4.30307C79.6665 4.50029 79.4816 4.66166 79.2557 4.66166C79.0298 4.66166 78.845 4.50029 78.845 4.30307C78.845 4.10584 79.0298 3.94448 79.2557 3.94448C79.4816 3.94448 79.6665 4.10584 79.6665 4.30307ZM92.6988 4.16107C92.5625 4.28012 92.208 4.29303 91.9119 4.18939C91.5841 4.07501 91.6814 3.99002 92.1599 3.97281C92.5929 3.95739 92.8352 4.04202 92.6988 4.16107ZM192.62 4.68891C192.62 4.85852 192.343 4.90478 192.004 4.79147C191.665 4.67779 191.388 4.44579 191.388 4.27582C191.388 4.1062 191.665 4.05994 192.004 4.17326C192.343 4.28693 192.62 4.51894 192.62 4.68891ZM201.245 4.30307C201.245 4.50029 200.922 4.65915 200.527 4.65628C199.912 4.65162 199.897 4.59998 200.424 4.30307C201.199 3.86559 201.245 3.86559 201.245 4.30307ZM72.0678 5.02025C72.2074 5.21747 72.1257 5.37883 71.8867 5.37883C71.6476 5.37883 71.4517 5.21747 71.4517 5.02025C71.4517 4.82302 71.533 4.66166 71.6328 4.66166C71.7326 4.66166 71.9281 4.82302 72.0678 5.02025ZM179.476 5.02025C179.476 5.21747 179.28 5.37883 179.041 5.37883C178.802 5.37883 178.72 5.21747 178.86 5.02025C179 4.82302 179.195 4.66166 179.295 4.66166C179.395 4.66166 179.476 4.82302 179.476 5.02025ZM189.726 5.897C190.1 6.29001 190.116 6.4546 189.782 6.4546C189.521 6.4546 189.202 6.21255 189.072 5.91672C188.942 5.62088 188.578 5.37883 188.263 5.37883C187.949 5.37883 187.691 5.21173 187.691 5.0077C187.691 4.54332 188.971 5.10236 189.726 5.897ZM184.294 5.23683C184.157 5.35589 183.803 5.36879 183.507 5.26516C183.179 5.15077 183.276 5.06579 183.755 5.04857C184.188 5.03315 184.43 5.11778 184.294 5.23683ZM63.9216 6.33519C63.3864 6.80207 63.6587 7.53037 64.3664 7.52499C64.9349 7.52069 64.9669 7.45399 64.5192 7.2062C64.2079 7.03408 64.0801 6.71386 64.2354 6.49476C64.5459 6.05621 64.3533 5.95831 63.9216 6.33519ZM199.491 7.38837C199.355 7.50742 199 7.52033 198.704 7.4167C198.376 7.30231 198.474 7.21732 198.952 7.20011C199.385 7.18469 199.628 7.26932 199.491 7.38837ZM200.835 7.88896C200.835 8.08618 200.65 8.24755 200.424 8.24755C200.198 8.24755 200.013 8.08618 200.013 7.88896C200.013 7.69173 200.198 7.53037 200.424 7.53037C200.65 7.53037 200.835 7.69173 200.835 7.88896ZM205.353 8.06825C205.353 8.36409 205.168 8.60614 204.942 8.60614C204.716 8.60614 204.531 8.36409 204.531 8.06825C204.531 7.77242 204.716 7.53037 204.942 7.53037C205.168 7.53037 205.353 7.77242 205.353 8.06825ZM216.854 8.80659C216.854 9.1139 216.669 9.26594 216.443 9.14402C216.217 9.0221 216.032 8.77073 216.032 8.58498C216.032 8.39923 216.217 8.24755 216.443 8.24755C216.669 8.24755 216.854 8.49928 216.854 8.80659ZM232.051 12.0127C232.051 12.3086 231.774 12.5506 231.435 12.5506C231.096 12.5506 230.819 12.3086 230.819 12.0127C230.819 11.7169 231.096 11.4748 231.435 11.4748C231.774 11.4748 232.051 11.7169 232.051 12.0127ZM246.288 15.1504C246.174 15.3971 246.081 15.1952 246.081 14.7021C246.081 14.2091 246.174 14.0076 246.288 14.2539C246.402 14.5006 246.402 14.904 246.288 15.1504ZM52.763 19.3638C52.6234 19.561 52.7051 19.7224 52.9442 19.7224C53.1832 19.7224 53.3791 19.561 53.3791 19.3638C53.3791 19.1666 53.2978 19.0052 53.198 19.0052C53.0982 19.0052 52.9027 19.1666 52.763 19.3638ZM47.2829 20.7982C47.2829 21.2912 47.3762 21.4931 47.4899 21.2464C47.6041 21 47.6041 20.5966 47.4899 20.3499C47.3762 20.1036 47.2829 20.3051 47.2829 20.7982ZM38.6689 21.2335C38.029 21.7922 38.0446 22.3358 38.6952 22.13C38.9778 22.0407 39.5204 22.2042 39.9015 22.4936C40.2827 22.7833 40.7908 22.9138 41.0311 22.7844C41.6164 22.4685 41.5872 21.8739 40.9867 21.8739C40.7222 21.8739 40.2018 21.634 39.8309 21.3411C39.3105 20.9298 39.0447 20.9054 38.6689 21.2335ZM33.1445 22.8055C33.0093 22.9235 32.9978 23.2452 33.119 23.5209C33.2956 23.9229 32.9752 23.9785 31.5019 23.8021C30.3321 23.6622 29.5616 23.7282 29.3808 23.9832C29.2248 24.2037 29.2929 24.3841 29.532 24.3841C29.771 24.3841 29.967 24.7674 29.967 25.2357C29.967 25.9052 30.1867 26.0873 30.9938 26.0873C31.7171 26.0873 32.0207 25.8923 32.0207 25.4275C32.0207 24.7014 33.1646 24.0305 33.9721 24.2833C34.3155 24.3909 34.3943 24.2363 34.2103 23.8175C34.0222 23.39 34.0875 23.2731 34.4153 23.4499C34.6798 23.5926 34.8958 23.5557 34.8958 23.3678C34.8958 23.1799 34.6034 22.9285 34.2461 22.8088C33.4488 22.5416 33.4463 22.5416 33.1445 22.8055ZM35.7173 23.574C35.7173 24.2352 36.4764 24.4543 37.2543 24.0179C37.8367 23.6909 37.847 23.6472 37.3077 23.7909C36.9397 23.8892 36.4316 23.7884 36.1782 23.5672C35.8377 23.2699 35.7173 23.2717 35.7173 23.574ZM26.8864 24.7426C26.7468 24.9399 26.8285 25.1012 27.0676 25.1012C27.3066 25.1012 27.5025 25.33 27.5025 25.6094C27.5025 26.3455 28.4513 26.5116 28.9927 25.87C29.3422 25.4559 29.3242 25.2059 28.9192 24.8527C28.2821 24.2962 27.2421 24.2399 26.8864 24.7426ZM24.1139 25.7069C23.7184 25.7973 23.3951 26.1623 23.3951 26.518C23.3951 26.8737 23.0834 27.3865 22.7022 27.6573C22.0988 28.0854 22.0422 28.0718 22.2656 27.5515C22.418 27.1954 22.2833 26.8737 21.9317 26.7558C21.6072 26.6471 21.3414 26.7145 21.3414 26.9053C21.3414 27.0964 21.0642 27.2528 20.7253 27.2528C20.3865 27.2528 20.1092 27.4091 20.1092 27.6002C20.1092 27.791 19.8509 27.8609 19.5346 27.7548C18.617 27.4475 18.502 28.0872 19.3403 28.8395C20.0184 29.4484 20.1092 29.4592 20.1092 28.9292C20.1092 28.5989 20.3865 28.3285 20.7253 28.3285C21.0642 28.3285 21.3414 28.5817 21.3414 28.8915C21.3414 29.8332 23.1142 29.3577 23.4399 28.3285C23.6186 27.7645 23.7393 27.6648 23.7648 28.0596C23.8108 28.7603 24.4314 28.8958 24.8549 28.2973C25.0065 28.0829 25.4763 27.9864 25.899 28.0829C26.5266 28.226 26.5956 28.1421 26.2777 27.6232C26.0637 27.2743 26.0009 26.8906 26.1381 26.7708C26.4112 26.532 25.5055 25.4344 25.0907 25.5014C24.9485 25.5244 24.5095 25.6169 24.1139 25.7069ZM26.681 26.8942C26.1545 27.1911 26.1693 27.2427 26.7837 27.2474C27.1793 27.2503 27.5025 27.0914 27.5025 26.8942C27.5025 26.4567 27.4561 26.4567 26.681 26.8942ZM15.9213 29.5732C13.8068 30.7641 13.585 31.0696 14.6669 31.3016C15.062 31.3862 14.7852 31.3902 14.0508 31.3102C12.6691 31.1596 12.2123 31.6691 13.3784 32.0597C13.799 32.2006 13.9633 32.5423 13.8278 32.9945C13.7103 33.3864 13.7818 33.7074 13.9867 33.7074C14.1913 33.7074 14.3589 33.3846 14.3589 32.9902C14.3589 32.2085 14.6616 32.1109 15.5545 32.6043C16.2273 32.9762 17.6448 32.3358 17.6448 31.6602C17.6448 31.4027 17.9438 31.3037 18.3636 31.4217C18.9431 31.5845 18.9682 31.553 18.4925 31.2586C18.0116 30.9606 17.9992 30.792 18.4256 30.3434C18.8499 29.8974 18.845 29.6704 18.3993 29.1404C17.8773 28.5193 17.7549 28.5405 15.9213 29.5732ZM7.58165 37.2933C7.72336 37.4933 7.41612 37.6493 6.88709 37.6465C6.12394 37.6418 6.05904 37.573 6.5548 37.2933C7.31919 36.8622 7.27647 36.8622 7.58165 37.2933ZM247.454 46.6166C247.593 46.8138 247.408 46.9752 247.043 46.9752C246.677 46.9752 246.493 46.8138 246.632 46.6166C246.772 46.4193 246.957 46.258 247.043 46.258C247.129 46.258 247.314 46.4193 247.454 46.6166ZM240.407 50.3972C240.273 50.7016 240.076 50.8737 239.968 50.7798C239.861 50.6858 239.894 50.4366 240.044 50.2265C240.448 49.6542 240.685 49.7653 240.407 50.3972ZM239.175 52.5487C239.041 52.8531 238.844 53.0253 238.736 52.9313C238.629 52.8374 238.662 52.5882 238.811 52.378C239.216 51.8057 239.453 51.9169 239.175 52.5487ZM229.586 53.7883C229.586 53.9856 229.391 54.1469 229.152 54.1469C228.912 54.1469 228.831 53.9856 228.97 53.7883C229.11 53.5911 229.306 53.4298 229.405 53.4298C229.505 53.4298 229.586 53.5911 229.586 53.7883ZM231.024 53.7883C231.164 53.9856 230.99 54.1469 230.638 54.1469C230.286 54.1469 229.997 53.9856 229.997 53.7883C229.997 53.5911 230.171 53.4298 230.384 53.4298C230.596 53.4298 230.884 53.5911 231.024 53.7883ZM203.71 60.9601C203.71 61.1574 203.525 61.3187 203.299 61.3187C203.073 61.3187 202.888 61.1574 202.888 60.9601C202.888 60.7629 203.073 60.6015 203.299 60.6015C203.525 60.6015 203.71 60.7629 203.71 60.9601ZM44.8908 64.2229C45.0789 64.3459 44.9405 64.5442 44.5827 64.664C44.1141 64.8211 43.9321 64.6676 43.9321 64.1164C43.9321 63.6954 44.0709 63.4968 44.2402 63.6754C44.4094 63.8536 44.7023 64.1003 44.8908 64.2229ZM52.0356 64.7626C51.8992 64.8817 51.5448 64.8946 51.2486 64.7909C50.9209 64.6765 51.0182 64.5916 51.4967 64.5743C51.9296 64.5589 52.172 64.6436 52.0356 64.7626ZM152.778 66.1597C152.778 66.4688 152.408 66.6976 151.907 66.6976C151.178 66.6976 151.119 66.609 151.546 66.1597C151.827 65.8638 152.22 65.6218 152.418 65.6218C152.616 65.6218 152.778 65.8638 152.778 66.1597ZM107.802 66.339C107.942 66.5362 107.757 66.6976 107.391 66.6976C107.026 66.6976 106.841 66.5362 106.981 66.339C107.12 66.1417 107.305 65.9804 107.391 65.9804C107.478 65.9804 107.662 66.1417 107.802 66.339ZM91.5779 66.4745C91.5779 66.5487 91.3007 66.8105 90.9618 67.0561C90.457 67.4219 90.3457 67.3972 90.3457 66.9206C90.3457 66.6007 90.623 66.339 90.9618 66.339C91.3007 66.339 91.5779 66.3999 91.5779 66.4745ZM118.687 66.4971C118.687 66.5842 118.502 66.7549 118.276 66.8768C118.05 66.9988 117.865 66.9274 117.865 66.7187C117.865 66.51 118.05 66.339 118.276 66.339C118.502 66.339 118.687 66.41 118.687 66.4971ZM100.443 67.4147C100.763 67.4147 101.025 67.7375 101.025 68.1319C101.025 68.5264 100.919 68.8491 100.79 68.8491C100.318 68.8491 99.5849 67.934 99.4966 67.2354C99.4469 66.841 99.5085 66.7201 99.6333 66.9665C99.7586 67.2132 100.123 67.4147 100.443 67.4147ZM83.3631 68.1319C83.3631 68.5941 83.571 68.8484 83.8766 68.7594C84.1591 68.6773 84.39 68.3948 84.39 68.1319C84.39 67.8691 84.1591 67.5865 83.8766 67.5044C83.571 67.4155 83.3631 67.6697 83.3631 68.1319ZM109.52 68.1993C109.389 68.4851 109.292 68.4001 109.272 67.9824C109.255 67.6044 109.351 67.3929 109.488 67.5119C109.624 67.631 109.639 67.9404 109.52 68.1993ZM110.677 69.2077C110.817 69.4049 110.643 69.5663 110.291 69.5663C109.939 69.5663 109.65 69.4049 109.65 69.2077C109.65 69.0105 109.824 68.8491 110.037 68.8491C110.25 68.8491 110.538 69.0105 110.677 69.2077Z" fill="#F7991C"/>
</svg>
