<svg width="453" height="120" viewBox="0 0 453 120" fill="none" xmlns="http://www.w3.org/2000/svg">
<path fill-rule="evenodd" clip-rule="evenodd" d="M188.767 1.04933C188.119 1.65484 187.592 1.71938 186.97 1.26818C185.754 0.386661 180.362 2.70909 179.5 4.48564C179.007 5.49809 178.951 5.24114 179.275 3.46704L179.709 1.09421L176.623 1.56632C172.111 2.25727 170.803 2.33165 170.027 1.9413C169.026 1.43784 164.527 1.85647 163.572 2.54188C163.04 2.92424 162.654 2.85232 162.451 2.33103C162.201 1.69356 161.682 1.68434 159.823 2.28309C158.244 2.79146 157.094 2.83572 156.208 2.42263C155.218 1.95974 154.571 2.11219 153.479 3.06563C152.289 4.10513 151.544 4.24098 149.062 3.8746C147.42 3.63179 145.76 3.52544 145.373 3.63794C144.985 3.74982 142.926 3.92686 140.796 4.03074C134.64 4.33134 134.459 4.3547 134.459 4.84956C134.459 5.10836 133.46 5.19135 132.239 5.03521C130.255 4.78071 130.061 4.89013 130.413 6.06364C130.677 6.94515 130.48 7.37669 129.816 7.37669C129.271 7.37669 128.826 6.96175 128.826 6.4546C128.826 5.83988 128.122 5.53252 126.713 5.53252C125.493 5.53252 124.601 5.85709 124.601 6.30092C124.6 6.77549 123.51 7.10068 121.749 7.1517C118.503 7.24514 117.476 7.79532 118.988 8.63011C119.69 9.01739 119.74 9.20488 119.144 9.21164C118.66 9.21656 118.264 9.6358 118.264 10.1429C118.264 10.6501 117.789 11.065 117.208 11.065C116.627 11.065 116.151 10.6501 116.151 10.1429C116.151 9.6358 116.468 9.22086 116.856 9.22086C117.243 9.22086 117.56 8.94423 117.56 8.60614C117.56 7.67913 115.652 7.86847 115.226 8.83727C115 9.35241 114.196 9.57371 113.173 9.40282C111.62 9.14402 111.514 9.28664 111.781 11.2814C112.056 13.334 113.798 14.7712 114.687 13.6776C114.912 13.4016 115.967 13.1268 117.032 13.0678C118.096 13.0088 119.364 12.9289 119.848 12.8901C120.333 12.8514 121.441 13.0106 122.313 13.2436C123.495 13.5602 123.897 13.4194 123.897 12.6885C123.897 11.8924 124.233 11.8218 125.703 12.3098C128.421 13.2116 130.938 13.0567 130.938 11.9871C130.938 11.4136 131.603 11.065 132.698 11.065C133.727 11.065 134.459 11.4185 134.459 11.9146C134.459 13.0789 140.029 13.1526 140.537 11.9951C140.74 11.5341 141.753 11.1714 142.787 11.1886C146.37 11.2488 147.133 11.0607 147.133 10.1159C147.133 9.594 147.529 9.21164 148.013 9.26696C148.498 9.32168 149.617 9.33397 150.502 9.2934C151.88 9.23131 152.004 9.04628 151.366 8.00555C150.759 7.01339 150.818 6.85602 151.694 7.14863C152.284 7.34657 152.766 7.89367 152.766 8.36455C152.766 8.83543 153.207 9.22086 153.747 9.22086C154.286 9.22086 154.908 9.6315 155.129 10.1331C155.718 11.4732 164.209 11.1173 166.144 9.67145C167.631 8.55942 169.326 8.20841 168.659 9.15078C168.447 9.45015 169.069 9.82759 170.042 9.99049C171.015 10.1528 171.984 10.0415 172.195 9.74337C172.406 9.44462 172.874 9.35979 173.234 9.55465C173.595 9.74891 173.89 9.6149 173.89 9.25713C173.89 8.89936 174.542 8.60614 175.34 8.60614C176.137 8.60614 176.594 8.88276 176.354 9.22086C176.087 9.59892 177.086 9.79993 178.953 9.74337C180.977 9.6819 181.356 9.56695 180.09 9.39852C178.737 9.2184 178.31 8.87661 178.603 8.20964C178.829 7.69511 179.208 7.50455 179.445 7.78609C180.111 8.5797 182.912 9.83558 184.016 9.83558C184.561 9.83558 186.467 8.63257 188.25 7.16154C190.47 5.33089 191.493 4.80468 191.493 5.49256C191.493 6.04458 190.537 6.99003 189.368 7.59246C186.976 8.82621 187.178 9.83558 189.816 9.83558C190.942 9.83558 191.399 9.58601 191.086 9.1434C190.735 8.64732 190.951 8.62458 191.848 9.06288C193.433 9.83743 195.718 9.3438 195.718 8.22685C195.718 7.75966 196.034 7.37669 196.422 7.37669C196.809 7.37669 197.126 7.74552 197.126 8.19611C197.126 9.48212 205.419 9.3352 205.817 8.04243C206.063 7.24022 206.13 7.25805 206.198 8.14509C206.292 9.38438 207.722 9.56019 208.955 8.48319C209.596 7.92379 209.8 7.92072 209.8 8.47028C209.8 9.27434 222.166 9.2393 223.647 8.43155C224.097 8.18505 224.628 8.33135 224.825 8.75613C225.099 9.34565 225.351 9.31737 225.895 8.63564C226.286 8.14448 226.452 7.52545 226.264 7.25927C226.076 6.99371 226.413 6.94085 227.015 7.14186C227.616 7.34349 228.107 7.83404 228.107 8.233C228.107 9.02538 229.452 9.20611 234.797 9.13234C236.733 9.10529 240.852 9.14648 243.95 9.22332C253.819 9.46859 254.428 9.4397 254.706 8.71433C254.894 8.2207 255.299 8.28341 256.027 8.91903C257.353 10.0759 261.712 10.0999 264.818 8.96698C266.869 8.21886 267.388 8.21886 268.559 8.96698C270.223 10.0292 271.674 10.127 270.496 9.09791C269.346 8.09407 269.434 7.37669 270.707 7.37669C271.288 7.37669 271.763 7.79163 271.763 8.29877C271.763 8.80592 272.318 9.24361 272.995 9.27065C273.673 9.29832 275.178 9.38622 276.34 9.46613C277.502 9.54605 278.685 9.31614 278.97 8.9553C279.316 8.51639 279.49 8.55327 279.498 9.06718C279.504 9.49011 280.221 9.83128 281.093 9.82636C282.195 9.8196 282.399 9.66285 281.764 9.31061C281.029 8.90428 281.054 8.65716 281.891 8.05104C282.738 7.43693 283.072 7.52791 283.695 8.54343C284.152 9.28909 284.882 9.64809 285.513 9.43663C286.094 9.24238 286.96 9.36409 287.439 9.70711C288.857 10.722 291.179 10.8179 292.426 9.91365C293.183 9.36593 293.591 9.31184 293.591 9.76059C293.591 10.4927 295.866 10.7177 296.62 10.06C297.633 9.17537 302.683 9.23315 303.262 10.1362C303.874 11.0921 306.89 11.3564 311.396 10.8493C312.862 10.6839 315.001 10.7841 316.148 11.0712C317.296 11.3589 318.235 11.3712 318.235 11.0988C318.235 10.8265 319.028 10.604 319.996 10.604C320.964 10.604 321.756 10.9519 321.756 11.3773C321.756 12.3012 324.408 13.0328 324.727 12.1967C324.849 11.8765 326.132 11.3816 327.578 11.097C329.936 10.6329 330.206 10.7066 330.206 11.8132C330.206 12.9043 330.508 12.9965 332.846 12.6154C334.299 12.3787 335.241 12.4008 334.941 12.6645C334.151 13.3592 338.837 14.6353 339.825 13.9948C340.303 13.6844 340.832 13.7317 341.098 14.1085C341.349 14.4632 342.75 14.7534 344.212 14.7534C345.674 14.7534 347.098 14.9525 347.377 15.196C348.166 15.8845 355.096 15.8986 356.082 15.2144C356.714 14.7749 356.962 14.8923 356.962 15.6306C356.962 16.4525 357.632 16.6504 360.307 16.6178C362.146 16.5951 364.716 16.7555 366.018 16.9744C367.548 17.2313 368.569 17.1102 368.908 16.632C369.31 16.0646 369.661 16.0836 370.415 16.7131C371.842 17.9063 375.05 19.0429 375.61 18.5542C376.485 17.7895 379.447 18.0624 379.834 18.944C380.134 19.6257 380.431 19.6533 381.232 19.073C382.247 18.3372 384.021 18.7479 383.43 19.5814C383.157 19.9681 385.144 20.0535 387.768 19.7671C388.252 19.7142 388.673 19.1868 388.704 18.5954C388.748 17.7354 388.842 17.7047 389.17 18.4417C389.396 18.9489 390.053 19.6675 390.63 20.0388C391.207 20.4101 391.472 21.007 391.219 21.3647C390.934 21.7674 391.269 21.8989 392.101 21.709C392.84 21.5405 394.596 21.8799 396.003 22.4626C397.411 23.046 400.134 23.5236 402.055 23.5236C403.975 23.5236 405.547 23.7634 405.547 24.056C405.547 24.3492 406.022 24.589 406.603 24.589C407.184 24.589 407.659 24.2828 407.659 23.9085C407.659 23.5341 408.135 23.3872 408.716 23.582C409.296 23.7763 409.772 23.6675 409.772 23.3405C409.772 22.3624 411.699 22.6667 412.161 23.7173C412.792 25.1545 412.747 25.2037 410.778 25.2037C409.057 25.2037 409.027 25.2565 410.193 26.2739C411.067 27.0362 411.502 27.1265 411.708 26.5874C411.905 26.0729 412.738 26.3243 414.313 27.373C415.777 28.3486 417.077 28.7648 417.848 28.5066C418.57 28.265 419.316 28.4482 419.677 28.956C420.013 29.4281 420.852 29.8147 421.543 29.8147C422.233 29.8153 422.837 30.1614 422.886 30.5831C422.935 31.0054 423.014 31.5833 423.062 31.8667C423.308 33.3082 429.487 34.454 429.487 33.058C429.487 32.6449 429.981 32.9222 430.584 33.674C431.188 34.4264 431.508 35.2864 431.296 35.5851C430.783 36.3105 432.208 37.2351 434.612 37.7367C435.777 37.9801 437.343 39.1235 438.485 40.5644C439.539 41.8953 440.791 42.9944 441.268 43.0073C441.745 43.0202 442.351 43.7819 442.615 44.7009C442.879 45.6193 443.679 46.9176 444.392 47.5864C445.273 48.412 445.524 49.208 445.174 50.0662C444.889 50.7608 444.727 52.4194 444.811 53.7509C444.896 55.083 444.493 56.8017 443.915 57.5714C443.338 58.341 442.866 59.3946 442.866 59.9141C442.866 60.4329 442.548 60.7882 442.16 60.704C441.772 60.6192 441.054 61.2419 440.564 62.0871C440.073 62.9324 438.965 63.8969 438.1 64.2307C437.236 64.5645 436.529 65.3113 436.529 65.8904C436.529 66.4701 436.081 67.1647 435.534 67.4352C434.986 67.7057 434.432 68.7569 434.301 69.7712C434.129 71.1143 433.679 71.6326 432.646 71.678C430.785 71.7604 427.457 73.3052 425.279 75.0977C424.32 75.8871 423.452 76.4717 423.35 76.396C422.829 76.0112 416.288 78.5777 414.887 79.7168C414.397 80.1151 413.996 80.7698 413.996 81.1712C413.996 81.5892 413.417 81.7693 412.642 81.5923C411.898 81.4226 410.306 81.805 409.105 82.4431C407.904 83.0806 406.464 83.6025 405.907 83.6025C405.348 83.6025 403.72 84.5012 402.287 85.5991C400.855 86.6976 399.101 87.5096 398.39 87.4045C397.48 87.2699 397.097 87.592 397.097 88.4932C397.097 89.5727 396.803 89.7085 395.222 89.3618C393.668 89.0219 393.422 89.1258 393.791 89.9649C394.089 90.6429 393.869 90.9791 393.128 90.9791C392.431 90.9791 392.169 90.6361 392.423 90.0571C392.699 89.43 392.385 89.135 391.443 89.135C390.68 89.135 390.056 89.3655 390.056 89.647C390.056 89.9292 389.661 90.2064 389.176 90.2642C381.437 91.1857 377.537 92.4865 377.247 94.2433C377.052 95.4365 376.928 95.4728 376.004 94.6048C374.957 93.6218 374.922 93.6249 368.813 95.2521C367.393 95.6308 365.043 96.0734 363.592 96.235C362.141 96.3973 360.589 96.7944 360.144 97.1172C359.699 97.4399 357.454 97.8856 355.156 98.1075C352.838 98.3312 349.496 99.1999 347.652 100.059C344.98 101.302 344.123 101.46 343.295 100.861C342.543 100.316 341.887 100.292 340.859 100.772C340.085 101.134 338.371 101.429 337.049 101.429C335.728 101.429 333.664 101.857 332.463 102.38C331.119 102.966 327.523 103.448 323.105 103.633C319.159 103.799 315.383 104.191 314.714 104.504C314.045 104.816 311.316 105.117 308.649 105.172C305.983 105.227 302.526 105.642 300.967 106.095C299.409 106.546 296.082 106.966 293.574 107.028C290.382 107.106 288.519 107.477 287.36 108.263C285.923 109.239 285.573 109.271 284.696 108.505C283.961 107.863 283.219 107.778 281.972 108.191C281.03 108.504 279.061 108.739 277.595 108.712C276.13 108.686 274.615 108.724 274.228 108.797C273.84 108.871 272.526 108.884 271.306 108.826C270.087 108.769 268.88 109.018 268.624 109.379C268.369 109.74 267.425 110.036 266.527 110.036C265.629 110.036 264.507 110.443 264.034 110.94C263.325 111.687 263.012 111.704 262.251 111.04C261.108 110.041 253.04 110.29 251.551 111.37C250.752 111.949 250.407 111.932 249.954 111.291C249.522 110.681 247.401 110.502 241.552 110.58C232.999 110.695 230.231 111.271 230.199 112.94C230.178 113.951 230.12 113.946 229.412 112.882C228.793 111.952 228.528 111.893 228.025 112.574C227.537 113.235 227.318 113.147 227.008 112.161C226.739 111.309 225.947 110.862 224.543 110.768C223.405 110.693 222.474 110.875 222.474 111.175C222.474 111.474 221.524 111.622 220.362 111.504C219.2 111.386 218.25 111.54 218.25 111.847C218.25 112.644 216.092 112.948 213.966 112.45C212.598 112.13 211.943 112.311 211.32 113.182C210.865 113.818 209.956 114.339 209.302 114.339C208.375 114.339 208.298 114.175 208.955 113.601C210.746 112.037 209.771 111.573 204.859 111.65C202.142 111.693 199.754 111.496 199.553 111.212C199.018 110.456 195.834 111.885 195.48 113.041C195.236 113.839 195.161 113.812 195.095 112.901C195.022 111.893 194.428 111.789 189.557 111.937C186.556 112.028 183.398 112.319 182.54 112.582C181.622 112.865 180.797 112.802 180.532 112.429C180.286 112.081 179.601 111.958 179.01 112.156C178.419 112.354 177.58 112.274 177.145 111.979C174.861 110.43 171.841 110.976 170.891 113.109C170.565 113.842 170.469 113.808 170.425 112.946C170.385 112.177 169.805 111.867 168.433 111.886C167.368 111.899 165.714 111.835 164.758 111.741C162.842 111.555 161.787 113.508 163.349 114.35C163.824 114.606 163.995 115.124 163.729 115.499C163.03 116.486 161.92 116.34 161.92 115.261C161.92 114.754 161.591 114.339 161.191 114.339C160.709 114.339 160.73 113.902 161.254 113.046C162.017 111.8 161.916 111.762 158.462 111.97C155.773 112.133 154.878 111.976 154.878 111.344C154.878 110.663 154.673 110.648 153.822 111.265C153.181 111.729 152.766 111.778 152.766 111.39C152.766 111.015 150.942 110.746 148.365 110.742C145.945 110.738 140.427 110.642 136.104 110.529C131.781 110.417 128.391 110.534 128.571 110.788C129.007 111.404 126.772 110.665 124.708 109.51C123.509 108.84 122.735 108.76 121.891 109.219C121.243 109.573 120.105 109.64 119.32 109.373C117.246 108.665 111.968 108.718 108.837 109.477C106.774 109.977 105.971 109.959 105.578 109.404C105.281 108.985 103.274 108.631 100.922 108.583C97.4964 108.514 96.5169 108.735 95.2037 109.882C93.2329 111.603 91.876 111.717 93.059 110.063C94.056 108.67 93.2892 107.619 92.0584 108.694C90.8452 109.753 89.77 109.586 90.803 108.499C91.2853 107.992 91.5613 107.563 91.417 107.545C91.2733 107.529 89.1518 107.361 86.7035 107.173C82.7119 106.866 82.0655 106.98 80.4432 108.279L78.6343 109.728L79.099 108.038C79.6053 106.196 79.6517 106.218 74.7841 106.037C73.1379 105.976 71.7916 106.179 71.7916 106.488C71.7916 106.797 71.2938 106.615 70.6854 106.084C70.0763 105.552 69.0201 105.118 68.3378 105.118C67.6555 105.118 66.8951 104.941 66.6472 104.725C66.4001 104.509 65.0003 104.261 63.5378 104.176C56.7831 103.779 52.4718 103.2 51.6085 102.575C50.9114 102.07 50.3742 102.106 49.5356 102.714C48.5766 103.409 48.2639 103.368 47.4943 102.449C46.8113 101.634 46.4931 101.563 46.2156 102.165C45.9255 102.794 45.7136 102.803 45.2313 102.209C44.8926 101.793 43.8793 101.576 42.9795 101.727C42.0789 101.879 39.5708 101.459 37.4049 100.794C35.2397 100.129 32.9013 99.7427 32.2099 99.9344C31.4389 100.148 30.9481 99.9695 30.9418 99.4728C30.9333 98.8765 30.7467 98.906 30.232 99.5853C29.6342 100.375 29.3568 100.312 28.3069 99.1519C27.6317 98.4069 25.2581 97.1928 23.0309 96.4539C20.8038 95.7156 18.9822 94.9287 18.9822 94.7056C18.9822 94.4825 17.8732 94.4124 16.5177 94.5507C14.2519 94.7818 14.0533 94.6712 14.0533 93.1823C14.0533 91.8662 13.6484 91.4924 11.8874 91.1851C10.3588 90.9183 9.18428 90.0638 7.89503 88.2805C6.89024 86.8906 6.14316 85.6599 6.2347 85.5444C6.32694 85.4288 5.94319 85.0139 5.382 84.6223C4.82152 84.2307 4.16457 82.3226 3.92165 80.3832C3.53438 77.2813 3.65126 76.7637 4.89475 76.0856C5.6721 75.6621 6.30793 74.6902 6.30793 73.9261C6.30793 73.1626 6.61 72.5374 6.97896 72.5374C7.34792 72.5374 8.17668 71.5692 8.81954 70.3859C9.46241 69.2026 10.4285 68.2344 10.965 68.2344C11.5016 68.2344 11.9409 67.8858 11.9409 67.4604C11.9409 67.0344 12.5746 66.3404 13.3492 65.9181C14.1237 65.4958 14.7574 64.6315 14.7574 63.9977C14.7574 63.3399 15.3989 62.6988 16.253 62.5039C17.4556 62.2291 17.6598 61.8548 17.2958 60.5878C16.8536 59.051 17.7598 58.3994 18.6301 59.6282C18.8695 59.9663 19.3293 60.243 19.6525 60.243C20.5277 60.243 21.1748 58.3932 20.5862 57.5751C20.3045 57.1829 20.1644 56.3782 20.2764 55.7862C20.3876 55.1948 20.1236 54.7104 19.6891 54.7104C19.2547 54.7104 19.0892 54.9791 19.3216 55.3073C19.5539 55.6356 18.9505 56.0776 17.9802 56.2903C17.0099 56.503 16.0249 57.2025 15.7911 57.8449C15.558 58.4879 15.0715 59.0135 14.7103 59.0135C14.349 59.0135 14.0533 59.3504 14.0533 59.7622C14.0533 60.1741 13.2105 61.1435 12.181 61.9162C11.1509 62.6883 9.96093 63.9424 9.53705 64.7015C9.11316 65.4613 7.74434 66.4978 6.49593 67.0049C5.2454 67.5127 4.21949 68.4016 4.21104 68.9837C4.20118 69.6679 3.82307 69.915 3.13936 69.6863C1.91419 69.2757 1.80857 69.982 2.76477 72.179C3.32948 73.4743 3.20414 73.8579 2.04093 74.4013C1.2678 74.7627 0.829833 75.3326 1.06783 75.6688C1.30582 76.0045 1.09599 76.7046 0.601697 77.2247C-0.0665183 77.9279 -0.0989077 78.4462 0.476363 79.2508C0.950239 79.9123 1.00586 80.6678 0.621412 81.1983C-0.234804 82.3792 -0.196077 85.4466 0.674926 85.4466C1.06219 85.4466 1.4044 86.2077 1.43468 87.1371C1.46495 88.0666 1.65014 88.4821 1.84518 88.0592C2.30638 87.0627 3.35764 87.0627 3.25766 88.0592C3.12739 89.3563 5.808 93.438 6.79025 93.438C7.29934 93.438 7.71618 93.8272 7.71618 94.3024C7.71618 94.8452 8.20766 95.0548 9.035 94.8661C9.93769 94.6601 10.8404 95.1624 11.8994 96.4606C12.7493 97.5032 14.0575 98.3558 14.8053 98.3558C15.5538 98.3558 16.1657 98.7708 16.1657 99.2779C16.1657 99.7851 16.641 100.2 17.2219 100.2C17.8028 100.2 18.2781 100.5 18.2781 100.866C18.2781 101.232 18.6745 101.405 19.1582 101.25C19.6427 101.095 19.963 100.667 19.8708 100.299C19.7785 99.9308 20.175 99.7875 20.7509 99.9806C21.3269 100.174 21.7987 100.686 21.7987 101.118C21.7987 101.885 25.8214 103.888 27.362 103.888C27.788 103.888 28.1358 104.123 28.1358 104.41C28.1358 104.696 29.1181 104.955 30.3193 104.985C31.5198 105.015 33.0668 105.485 33.7568 106.031C34.599 106.696 35.6171 106.889 36.8543 106.618C37.9358 106.381 38.6977 106.472 38.6977 106.838C38.6977 107.181 39.3314 107.317 40.1059 107.14C41.6952 106.777 41.9529 105.989 40.634 105.525C40.1503 105.354 40.4672 105.193 41.3382 105.166C42.2542 105.138 42.9224 105.481 42.9224 105.98C42.9224 107.006 46.8437 108.47 49.0835 108.279C49.9545 108.206 50.6678 108.402 50.6678 108.717C50.6678 109.668 52.8929 110.104 53.9258 109.356C54.6743 108.814 54.8926 108.869 54.8926 109.604C54.8926 110.321 55.9678 110.637 59.2934 110.897C61.7141 111.087 64.5968 111.213 65.7009 111.177C67.5091 111.118 67.6689 110.942 67.3155 109.399C67.0394 108.195 67.2443 107.58 68.0069 107.325C69.6517 106.774 69.8686 106.873 69.3919 107.958C69.0554 108.724 69.2821 108.879 70.3728 108.63C72.181 108.218 72.195 108.895 70.4023 110.023C69.1229 110.829 69.1025 110.983 70.139 111.984C70.9333 112.75 71.6127 112.907 72.4464 112.518C73.116 112.204 74.0539 112.196 74.6123 112.497C75.1538 112.789 75.8234 112.906 76.0994 112.757C76.3761 112.608 77.4999 112.786 78.5977 113.155C79.6954 113.523 82.1774 113.948 84.1138 114.1C86.0501 114.251 88.2287 114.535 88.9546 114.73C89.8144 114.961 90.1073 114.848 89.7932 114.404C89.0708 113.384 90.4981 113.585 91.5071 114.646C92.7449 115.949 93.6195 115.79 93.6195 114.264C93.6195 113.309 93.856 113.12 94.4996 113.559C94.9841 113.89 96.4099 114.463 97.6682 114.832C99.8158 115.463 99.9566 115.416 99.9566 114.071C99.9566 113.155 100.464 112.522 101.363 112.317C102.469 112.064 102.639 112.198 102.162 112.943C101.099 114.601 103.653 116.115 107.486 116.1C109.348 116.092 112.219 116.356 113.867 116.685C115.617 117.034 117.026 117.055 117.253 116.733C117.467 116.431 117.307 116.183 116.897 116.183C116.487 116.183 116.151 115.967 116.151 115.703C116.151 114.944 120.139 113.831 121.066 114.331C121.615 114.628 121.338 114.921 120.26 115.186L118.616 115.59L120.218 116.766C122.253 118.26 132.191 118.479 132.822 117.045C133.326 115.899 134.459 115.941 134.459 117.105C134.459 117.672 135.118 118.027 136.172 118.027C137.613 118.027 137.876 117.739 137.826 116.214C137.783 114.888 137.385 114.35 136.349 114.216C135.112 114.055 135.066 113.934 135.994 113.267C136.894 112.619 137.318 112.943 138.751 115.376L140.444 118.251L140.843 116.448C141.063 115.457 140.997 114.037 140.697 113.292C140.275 112.244 140.383 112.016 141.178 112.282C141.742 112.471 142.209 112.942 142.215 113.329C142.221 113.749 142.472 113.691 142.841 113.184C143.705 111.992 145.167 112.967 144.65 114.39C144.414 115.038 144.538 115.568 144.926 115.568C145.313 115.568 145.831 116.121 146.077 116.798C146.323 117.474 146.977 118.027 147.532 118.027C148.087 118.027 148.541 118.304 148.541 118.642C148.541 119.461 151.092 119.424 152.902 118.578C154.017 118.058 154.493 118.093 154.957 118.732C155.426 119.378 155.563 119.324 155.572 118.488C155.585 117.206 157.491 117.076 159.047 118.251C159.659 118.712 161.348 119.248 162.8 119.442C164.859 119.716 165.44 119.59 165.44 118.869C165.44 117.942 167.151 118.106 169.628 119.269C170.188 119.533 171.365 119.51 172.243 119.218C173.202 118.901 174.007 118.925 174.259 119.28C174.873 120.147 179.355 120.001 179.702 119.103C179.916 118.548 180.274 118.515 180.992 118.984C181.539 119.341 183.807 119.703 186.032 119.788C189.61 119.923 190.275 119.756 191.786 118.331L193.496 116.721L193.726 118.143C193.943 119.478 194.235 119.556 198.534 119.43C201.051 119.357 203.428 119.269 203.815 119.233C204.202 119.198 208.845 119.36 214.133 119.593C223.153 119.99 223.769 119.946 224.085 118.868C224.384 117.854 224.433 117.846 224.505 118.795C224.578 119.755 225.363 120.143 226.845 119.953C227.917 119.815 248.287 119.125 250.111 119.165C251.176 119.188 252.048 118.948 252.048 118.632C252.048 118.284 252.695 118.272 253.69 118.603C254.594 118.903 255.754 118.921 256.268 118.644C256.786 118.364 257.73 118.427 258.385 118.785C259.121 119.186 260.61 119.242 262.322 118.932C263.835 118.659 265.362 118.496 265.713 118.57C266.065 118.645 266.579 118.387 266.856 117.996C267.236 117.46 267.731 117.459 268.871 117.992C269.704 118.38 270.672 118.543 271.025 118.353C271.377 118.163 273.65 117.872 276.075 117.708C278.5 117.543 280.689 117.119 280.94 116.765C281.191 116.411 282 116.131 282.74 116.144C284.593 116.175 286.668 116.172 288.134 116.137C288.811 116.12 289.366 115.709 289.366 115.223C289.366 114.736 289.842 114.339 290.422 114.339C291.003 114.339 291.479 114.615 291.479 114.953C291.479 115.291 291.934 115.568 292.491 115.568C293.211 115.568 293.492 114.849 293.464 113.08C293.442 111.711 293.62 110.42 293.859 110.211C294.099 110.002 294.295 110.555 294.295 111.441C294.295 113.24 295.641 116.183 296.463 116.183C297.782 116.183 299.224 115.365 299.224 114.617C299.224 113.232 300.794 112.86 301.762 114.015C302.847 115.31 305.213 114.807 304.6 113.412C304.365 112.876 304.595 112.494 305.156 112.494C305.683 112.494 306.297 112.909 306.52 113.417C306.743 113.924 307.648 114.307 308.532 114.267C309.724 114.214 309.82 114.124 308.906 113.915C307.475 113.589 307.236 112.494 308.595 112.494C309.102 112.494 310.131 112.887 310.882 113.366C311.845 113.981 312.506 114.049 313.128 113.598C313.749 113.148 314.011 113.171 314.011 113.677C314.011 114.153 314.78 114.269 316.299 114.021C318.743 113.622 319.572 113.499 326.685 112.481C329.202 112.12 331.895 111.571 332.67 111.26C333.445 110.948 334.87 110.723 335.839 110.759C338.355 110.852 343.114 110.032 343.901 109.369C344.268 109.059 345.17 108.806 345.905 108.806C346.638 108.806 348.08 108.29 349.109 107.658C350.382 106.876 351.426 106.666 352.385 107C354.613 107.775 355.545 107.657 355.105 106.655C354.848 106.071 355.114 105.733 355.831 105.733C356.453 105.733 356.962 106.009 356.962 106.347C356.962 106.685 357.438 106.962 358.018 106.962C359.266 106.962 359.278 106.894 358.388 104.85C357.942 103.826 357.942 103.274 358.388 103.274C358.766 103.274 359.075 103.689 359.075 104.196C359.075 104.703 359.682 105.118 360.424 105.118C361.167 105.118 361.879 105.386 362.009 105.713C362.146 106.063 363.586 105.887 365.484 105.291C367.935 104.519 368.92 103.816 369.531 102.404L370.338 100.538L371.41 101.874C372.431 103.146 372.621 103.167 375.359 102.324C376.941 101.836 378.473 101.566 378.763 101.723C379.054 101.879 379.149 101.356 378.974 100.561C378.663 99.1402 380.233 97.5247 380.71 98.7745C380.844 99.1249 381.365 99.9019 381.867 100.502C382.673 101.464 383.104 101.504 385.538 100.842C387.055 100.43 389.639 99.5638 391.281 98.9171C392.923 98.2704 394.751 97.7411 395.343 97.7411C395.936 97.7411 397.676 97.0495 399.21 96.2043C400.743 95.3591 402.457 94.6675 403.018 94.6675C403.579 94.6675 404.457 94.3214 404.969 93.8991C405.48 93.4768 406.963 93.0563 408.263 92.9659C409.563 92.875 411.297 92.3912 412.116 91.8902C412.935 91.3892 414.169 90.9791 414.858 90.9791C415.546 90.9791 416.109 90.5642 416.109 90.0571C416.109 89.5401 416.737 89.135 417.539 89.135C418.326 89.135 419.152 88.72 419.375 88.2129C419.598 87.7057 420.546 87.2908 421.483 87.2908C422.651 87.2908 423.395 86.8083 423.854 85.754C424.509 84.2504 425.967 83.6141 425.967 84.8319C425.967 85.7411 427.325 85.5782 428.532 84.5245C429.113 84.0174 430.124 83.6025 430.779 83.6025C431.434 83.6025 432.283 83.0025 432.665 82.2697C433.047 81.5364 433.992 80.6376 434.763 80.2719C435.535 79.9061 436.866 78.9847 437.722 78.2236C438.578 77.4632 439.53 76.8288 439.839 76.8147C440.148 76.7999 441.193 75.9196 442.161 74.8574C443.13 73.7952 444.796 72.2012 445.864 71.316C448.454 69.1675 452.571 61.9519 450.598 63.016C449.174 63.785 449.674 60.8792 451.49 57.8338C452.583 56.0014 453.229 54.3416 452.925 54.1455C452.62 53.9488 452.371 51.8747 452.37 49.5363C452.368 46.6858 452.078 45.1994 451.49 45.0279C451.006 44.8871 450.611 44.4101 450.611 43.9675C450.611 43.5243 450.165 43.0129 449.621 42.8309C449.077 42.6483 448.419 41.6537 448.159 40.6203C447.899 39.587 447.394 38.5838 447.036 38.3907C446.678 38.1983 446.375 37.4342 446.361 36.6935C446.347 35.9527 445.634 34.644 444.777 33.7852C442.642 31.6466 437.937 28.6824 437.937 29.4754C437.937 29.8307 437.461 30.1215 436.881 30.1215C436.3 30.1215 435.824 29.8891 435.824 29.6057C435.824 29.3217 435.032 28.774 434.064 28.3892C433.096 28.0037 432.296 27.1991 432.286 26.5997C432.269 25.4871 428.267 23.3595 426.191 23.3595C425.572 23.3595 424.615 22.8751 424.063 22.2837C423.375 21.5442 422.952 21.436 422.71 21.9383C422.471 22.4325 421.898 22.2665 420.933 21.4237C419.943 20.5594 418.988 20.2933 417.808 20.5515C416.855 20.7605 416.109 20.6523 416.109 20.3056C416.109 19.3023 411.059 16.8225 408.011 16.3289C406.462 16.0781 404.87 15.6386 404.473 15.3527C403.015 14.3016 395.66 12.4893 390.519 11.9152C388.909 11.7357 386.562 11.3546 385.303 11.0687C383.754 10.7171 383.015 10.7663 383.015 11.2218C383.015 11.5912 382.302 11.3189 381.431 10.6157C380.436 9.81345 378.535 9.22455 376.326 9.03337C374.389 8.86555 371.221 8.41864 369.285 8.03936C367.348 7.66069 363.929 7.24268 361.686 7.1099C359.442 6.97773 357.224 6.60337 356.757 6.27818C356.289 5.95299 353.688 5.66161 350.977 5.63026C346.12 5.57432 344.965 5.4483 342.88 4.74936C340.984 4.11435 334.43 3.85493 334.43 4.41495C334.43 4.71555 333.845 4.68789 333.13 4.35348C332.236 3.93546 331.577 3.96681 331.017 4.45491C330.404 4.99033 330.206 4.95406 330.206 4.3086C330.206 3.68588 329.965 3.74121 329.319 4.51146C328.319 5.70525 325.485 5.59153 324.586 4.32212C324.201 3.77809 323.278 3.63794 321.793 3.89735C320.284 4.16045 319.725 4.07132 320.046 3.61765C320.341 3.19964 319.915 3.23222 318.904 3.70494C317.569 4.32889 317.153 4.29446 316.493 3.50639C315.777 2.65192 315.613 2.65991 314.894 3.582C314.152 4.53543 314.09 4.53174 314.052 3.53466C314.029 2.9433 313.931 2.43369 313.835 2.40296C313.738 2.37283 310.51 2.2253 306.662 2.07592C302.813 1.92593 299.277 1.52267 298.803 1.17966C298.213 0.751808 297.785 0.775782 297.446 1.25465C297.123 1.71078 296.06 1.7993 294.39 1.50853C290.03 0.748734 287.254 0.810821 287.254 1.66836C287.254 2.10297 286.937 2.4589 286.55 2.4589C286.163 2.4589 285.925 2.14785 286.022 1.76733C286.119 1.38682 285.406 1.00077 284.437 0.909177C283.469 0.817583 281.965 0.543416 281.093 0.29937C279.894 -0.0356543 279.509 0.0983554 279.509 0.850163C279.509 1.39727 279.878 1.84417 280.33 1.84417C280.782 1.84417 280.915 2.05133 280.625 2.30398C280.334 2.55725 279.699 2.28862 279.212 1.70709C278.009 0.269864 274.728 0.169049 271.858 1.48087C269.992 2.33349 269.319 2.40296 268.69 1.80606C268.086 1.23498 268.106 1.15568 268.771 1.48271C269.311 1.74889 269.651 1.54665 269.651 0.958355C269.651 0.431536 269.246 0 268.752 0C267.657 0 264.694 1.67451 263.49 2.97342C262.724 3.79961 262.61 3.74244 262.61 2.53512C262.61 1.42616 262.326 1.22514 261.201 1.53681C260.198 1.81467 259.793 1.64746 259.793 0.954052C259.793 0.241587 259.179 0.0116795 257.505 0.0965114C256.246 0.161057 254.704 0.432151 254.076 0.699556C253.45 0.966961 252.745 1.0186 252.51 0.813894C252.276 0.608576 249.177 0.362072 245.625 0.26556C240.74 0.133395 238.764 0.320271 237.517 1.03397C236.132 1.82573 235.807 1.83987 235.492 1.12249C235.097 0.224374 232.509 0.0670044 231.053 0.852622C230.582 1.1065 230.347 1.52697 230.531 1.78639C230.715 2.0458 230.432 2.79822 229.904 3.45721C229.083 4.48011 226.74 4.85755 224.587 4.31413C223.992 4.16414 227.714 2.87322 228.37 3.00293C228.708 3.06932 228.787 2.67528 228.546 2.12633C228.305 1.578 228.107 0.872908 228.107 0.560629C228.107 0.230522 225.818 0.143231 222.65 0.352237C216.214 0.776396 216.329 0.777626 213.849 0.260643C212.367 -0.0485633 211.913 0.0817579 211.913 0.813894C211.913 1.66221 211.692 1.67082 209.976 0.889506C207.325 -0.317812 202.056 -0.239743 199.967 1.03765C198.764 1.77348 198.189 1.86261 197.991 1.34502C197.582 0.273552 193.93 0.454896 192.841 1.60013C191.989 2.49639 191.804 2.47734 190.794 1.38866C189.851 0.371294 189.547 0.320272 188.767 1.04933ZM197.83 2.76626C197.83 3.27341 197.513 3.72277 197.126 3.76518C196.739 3.8076 196.094 3.87645 195.692 3.91887C195.29 3.96128 194.661 4.41064 194.295 4.91779C193.348 6.22531 193.382 4.58584 194.334 3.03305C195.192 1.63271 197.83 1.43169 197.83 2.76626ZM160.511 3.95944C160.511 4.10882 160.195 4.40142 159.807 4.61043C159.42 4.81944 159.103 4.6971 159.103 4.33934C159.103 3.98157 159.42 3.68834 159.807 3.68834C160.195 3.68834 160.511 3.81006 160.511 3.95944ZM139.771 7.33304C139.078 8.31107 137.963 7.51439 138.455 6.39374C138.726 5.77718 139.11 5.65915 139.561 6.05257C139.94 6.38391 140.035 6.95991 139.771 7.33304ZM311.898 6.4546C311.898 6.96175 311.433 7.37669 310.864 7.37669C310.234 7.37669 309.989 7.01646 310.235 6.4546C310.458 5.94745 310.924 5.53252 311.27 5.53252C311.615 5.53252 311.898 5.94745 311.898 6.4546ZM319.241 5.99356C318.891 6.24744 318.367 6.73123 318.078 7.06933C317.778 7.42033 317.548 7.22239 317.542 6.60828C317.536 6.01016 318.052 5.53252 318.705 5.53252C319.35 5.53252 319.592 5.73968 319.241 5.99356ZM136.571 7.37669C136.571 7.71479 136.254 7.99141 135.867 7.99141C135.48 7.99141 135.163 7.71479 135.163 7.37669C135.163 7.03859 135.48 6.76196 135.867 6.76196C136.254 6.76196 136.571 7.03859 136.571 7.37669ZM158.912 7.13326C158.679 7.33735 158.071 7.35947 157.563 7.18182C157.001 6.98572 157.168 6.84003 157.988 6.81053C158.731 6.78409 159.146 6.92917 158.912 7.13326ZM330.206 8.03813C330.206 8.3289 329.73 8.40819 329.149 8.21394C328.568 8.01907 328.093 7.62135 328.093 7.32997C328.093 7.0392 328.568 6.95991 329.149 7.15416C329.73 7.34903 330.206 7.74675 330.206 8.03813ZM344.992 7.37669C344.992 7.71479 344.437 7.98711 343.76 7.98219C342.707 7.9742 342.681 7.88568 343.584 7.37669C344.913 6.62672 344.992 6.62672 344.992 7.37669ZM123.545 8.60614C123.784 8.94423 123.644 9.22086 123.234 9.22086C122.824 9.22086 122.489 8.94423 122.489 8.60614C122.489 8.26804 122.628 7.99141 122.799 7.99141C122.97 7.99141 123.305 8.26804 123.545 8.60614ZM307.674 8.60614C307.674 8.94423 307.338 9.22086 306.928 9.22086C306.518 9.22086 306.378 8.94423 306.617 8.60614C306.857 8.26804 307.192 7.99141 307.363 7.99141C307.534 7.99141 307.674 8.26804 307.674 8.60614ZM325.245 10.1091C325.885 10.7829 325.913 11.065 325.341 11.065C324.894 11.065 324.346 10.6501 324.123 10.1429C323.9 9.6358 323.276 9.22086 322.737 9.22086C322.198 9.22086 321.756 8.9344 321.756 8.58462C321.756 7.78855 323.95 8.74691 325.245 10.1091ZM315.932 8.97743C315.698 9.18152 315.091 9.20365 314.583 9.02599C314.021 8.82989 314.188 8.68421 315.008 8.6547C315.751 8.62827 316.166 8.77334 315.932 8.97743ZM109.58 10.8603C108.662 11.6607 109.129 12.9092 110.342 12.9C111.317 12.8926 111.372 12.7783 110.604 12.3535C110.071 12.0584 109.852 11.5095 110.118 11.1339C110.65 10.3821 110.32 10.2143 109.58 10.8603ZM341.985 12.6658C341.751 12.8699 341.143 12.892 340.636 12.7143C340.074 12.5182 340.241 12.3725 341.061 12.343C341.803 12.3166 342.219 12.4617 341.985 12.6658ZM344.288 13.5239C344.288 13.862 343.971 14.1387 343.584 14.1387C343.197 14.1387 342.88 13.862 342.88 13.5239C342.88 13.1858 343.197 12.9092 343.584 12.9092C343.971 12.9092 344.288 13.1858 344.288 13.5239ZM352.033 13.8313C352.033 14.3384 351.717 14.7534 351.329 14.7534C350.942 14.7534 350.625 14.3384 350.625 13.8313C350.625 13.3241 350.942 12.9092 351.329 12.9092C351.717 12.9092 352.033 13.3241 352.033 13.8313ZM371.749 15.097C371.749 15.6238 371.432 15.8845 371.045 15.6755C370.658 15.4665 370.341 15.0355 370.341 14.7171C370.341 14.3987 370.658 14.1387 371.045 14.1387C371.432 14.1387 371.749 14.5702 371.749 15.097ZM397.802 20.5933C397.802 21.1004 397.326 21.5153 396.745 21.5153C396.165 21.5153 395.689 21.1004 395.689 20.5933C395.689 20.0861 396.165 19.6712 396.745 19.6712C397.326 19.6712 397.802 20.0861 397.802 20.5933ZM422.208 25.9721C422.013 26.395 421.853 26.0489 421.853 25.2037C421.853 24.3584 422.013 24.013 422.208 24.4353C422.404 24.8582 422.404 25.5498 422.208 25.9721ZM90.4509 33.1951C90.2115 33.5332 90.3516 33.8098 90.7614 33.8098C91.1712 33.8098 91.5071 33.5332 91.5071 33.1951C91.5071 32.857 91.3677 32.5804 91.1966 32.5804C91.0255 32.5804 90.6903 32.857 90.4509 33.1951ZM81.0565 35.654C81.0565 36.4992 81.2163 36.8453 81.4113 36.4224C81.6071 36.0001 81.6071 35.3085 81.4113 34.8856C81.2163 34.4633 81.0565 34.8087 81.0565 35.654ZM66.2895 36.4003C65.1925 37.358 65.2193 38.2899 66.3346 37.9371C66.819 37.784 67.7492 38.0643 68.4026 38.5604C69.0561 39.0571 69.9271 39.2809 70.339 39.0589C71.3423 38.5174 71.2924 37.4982 70.2629 37.4982C69.8095 37.4982 68.9173 37.0869 68.2815 36.5847C67.3894 35.8796 66.9338 35.8378 66.2895 36.4003ZM56.8191 39.0952C56.5874 39.2975 56.5677 39.8489 56.7754 40.3216C57.0782 41.0107 56.529 41.106 54.0033 40.8035C51.9979 40.5638 50.677 40.6769 50.3672 41.114C50.0996 41.492 50.2165 41.8012 50.6263 41.8012C51.0361 41.8012 51.3719 42.4584 51.3719 43.2612C51.3719 44.4089 51.7487 44.7212 53.1323 44.7212C54.3722 44.7212 54.8926 44.3868 54.8926 43.5901C54.8926 42.3453 56.8536 41.1951 58.2379 41.6285C58.8265 41.8129 58.9617 41.548 58.6463 40.83C58.3238 40.0972 58.4357 39.8968 58.9976 40.1999C59.4511 40.4445 59.8215 40.3812 59.8215 40.0591C59.8215 39.737 59.3201 39.3061 58.7075 39.1007C57.3408 38.6428 57.3366 38.6428 56.8191 39.0952ZM61.2297 40.4126C61.2297 41.5461 62.5309 41.9217 63.8645 41.1736C64.863 40.613 64.8806 40.538 63.9561 40.7845C63.3252 40.9529 62.4542 40.7802 62.0197 40.4009C61.436 39.8913 61.2297 39.8944 61.2297 40.4126ZM46.091 42.416C45.8516 42.7541 45.9917 43.0307 46.4015 43.0307C46.8113 43.0307 47.1472 43.4229 47.1472 43.9017C47.1472 45.1638 48.7737 45.4484 49.7018 44.3486C50.301 43.6386 50.27 43.2102 49.5757 42.6047C48.4836 41.6506 46.7008 41.5541 46.091 42.416ZM41.3382 44.069C40.6601 44.2239 40.1059 44.8496 40.1059 45.4594C40.1059 46.0693 39.5715 46.9483 38.9181 47.4124C37.8837 48.1464 37.7866 48.1231 38.1696 47.2311C38.4308 46.6207 38.1999 46.0693 37.5971 45.867C37.0409 45.6808 36.5853 45.7963 36.5853 46.1234C36.5853 46.451 36.11 46.719 35.5291 46.719C34.9482 46.719 34.4729 46.987 34.4729 47.3147C34.4729 47.6417 34.03 47.7616 33.4879 47.5796C31.9149 47.0528 31.7177 48.1495 33.1548 49.4392C34.3173 50.483 34.4729 50.5014 34.4729 49.5929C34.4729 49.0267 34.9482 48.5632 35.5291 48.5632C36.11 48.5632 36.5853 48.9972 36.5853 49.5283C36.5853 51.1426 39.6243 50.3275 40.1827 48.5632C40.489 47.5962 40.696 47.4253 40.7397 48.1021C40.8185 49.3033 41.8825 49.5357 42.6084 48.5097C42.8682 48.1421 43.6737 47.9767 44.3983 48.1421C45.4742 48.3874 45.5925 48.2435 45.0475 47.354C44.6806 46.7559 44.5729 46.0981 44.8081 45.8928C45.2763 45.4834 43.7237 43.6018 43.0126 43.7167C42.7689 43.7561 42.0162 43.9147 41.3382 44.069ZM45.7389 46.1043C44.8363 46.6133 44.8616 46.7018 45.915 46.7098C46.5931 46.7147 47.1472 46.4424 47.1472 46.1043C47.1472 45.3543 47.0676 45.3543 45.7389 46.1043ZM27.2937 50.6969C23.6688 52.7384 23.2886 53.2621 25.1433 53.6599C25.8206 53.8049 25.3461 53.8117 24.0871 53.6746C21.7184 53.4164 20.9354 54.29 22.9344 54.9594C23.6555 55.201 23.9371 55.7868 23.7048 56.562C23.5034 57.2339 23.6259 57.7841 23.9772 57.7841C24.3279 57.7841 24.6152 57.2308 24.6152 56.5546C24.6152 55.2145 25.1341 55.0473 26.6649 55.8932C27.8183 56.5306 30.2482 55.4327 30.2482 54.2746C30.2482 53.8332 30.7608 53.6636 31.4804 53.8658C32.4739 54.1449 32.5169 54.0908 31.7015 53.5861C30.877 53.0753 30.8558 52.7864 31.5867 52.0173C32.3141 51.2526 32.3056 50.8635 31.5417 49.9549C30.6467 48.8902 30.4369 48.9265 27.2937 50.6969ZM12.9971 63.9313C13.24 64.2743 12.7134 64.5417 11.8064 64.5368C10.4982 64.5288 10.3869 64.4108 11.2368 63.9313C12.5472 63.1924 12.474 63.1924 12.9971 63.9313ZM424.206 79.9141C424.446 80.2522 424.129 80.5288 423.502 80.5288C422.876 80.5288 422.559 80.2522 422.798 79.9141C423.037 79.576 423.354 79.2994 423.502 79.2994C423.65 79.2994 423.967 79.576 424.206 79.9141ZM412.127 86.3951C411.897 86.9171 411.559 87.2121 411.374 87.0511C411.19 86.89 411.248 86.4628 411.503 86.1025C412.197 85.1214 412.603 85.312 412.127 86.3951ZM410.015 90.0835C409.785 90.6054 409.446 90.9005 409.262 90.7394C409.077 90.5783 409.135 90.1511 409.391 89.7909C410.085 88.8098 410.491 89.0004 410.015 90.0835ZM393.577 92.2086C393.577 92.5467 393.241 92.8233 392.831 92.8233C392.421 92.8233 392.281 92.5467 392.521 92.2086C392.76 91.8705 393.095 91.5939 393.266 91.5939C393.437 91.5939 393.577 91.8705 393.577 92.2086ZM396.041 92.2086C396.281 92.5467 395.982 92.8233 395.379 92.8233C394.775 92.8233 394.281 92.5467 394.281 92.2086C394.281 91.8705 394.579 91.5939 394.944 91.5939C395.308 91.5939 395.802 91.8705 396.041 92.2086ZM349.217 104.503C349.217 104.841 348.9 105.118 348.513 105.118C348.126 105.118 347.809 104.841 347.809 104.503C347.809 104.165 348.126 103.888 348.513 103.888C348.9 103.888 349.217 104.165 349.217 104.503ZM76.9556 110.096C77.2781 110.307 77.0408 110.647 76.4275 110.853C75.6241 111.122 75.3122 110.859 75.3122 109.914C75.3122 109.192 75.5502 108.852 75.8403 109.158C76.1304 109.463 76.6324 109.886 76.9556 110.096ZM89.2039 111.022C88.9701 111.226 88.3625 111.248 87.8548 111.07C87.2929 110.874 87.4598 110.728 88.2801 110.699C89.0222 110.672 89.4377 110.818 89.2039 111.022ZM261.905 113.417C261.905 113.946 261.27 114.339 260.411 114.339C259.162 114.339 259.061 114.187 259.793 113.417C260.275 112.909 260.948 112.494 261.287 112.494C261.627 112.494 261.905 112.909 261.905 113.417ZM184.804 113.724C185.043 114.062 184.726 114.339 184.1 114.339C183.473 114.339 183.156 114.062 183.395 113.724C183.635 113.386 183.952 113.109 184.1 113.109C184.247 113.109 184.564 113.386 184.804 113.724ZM156.991 113.956C156.991 114.084 156.515 114.532 155.935 114.953C155.069 115.58 154.878 115.538 154.878 114.721C154.878 114.173 155.354 113.724 155.935 113.724C156.515 113.724 156.991 113.828 156.991 113.956ZM203.463 113.995C203.463 114.144 203.146 114.437 202.759 114.646C202.372 114.855 202.055 114.733 202.055 114.375C202.055 114.017 202.372 113.724 202.759 113.724C203.146 113.724 203.463 113.846 203.463 113.995ZM172.188 115.568C172.737 115.568 173.186 116.121 173.186 116.798C173.186 117.474 173.005 118.027 172.784 118.027C171.975 118.027 170.717 116.458 170.566 115.261C170.48 114.585 170.586 114.377 170.8 114.8C171.015 115.223 171.639 115.568 172.188 115.568ZM142.908 116.798C142.908 117.59 143.265 118.026 143.788 117.873C144.273 117.733 144.669 117.248 144.669 116.798C144.669 116.347 144.273 115.863 143.788 115.722C143.265 115.569 142.908 116.005 142.908 116.798ZM187.749 116.913C187.524 117.403 187.358 117.257 187.324 116.541C187.293 115.893 187.46 115.531 187.693 115.735C187.927 115.939 187.953 116.469 187.749 116.913ZM189.733 118.642C189.972 118.98 189.673 119.256 189.07 119.256C188.467 119.256 187.972 118.98 187.972 118.642C187.972 118.304 188.27 118.027 188.635 118.027C189 118.027 189.493 118.304 189.733 118.642Z" fill="#F7991C"/>
</svg>
